SplineFontDB: 3.2
FontName: VictorFPro-Regular
FullName: Victor F Pro
FamilyName: Victor F Pro
Weight: Regular
Copyright: Copyright 2010, 2012 Adobe Systems Incorporated (http://www.adobe.com/), with Reserved Font Name `Source'.
Version: 1.0
ItalicAngle: 0
UnderlinePosition: -100
UnderlineWidth: 50
Ascent: 750
Descent: 250
InvalidEm: 0
sfntRevision: 0x00010000
LayerCount: 2
Layer: 0 1 "Back" 1
Layer: 1 1 "Fore" 0
XUID: [1021 685 -1151724439 10521835]
StyleMap: 0x0040
FSType: 0
OS2Version: 3
OS2_WeightWidthSlopeOnly: 0
OS2_UseTypoMetrics: 0
CreationTime: 1465456847
ModificationTime: 1606071304
PfmFamily: 17
TTFWeight: 400
TTFWidth: 5
LineGap: 0
VLineGap: 0
Panose: 2 11 5 9 3 4 3 2 2 4
OS2TypoAscent: 750
OS2TypoAOffset: 0
OS2TypoDescent: -250
OS2TypoDOffset: 0
OS2TypoLinegap: 0
OS2WinAscent: 984
OS2WinAOffset: 0
OS2WinDescent: 273
OS2WinDOffset: 0
HheadAscent: 984
HheadAOffset: 0
HheadDescent: -273
HheadDOffset: 0
OS2SubXSize: 650
OS2SubYSize: 600
OS2SubXOff: 0
OS2SubYOff: 75
OS2SupXSize: 650
OS2SupYSize: 600
OS2SupXOff: 0
OS2SupYOff: 350
OS2StrikeYSize: 50
OS2StrikeYPos: 288
OS2CapHeight: 660
OS2XHeight: 480
OS2Vendor: 'ADBO'
OS2CodePages: 6000019f.00000000
OS2UnicodeRanges: 200002f7.02003803.00000000.00000000
Lookup: 1 0 0 "'ss02' Style Set 2 lookup 0" { "'ss02' Style Set 2 lookup 0 subtable"  } ['cv01' ('DFLT' <'dflt' > 'cyrl' <'SRB ' 'dflt' > 'grek' <'dflt' > 'latn' <'NSM ' 'SKS ' 'dflt' > ) 'salt' ('DFLT' <'dflt' > 'cyrl' <'SRB ' 'dflt' > 'grek' <'dflt' > 'latn' <'NSM ' 'SKS ' 'dflt' > ) 'ss02' ('DFLT' <'dflt' > 'cyrl' <'SRB ' 'dflt' > 'grek' <'dflt' > 'latn' <'NSM ' 'SKS ' 'dflt' > ) ]

StartChar: .notdef
Encoding: 1114112 -1 0
Width: 600
Flags: W
LayerCount: 2
Fore
SplineSet
62 0 m 1,0,-1
 62 660 l 1,1,-1
 538 660 l 1,2,-1
 538 0 l 1,3,-1
 62 0 l 1,0,-1
170 58 m 1,4,-1
 427 58 l 1,5,-1
 354 190 l 1,6,-1
 302 293 l 1,7,-1
 298 293 l 1,8,-1
 244 190 l 1,9,-1
 170 58 l 1,4,-1
127 110 m 1,10,-1
 255 340 l 1,11,-1
 127 572 l 1,12,-1
 127 110 l 1,10,-1
298 387 m 1,13,-1
 302 387 l 1,14,-1
 351 481 l 1,15,-1
 417 600 l 1,16,-1
 182 600 l 1,17,-1
 248 481 l 1,18,-1
 298 387 l 1,13,-1
345 340 m 1,19,-1
 472 110 l 1,20,-1
 472 572 l 1,21,-1
 345 340 l 1,19,-1
EndSplineSet
EndChar

StartChar: A
Encoding: 65 65 2
Width: 600
GlyphClass: 2
Flags: W
AnchorPoint: "Anchor-6" 504 0 basechar 0
AnchorPoint: "Anchor-3" 300 -20 basechar 0
AnchorPoint: "Anchor-2" 520 0 basechar 0
AnchorPoint: "Anchor-0" 300 676 basechar 0
LayerCount: 2
Fore
SplineSet
232 367 m 2,0,-1
 201 267 l 1,1,-1
 397 267 l 1,2,-1
 366 367 l 2,3,4
 349 422 349 422 332.5 476.5 c 128,-1,5
 316 531 316 531 301 588 c 1,6,-1
 297 588 l 1,7,8
 281 531 281 531 265 476.5 c 128,-1,9
 249 422 249 422 232 367 c 2,0,-1
32 0 m 1,10,-1
 253 656 l 1,11,-1
 347 656 l 1,12,-1
 568 0 l 1,13,-1
 480 0 l 1,14,-1
 418 200 l 1,15,-1
 180 200 l 1,16,-1
 117 0 l 1,17,-1
 32 0 l 1,10,-1
EndSplineSet
EndChar

StartChar: B
Encoding: 66 66 3
Width: 600
GlyphClass: 2
Flags: W
AnchorPoint: "Anchor-3" 307 -20 basechar 0
AnchorPoint: "Anchor-0" 301 676 basechar 0
LayerCount: 2
Fore
SplineSet
99 0 m 1,0,-1
 99 656 l 1,1,-1
 285 656 l 2,2,3
 335 656 335 656 376.5 647 c 128,-1,4
 418 638 418 638 447.5 619 c 128,-1,5
 477 600 477 600 493.5 569.5 c 128,-1,6
 510 539 510 539 510 496 c 0,7,8
 510 447 510 447 482 407.5 c 128,-1,9
 454 368 454 368 395 353 c 1,10,-1
 395 349 l 1,11,12
 467 338 467 338 507 299 c 128,-1,13
 547 260 547 260 547 192 c 0,14,15
 547 144 547 144 529 108 c 128,-1,16
 511 72 511 72 478.5 48 c 128,-1,17
 446 24 446 24 400.5 12 c 128,-1,18
 355 0 355 0 300 0 c 2,19,-1
 99 0 l 1,0,-1
182 380 m 1,20,-1
 271 380 l 2,21,22
 355 380 355 380 391.5 407 c 128,-1,23
 428 434 428 434 428 489 c 0,24,25
 428 543 428 543 389.5 564.5 c 128,-1,26
 351 586 351 586 275 586 c 2,27,-1
 182 586 l 1,28,-1
 182 380 l 1,20,-1
182 70 m 1,29,-1
 288 70 l 2,30,31
 373 70 373 70 419 99.5 c 128,-1,32
 465 129 465 129 465 196 c 0,33,34
 465 257 465 257 420 283.5 c 128,-1,35
 375 310 375 310 288 310 c 2,36,-1
 182 310 l 1,37,-1
 182 70 l 1,29,-1
EndSplineSet
EndChar

StartChar: C
Encoding: 67 67 4
Width: 600
GlyphClass: 2
Flags: W
AnchorPoint: "Anchor-3" 344 -20 basechar 0
AnchorPoint: "Anchor-2" 350 0 basechar 0
AnchorPoint: "Anchor-0" 346 676 basechar 0
LayerCount: 2
Fore
SplineSet
351 -12 m 0,0,1
 290 -12 290 -12 238 11 c 128,-1,2
 186 34 186 34 147.5 77.5 c 128,-1,3
 109 121 109 121 87 184.5 c 128,-1,4
 65 248 65 248 65 328 c 0,5,6
 65 407 65 407 87 470 c 128,-1,7
 109 533 109 533 148 577 c 128,-1,8
 187 621 187 621 241 644.5 c 128,-1,9
 295 668 295 668 359 668 c 0,10,11
 418 668 418 668 463.5 644 c 128,-1,12
 509 620 509 620 538 588 c 1,13,-1
 491 535 l 1,14,15
 465 562 465 562 433 578.5 c 128,-1,16
 401 595 401 595 359 595 c 0,17,18
 312 595 312 595 273.5 576.5 c 128,-1,19
 235 558 235 558 208 523.5 c 128,-1,20
 181 489 181 489 166 440 c 128,-1,21
 151 391 151 391 151 330 c 0,22,23
 151 268 151 268 166 218.5 c 128,-1,24
 181 169 181 169 208 134 c 128,-1,25
 235 99 235 99 273.5 80 c 128,-1,26
 312 61 312 61 359 61 c 0,27,28
 404 61 404 61 439.5 80 c 128,-1,29
 475 99 475 99 507 134 c 1,30,-1
 554 83 l 1,31,32
 515 38 515 38 466 13 c 128,-1,33
 417 -12 417 -12 351 -12 c 0,0,1
EndSplineSet
EndChar

StartChar: D
Encoding: 68 68 5
Width: 600
GlyphClass: 2
Flags: W
AnchorPoint: "Anchor-3" 294 -20 basechar 0
AnchorPoint: "Anchor-2" 286 0 basechar 0
AnchorPoint: "Anchor-0" 300 676 basechar 0
LayerCount: 2
Fore
SplineSet
87 0 m 1,0,-1
 87 656 l 1,1,-1
 249 656 l 2,2,3
 398 656 398 656 475.5 572 c 128,-1,4
 553 488 553 488 553 331 c 256,5,6
 553 174 553 174 475.5 87 c 128,-1,7
 398 0 398 0 253 0 c 2,8,-1
 87 0 l 1,0,-1
170 68 m 1,9,-1
 243 68 l 2,10,11
 356 68 356 68 411.5 137 c 128,-1,12
 467 206 467 206 467 331 c 256,13,14
 467 456 467 456 411.5 522 c 128,-1,15
 356 588 356 588 243 588 c 2,16,-1
 170 588 l 1,17,-1
 170 68 l 1,9,-1
EndSplineSet
EndChar

StartChar: E
Encoding: 69 69 6
Width: 600
GlyphClass: 2
Flags: W
AnchorPoint: "Anchor-6" 430 0 basechar 0
AnchorPoint: "Anchor-3" 333 -20 basechar 0
AnchorPoint: "Anchor-2" 326 0 basechar 0
AnchorPoint: "Anchor-0" 331 676 basechar 0
LayerCount: 2
Fore
SplineSet
114 0 m 1,0,-1
 114 656 l 1,1,-1
 520 656 l 1,2,-1
 520 586 l 1,3,-1
 198 586 l 1,4,-1
 198 380 l 1,5,-1
 470 380 l 1,6,-1
 470 309 l 1,7,-1
 198 309 l 1,8,-1
 198 71 l 1,9,-1
 530 71 l 1,10,-1
 530 0 l 1,11,-1
 114 0 l 1,0,-1
EndSplineSet
EndChar

StartChar: F
Encoding: 70 70 7
Width: 600
GlyphClass: 2
Flags: W
AnchorPoint: "Anchor-3" 181 -20 basechar 0
AnchorPoint: "Anchor-2" 170 0 basechar 0
AnchorPoint: "Anchor-0" 342 676 basechar 0
LayerCount: 2
Fore
SplineSet
133 0 m 1,0,-1
 133 656 l 1,1,-1
 536 656 l 1,2,-1
 536 586 l 1,3,-1
 217 586 l 1,4,-1
 217 364 l 1,5,-1
 487 364 l 1,6,-1
 487 294 l 1,7,-1
 217 294 l 1,8,-1
 217 0 l 1,9,-1
 133 0 l 1,0,-1
EndSplineSet
EndChar

StartChar: G
Encoding: 71 71 8
Width: 600
GlyphClass: 2
Flags: W
AnchorPoint: "Anchor-3" 330 -20 basechar 0
AnchorPoint: "Anchor-0" 330 676 basechar 0
LayerCount: 2
Fore
SplineSet
337 -12 m 0,0,1
 275 -12 275 -12 223 11 c 128,-1,2
 171 34 171 34 133 77.5 c 128,-1,3
 95 121 95 121 74 184.5 c 128,-1,4
 53 248 53 248 53 328 c 0,5,6
 53 407 53 407 74.5 470.5 c 128,-1,7
 96 534 96 534 134.5 577.5 c 128,-1,8
 173 621 173 621 226.5 644.5 c 128,-1,9
 280 668 280 668 344 668 c 0,10,11
 377 668 377 668 404 661 c 128,-1,12
 431 654 431 654 453.5 642.5 c 128,-1,13
 476 631 476 631 493.5 617 c 128,-1,14
 511 603 511 603 525 588 c 1,15,-1
 478 535 l 1,16,17
 454 561 454 561 423 578 c 128,-1,18
 392 595 392 595 344 595 c 0,19,20
 298 595 298 595 260.5 576.5 c 128,-1,21
 223 558 223 558 196 523.5 c 128,-1,22
 169 489 169 489 154.5 440 c 128,-1,23
 140 391 140 391 140 330 c 0,24,25
 140 268 140 268 153.5 218.5 c 128,-1,26
 167 169 167 169 192.5 134 c 128,-1,27
 218 99 218 99 256 80 c 128,-1,28
 294 61 294 61 342 61 c 0,29,30
 377 61 377 61 407 71.5 c 128,-1,31
 437 82 437 82 456 100 c 1,32,-1
 456 271 l 1,33,-1
 325 271 l 1,34,-1
 325 340 l 1,35,-1
 533 340 l 1,36,-1
 533 64 l 1,37,38
 502 32 502 32 451.5 10 c 128,-1,39
 401 -12 401 -12 337 -12 c 0,0,1
EndSplineSet
EndChar

StartChar: H
Encoding: 72 72 9
Width: 600
GlyphClass: 2
Flags: W
AnchorPoint: "Anchor-3" 300 -20 basechar 0
AnchorPoint: "Anchor-2" 122 0 basechar 0
AnchorPoint: "Anchor-0" 300 676 basechar 0
LayerCount: 2
Fore
SplineSet
79 0 m 1,0,-1
 79 656 l 1,1,-1
 163 656 l 1,2,-1
 163 381 l 1,3,-1
 437 381 l 1,4,-1
 437 656 l 1,5,-1
 521 656 l 1,6,-1
 521 0 l 1,7,-1
 437 0 l 1,8,-1
 437 309 l 1,9,-1
 163 309 l 1,10,-1
 163 0 l 1,11,-1
 79 0 l 1,0,-1
EndSplineSet
EndChar

StartChar: I
Encoding: 73 73 10
Width: 600
GlyphClass: 2
Flags: W
AnchorPoint: "Anchor-6" 300 0 basechar 0
AnchorPoint: "Anchor-3" 300 -20 basechar 0
AnchorPoint: "Anchor-2" 300 0 basechar 0
AnchorPoint: "Anchor-0" 300 676 basechar 0
LayerCount: 2
Fore
SplineSet
95 0 m 1,0,-1
 95 71 l 1,1,-1
 258 71 l 1,2,-1
 258 586 l 1,3,-1
 95 586 l 1,4,-1
 95 656 l 1,5,-1
 505 656 l 1,6,-1
 505 586 l 1,7,-1
 342 586 l 1,8,-1
 342 71 l 1,9,-1
 505 71 l 1,10,-1
 505 0 l 1,11,-1
 95 0 l 1,0,-1
EndSplineSet
EndChar

StartChar: J
Encoding: 74 74 11
Width: 600
GlyphClass: 2
Flags: W
AnchorPoint: "Anchor-3" 300 -20 basechar 0
AnchorPoint: "Anchor-0" 324 676 basechar 0
LayerCount: 2
Fore
SplineSet
276 -12 m 0,0,1
 221 -12 221 -12 168 14 c 128,-1,2
 115 40 115 40 81 97 c 1,3,-1
 133 148 l 1,4,5
 161 103 161 103 198.5 82 c 128,-1,6
 236 61 236 61 274 61 c 0,7,8
 345 61 345 61 377.5 98.5 c 128,-1,9
 410 136 410 136 410 217 c 2,10,-1
 410 587 l 1,11,-1
 135 587 l 1,12,-1
 135 657 l 1,13,-1
 493 657 l 1,14,-1
 493 210 l 2,15,16
 493 164 493 164 482 123.5 c 128,-1,17
 471 83 471 83 445.5 53 c 128,-1,18
 420 23 420 23 378.5 5.5 c 128,-1,19
 337 -12 337 -12 276 -12 c 0,0,1
EndSplineSet
EndChar

StartChar: K
Encoding: 75 75 12
Width: 600
GlyphClass: 2
Flags: W
AnchorPoint: "Anchor-3" 338 -20 basechar 0
AnchorPoint: "Anchor-0" 326 676 basechar 0
LayerCount: 2
Fore
SplineSet
98 0 m 1,0,-1
 98 656 l 1,1,-1
 182 656 l 1,2,-1
 182 327 l 1,3,-1
 185 327 l 1,4,-1
 461 656 l 1,5,-1
 556 656 l 1,6,-1
 348 407 l 1,7,-1
 580 0 l 1,8,-1
 486 0 l 1,9,-1
 295 344 l 1,10,-1
 182 209 l 1,11,-1
 182 0 l 1,12,-1
 98 0 l 1,0,-1
EndSplineSet
EndChar

StartChar: L
Encoding: 76 76 13
Width: 600
GlyphClass: 2
Flags: W
AnchorPoint: "Anchor-4" 176 337 basechar 0
AnchorPoint: "Anchor-3" 349 -20 basechar 0
AnchorPoint: "Anchor-2" 349 0 basechar 0
AnchorPoint: "Anchor-0" 189 676 basechar 0
LayerCount: 2
Fore
SplineSet
134 0 m 1,0,-1
 134 656 l 1,1,-1
 216 656 l 1,2,-1
 216 71 l 1,3,-1
 541 71 l 1,4,-1
 541 0 l 1,5,-1
 134 0 l 1,0,-1
EndSplineSet
EndChar

StartChar: M
Encoding: 77 77 14
Width: 600
GlyphClass: 2
Flags: W
AnchorPoint: "Anchor-3" 300 -20 basechar 0
AnchorPoint: "Anchor-2" 486 0 basechar 0
AnchorPoint: "Anchor-0" 300 676 basechar 0
LayerCount: 2
Fore
SplineSet
72 0 m 1,0,-1
 72 656 l 1,1,-1
 174 656 l 1,2,-1
 266 376 l 1,3,-1
 298 270 l 1,4,-1
 302 270 l 1,5,-1
 333 376 l 1,6,-1
 426 656 l 1,7,-1
 528 656 l 1,8,-1
 528 0 l 1,9,-1
 448 0 l 1,10,-1
 448 328 l 2,11,12
 448 352 448 352 449.5 383.5 c 128,-1,13
 451 415 451 415 453.5 447 c 128,-1,14
 456 479 456 479 458 509 c 128,-1,15
 460 539 460 539 462 560 c 1,16,-1
 459 560 l 1,17,-1
 422 432 l 1,18,-1
 328 174 l 1,19,-1
 268 174 l 1,20,-1
 176 432 l 1,21,-1
 138 560 l 1,22,-1
 136 560 l 1,23,24
 138 539 138 539 140.5 509 c 128,-1,25
 143 479 143 479 145 447 c 128,-1,26
 147 415 147 415 148.5 383.5 c 128,-1,27
 150 352 150 352 150 328 c 2,28,-1
 150 0 l 1,29,-1
 72 0 l 1,0,-1
EndSplineSet
EndChar

StartChar: N
Encoding: 78 78 15
Width: 600
GlyphClass: 2
Flags: W
AnchorPoint: "Anchor-3" 300 -20 basechar 0
AnchorPoint: "Anchor-2" 473 0 basechar 0
AnchorPoint: "Anchor-0" 310 676 basechar 0
LayerCount: 2
Fore
SplineSet
82 0 m 1,0,-1
 82 656 l 1,1,-1
 174 656 l 1,2,-1
 384 244 l 1,3,-1
 447 108 l 1,4,-1
 449 108 l 1,5,6
 447 157 447 157 442.5 210.5 c 128,-1,7
 438 264 438 264 438 316 c 2,8,-1
 438 656 l 1,9,-1
 518 656 l 1,10,-1
 518 0 l 1,11,-1
 426 0 l 1,12,-1
 216 412 l 1,13,-1
 153 548 l 1,14,-1
 151 548 l 1,15,16
 153 497 153 497 157.5 445.5 c 128,-1,17
 162 394 162 394 162 343 c 2,18,-1
 162 0 l 1,19,-1
 82 0 l 1,0,-1
EndSplineSet
EndChar

StartChar: O
Encoding: 79 79 16
Width: 600
GlyphClass: 2
Flags: W
AnchorPoint: "Anchor-6" 300 0 basechar 0
AnchorPoint: "Anchor-5" 420 646 basechar 0
AnchorPoint: "Anchor-3" 300 -20 basechar 0
AnchorPoint: "Anchor-2" 300 0 basechar 0
AnchorPoint: "Anchor-0" 300 676 basechar 0
LayerCount: 2
Fore
SplineSet
300 -12 m 0,0,1
 244 -12 244 -12 198 11.5 c 128,-1,2
 152 35 152 35 118.5 79 c 128,-1,3
 85 123 85 123 66.5 186.5 c 128,-1,4
 48 250 48 250 48 331 c 0,5,6
 48 410 48 410 66.5 473 c 128,-1,7
 85 536 85 536 118.5 579 c 128,-1,8
 152 622 152 622 198 645 c 128,-1,9
 244 668 244 668 300 668 c 0,10,11
 355 668 355 668 401.5 645 c 128,-1,12
 448 622 448 622 481.5 579 c 128,-1,13
 515 536 515 536 533.5 473 c 128,-1,14
 552 410 552 410 552 331 c 0,15,16
 552 250 552 250 533.5 186.5 c 128,-1,17
 515 123 515 123 481.5 79 c 128,-1,18
 448 35 448 35 401.5 11.5 c 128,-1,19
 355 -12 355 -12 300 -12 c 0,0,1
300 61 m 0,20,21
 337 61 337 61 368 79.5 c 128,-1,22
 399 98 399 98 420.5 133 c 128,-1,23
 442 168 442 168 454 218 c 128,-1,24
 466 268 466 268 466 331 c 0,25,26
 466 393 466 393 454 442 c 128,-1,27
 442 491 442 491 420.5 525 c 128,-1,28
 399 559 399 559 368 577 c 128,-1,29
 337 595 337 595 300 595 c 0,30,31
 262 595 262 595 231.5 577 c 128,-1,32
 201 559 201 559 179.5 525 c 128,-1,33
 158 491 158 491 146 442 c 128,-1,34
 134 393 134 393 134 331 c 0,35,36
 134 268 134 268 146 218 c 128,-1,37
 158 168 158 168 179.5 133 c 128,-1,38
 201 98 201 98 231.5 79.5 c 128,-1,39
 262 61 262 61 300 61 c 0,20,21
EndSplineSet
EndChar

StartChar: P
Encoding: 80 80 17
Width: 600
GlyphClass: 2
Flags: W
AnchorPoint: "Anchor-3" 140 -20 basechar 0
AnchorPoint: "Anchor-0" 320 676 basechar 0
LayerCount: 2
Fore
SplineSet
102 0 m 1,0,-1
 102 656 l 1,1,-1
 300 656 l 2,2,3
 354 656 354 656 399 646 c 128,-1,4
 444 636 444 636 476 613.5 c 128,-1,5
 508 591 508 591 525.5 554 c 128,-1,6
 543 517 543 517 543 463 c 0,7,8
 543 411 543 411 525.5 373 c 128,-1,9
 508 335 508 335 475.5 310 c 128,-1,10
 443 285 443 285 398.5 272.5 c 128,-1,11
 354 260 354 260 300 260 c 2,12,-1
 185 260 l 1,13,-1
 185 0 l 1,14,-1
 102 0 l 1,0,-1
185 328 m 1,15,-1
 290 328 l 2,16,17
 377 328 377 328 418 360.5 c 128,-1,18
 459 393 459 393 459 463 c 0,19,20
 459 534 459 534 417 561.5 c 128,-1,21
 375 589 375 589 290 589 c 2,22,-1
 185 589 l 1,23,-1
 185 328 l 1,15,-1
EndSplineSet
EndChar

StartChar: Q
Encoding: 81 81 18
Width: 600
GlyphClass: 2
Flags: W
AnchorPoint: "Anchor-0" 302 685 basechar 0
LayerCount: 2
Fore
SplineSet
300 57 m 256,0,1
 376 57 376 57 420.5 129 c 128,-1,2
 465 201 465 201 465 331 c 0,3,4
 465 455 465 455 420.5 526 c 128,-1,5
 376 597 376 597 300 597 c 256,6,7
 224 597 224 597 179.5 526 c 128,-1,8
 135 455 135 455 135 331 c 0,9,10
 135 201 135 201 179.5 129 c 128,-1,11
 224 57 224 57 300 57 c 256,0,1
481 -163 m 0,12,13
 394 -163 394 -163 339 -119 c 128,-1,14
 284 -75 284 -75 260 -9 c 1,15,16
 212 -1 212 -1 173.5 26 c 128,-1,17
 135 53 135 53 107.5 96.5 c 128,-1,18
 80 140 80 140 65 199 c 128,-1,19
 50 258 50 258 50 331 c 0,20,21
 50 410 50 410 68 473 c 128,-1,22
 86 536 86 536 119 579.5 c 128,-1,23
 152 623 152 623 198 646 c 128,-1,24
 244 669 244 669 300 669 c 256,25,26
 356 669 356 669 402 646 c 128,-1,27
 448 623 448 623 481 579.5 c 128,-1,28
 514 536 514 536 532 473 c 128,-1,29
 550 410 550 410 550 331 c 0,30,31
 550 260 550 260 535.5 201.5 c 128,-1,32
 521 143 521 143 494.5 100 c 128,-1,33
 468 57 468 57 431 29.5 c 128,-1,34
 394 2 394 2 348 -7 c 1,35,36
 365 -50 365 -50 402 -71 c 128,-1,37
 439 -92 439 -92 490 -92 c 0,38,39
 505 -92 505 -92 517.5 -89 c 128,-1,40
 530 -86 530 -86 539 -82 c 1,41,-1
 555 -149 l 1,42,43
 538 -155 538 -155 520 -159 c 128,-1,44
 502 -163 502 -163 481 -163 c 0,12,13
EndSplineSet
EndChar

StartChar: R
Encoding: 82 82 19
Width: 600
GlyphClass: 2
Flags: W
AnchorPoint: "Anchor-3" 320 -20 basechar 0
AnchorPoint: "Anchor-2" 137 0 basechar 0
AnchorPoint: "Anchor-0" 304 676 basechar 0
LayerCount: 2
Fore
SplineSet
100 0 m 1,0,-1
 100 656 l 1,1,-1
 304 656 l 2,2,3
 354 656 354 656 396 646.5 c 128,-1,4
 438 637 438 637 468.5 615 c 128,-1,5
 499 593 499 593 516 558 c 128,-1,6
 533 523 533 523 533 472 c 0,7,8
 533 395 533 395 493 349 c 128,-1,9
 453 303 453 303 386 286 c 1,10,-1
 553 0 l 1,11,-1
 458 0 l 1,12,-1
 300 277 l 1,13,-1
 183 277 l 1,14,-1
 183 0 l 1,15,-1
 100 0 l 1,0,-1
183 345 m 1,16,-1
 292 345 l 2,17,18
 369 345 369 345 409.5 376.5 c 128,-1,19
 450 408 450 408 450 472 c 0,20,21
 450 537 450 537 409.5 563 c 128,-1,22
 369 589 369 589 292 589 c 2,23,-1
 183 589 l 1,24,-1
 183 345 l 1,16,-1
EndSplineSet
EndChar

StartChar: S
Encoding: 83 83 20
Width: 600
GlyphClass: 2
Flags: W
AnchorPoint: "Anchor-3" 313 -20 basechar 0
AnchorPoint: "Anchor-2" 319 0 basechar 0
AnchorPoint: "Anchor-0" 316 676 basechar 0
LayerCount: 2
Fore
SplineSet
305 -12 m 0,0,1
 233 -12 233 -12 172.5 14 c 128,-1,2
 112 40 112 40 67 85 c 1,3,-1
 117 143 l 1,4,5
 154 106 154 106 203 83.5 c 128,-1,6
 252 61 252 61 309 61 c 0,7,8
 377 61 377 61 414.5 90 c 128,-1,9
 452 119 452 119 452 165 c 0,10,11
 452 191 452 191 443 209 c 128,-1,12
 434 227 434 227 418 240 c 128,-1,13
 402 253 402 253 380.5 263 c 128,-1,14
 359 273 359 273 334 284 c 2,15,-1
 240 325 l 2,16,17
 215 335 215 335 190 349 c 128,-1,18
 165 363 165 363 144.5 383 c 128,-1,19
 124 403 124 403 111 430.5 c 128,-1,20
 98 458 98 458 98 494 c 0,21,22
 98 531 98 531 114 563 c 128,-1,23
 130 595 130 595 158.5 618.5 c 128,-1,24
 187 642 187 642 226.5 655 c 128,-1,25
 266 668 266 668 313 668 c 0,26,27
 375 668 375 668 427 645.5 c 128,-1,28
 479 623 479 623 515 587 c 1,29,-1
 471 533 l 1,30,31
 439 562 439 562 400 578.5 c 128,-1,32
 361 595 361 595 310 595 c 0,33,34
 253 595 253 595 218 569.5 c 128,-1,35
 183 544 183 544 183 499 c 0,36,37
 183 475 183 475 193.5 458.5 c 128,-1,38
 204 442 204 442 220.5 429.5 c 128,-1,39
 237 417 237 417 258 408 c 128,-1,40
 279 399 279 399 300 390 c 2,41,-1
 392 350 l 2,42,43
 422 338 422 338 448.5 322.5 c 128,-1,44
 475 307 475 307 494.5 286.5 c 128,-1,45
 514 266 514 266 525.5 238.5 c 128,-1,46
 537 211 537 211 537 175 c 0,47,48
 537 136 537 136 521 102 c 128,-1,49
 505 68 505 68 475 42.5 c 128,-1,50
 445 17 445 17 402 2.5 c 128,-1,51
 359 -12 359 -12 305 -12 c 0,0,1
EndSplineSet
EndChar

StartChar: T
Encoding: 84 84 21
Width: 600
GlyphClass: 2
Flags: W
AnchorPoint: "Anchor-3" 300 -20 basechar 0
AnchorPoint: "Anchor-2" 300 0 basechar 0
AnchorPoint: "Anchor-0" 300 676 basechar 0
LayerCount: 2
Fore
SplineSet
258 0 m 1,0,-1
 258 586 l 1,1,-1
 42 586 l 1,2,-1
 42 656 l 1,3,-1
 558 656 l 1,4,-1
 558 586 l 1,5,-1
 342 586 l 1,6,-1
 342 0 l 1,7,-1
 258 0 l 1,0,-1
EndSplineSet
EndChar

StartChar: U
Encoding: 85 85 22
Width: 600
GlyphClass: 2
Flags: W
AnchorPoint: "Anchor-6" 300 0 basechar 0
AnchorPoint: "Anchor-5" 503 666 basechar 0
AnchorPoint: "Anchor-3" 300 -20 basechar 0
AnchorPoint: "Anchor-2" 300 0 basechar 0
AnchorPoint: "Anchor-0" 300 676 basechar 0
LayerCount: 2
Fore
SplineSet
301 -12 m 256,0,1
 253 -12 253 -12 212 2 c 128,-1,2
 171 16 171 16 141.5 47.5 c 128,-1,3
 112 79 112 79 95.5 128 c 128,-1,4
 79 177 79 177 79 248 c 2,5,-1
 79 656 l 1,6,-1
 163 656 l 1,7,-1
 163 246 l 2,8,9
 163 195 163 195 173.5 159.5 c 128,-1,10
 184 124 184 124 202.5 102.5 c 128,-1,11
 221 81 221 81 246 71 c 128,-1,12
 271 61 271 61 301 61 c 256,13,14
 331 61 331 61 356 71 c 128,-1,15
 381 81 381 81 400 102.5 c 128,-1,16
 419 124 419 124 429.5 159.5 c 128,-1,17
 440 195 440 195 440 246 c 2,18,-1
 440 656 l 1,19,-1
 521 656 l 1,20,-1
 521 248 l 2,21,22
 521 177 521 177 504.5 128 c 128,-1,23
 488 79 488 79 459 47.5 c 128,-1,24
 430 16 430 16 389.5 2 c 128,-1,25
 349 -12 349 -12 301 -12 c 256,0,1
EndSplineSet
EndChar

StartChar: V
Encoding: 86 86 23
Width: 600
GlyphClass: 2
Flags: W
AnchorPoint: "Anchor-3" 302 -20 basechar 0
AnchorPoint: "Anchor-0" 300 676 basechar 0
LayerCount: 2
Fore
SplineSet
252 0 m 1,0,-1
 43 656 l 1,1,-1
 131 656 l 1,2,-1
 237 302 l 2,3,4
 254 243 254 243 268 193 c 128,-1,5
 282 143 282 143 300 85 c 1,6,-1
 304 85 l 1,7,8
 313 114 313 114 321 140.5 c 128,-1,9
 329 167 329 167 336.5 193 c 128,-1,10
 344 219 344 219 351.5 246 c 128,-1,11
 359 273 359 273 367 302 c 2,12,-1
 472 656 l 1,13,-1
 557 656 l 1,14,-1
 349 0 l 1,15,-1
 252 0 l 1,0,-1
EndSplineSet
EndChar

StartChar: W
Encoding: 87 87 24
Width: 600
GlyphClass: 2
Flags: W
AnchorPoint: "Anchor-3" 303 -20 basechar 0
AnchorPoint: "Anchor-0" 300 676 basechar 0
LayerCount: 2
Fore
SplineSet
110 0 m 1,0,-1
 10 657 l 1,1,-1
 104 657 l 1,2,-1
 152 245 l 2,3,4
 154 224 154 224 156 207 c 128,-1,5
 158 190 158 190 159.5 172.5 c 128,-1,6
 161 155 161 155 162.5 136 c 128,-1,7
 164 117 164 117 165 93 c 1,8,-1
 168 93 l 1,9,10
 172 117 172 117 176 136 c 128,-1,11
 180 155 180 155 183.5 172.5 c 128,-1,12
 187 190 187 190 191 207 c 128,-1,13
 195 224 195 224 200 244 c 2,14,-1
 264 488 l 1,15,-1
 344 488 l 1,16,-1
 406 244 l 2,17,18
 411 224 411 224 415 207 c 128,-1,19
 419 190 419 190 422.5 172.5 c 128,-1,20
 426 155 426 155 429.5 136 c 128,-1,21
 433 117 433 117 438 93 c 1,22,-1
 442 93 l 1,23,24
 443 117 443 117 444.5 136 c 128,-1,25
 446 155 446 155 447.5 172.5 c 128,-1,26
 449 190 449 190 450.5 207 c 128,-1,27
 452 224 452 224 454 244 c 2,28,-1
 500 657 l 1,29,-1
 590 657 l 1,30,-1
 494 0 l 1,31,-1
 390 0 l 1,32,-1
 326 264 l 2,33,34
 318 294 318 294 312.5 323 c 128,-1,35
 307 352 307 352 302 382 c 1,36,-1
 299 382 l 1,37,38
 294 352 294 352 289 323 c 128,-1,39
 284 294 284 294 276 264 c 2,40,-1
 212 0 l 1,41,-1
 110 0 l 1,0,-1
EndSplineSet
EndChar

StartChar: X
Encoding: 88 88 25
Width: 600
GlyphClass: 2
Flags: W
AnchorPoint: "Anchor-3" 300 -20 basechar 0
AnchorPoint: "Anchor-2" 495 0 basechar 0
AnchorPoint: "Anchor-0" 300 676 basechar 0
LayerCount: 2
Fore
SplineSet
54 0 m 1,0,-1
 250 339 l 1,1,-1
 67 656 l 1,2,-1
 159 656 l 1,3,-1
 251 488 l 2,4,5
 264 465 264 465 276 443.5 c 128,-1,6
 288 422 288 422 304 393 c 1,7,-1
 308 393 l 1,8,9
 322 422 322 422 332.5 443.5 c 128,-1,10
 343 465 343 465 355 488 c 2,11,-1
 445 656 l 1,12,-1
 533 656 l 1,13,-1
 350 335 l 1,14,-1
 546 0 l 1,15,-1
 454 0 l 1,16,-1
 355 177 l 2,17,18
 341 201 341 201 327.5 226.5 c 128,-1,19
 314 252 314 252 297 282 c 1,20,-1
 293 282 l 1,21,22
 279 252 279 252 266 226.5 c 128,-1,23
 253 201 253 201 240 177 c 2,24,-1
 142 0 l 1,25,-1
 54 0 l 1,0,-1
EndSplineSet
EndChar

StartChar: Y
Encoding: 89 89 26
Width: 600
GlyphClass: 2
Flags: W
AnchorPoint: "Anchor-6" 300 0 basechar 0
AnchorPoint: "Anchor-3" 300 -20 basechar 0
AnchorPoint: "Anchor-0" 300 676 basechar 0
LayerCount: 2
Fore
SplineSet
258 0 m 1,0,-1
 258 234 l 1,1,-1
 38 656 l 1,2,-1
 126 656 l 1,3,-1
 225 461 l 2,4,5
 244 423 244 423 262 385.5 c 128,-1,6
 280 348 280 348 300 308 c 1,7,-1
 304 308 l 1,8,9
 324 348 324 348 343 386 c 128,-1,10
 362 424 362 424 381 462 c 2,11,-1
 476 656 l 1,12,-1
 562 656 l 1,13,-1
 342 234 l 1,14,-1
 342 0 l 1,15,-1
 258 0 l 1,0,-1
EndSplineSet
EndChar

StartChar: Z
Encoding: 90 90 27
Width: 600
GlyphClass: 2
Flags: W
AnchorPoint: "Anchor-3" 316 -20 basechar 0
AnchorPoint: "Anchor-2" 320 0 basechar 0
AnchorPoint: "Anchor-0" 317 676 basechar 0
LayerCount: 2
Fore
SplineSet
65 0 m 1,0,-1
 65 50 l 1,1,-1
 431 587 l 1,2,-1
 97 587 l 1,3,-1
 97 657 l 1,4,-1
 534 657 l 1,5,-1
 534 607 l 1,6,-1
 167 71 l 1,7,-1
 539 71 l 1,8,-1
 539 0 l 1,9,-1
 65 0 l 1,0,-1
EndSplineSet
EndChar

StartChar: a
Encoding: 97 97 28
Width: 600
GlyphClass: 2
Flags: W
AnchorPoint: "Anchor-6" 436 0 basechar 0
AnchorPoint: "Anchor-3" 300 -20 basechar 0
AnchorPoint: "Anchor-2" 473 0 basechar 0
AnchorPoint: "Anchor-0" 320 507 basechar 0
LayerCount: 2
Fore
SplineSet
246 -12 m 0,0,1
 212 -12 212 -12 182 -2.5 c 128,-1,2
 152 7 152 7 129.5 24.5 c 128,-1,3
 107 42 107 42 94 67.5 c 128,-1,4
 81 93 81 93 81 126 c 0,5,6
 81 167 81 167 100.5 197.5 c 128,-1,7
 120 228 120 228 162.5 250 c 128,-1,8
 205 272 205 272 272 286 c 128,-1,9
 339 300 339 300 433 308 c 1,10,11
 432 333 432 333 425 355 c 128,-1,12
 418 377 418 377 403 393.5 c 128,-1,13
 388 410 388 410 363.5 420 c 128,-1,14
 339 430 339 430 304 430 c 0,15,16
 256 430 256 430 212 411.5 c 128,-1,17
 168 393 168 393 134 372 c 1,18,-1
 102 428 l 1,19,20
 120 440 120 440 144.5 452.5 c 128,-1,21
 169 465 169 465 196.5 475 c 128,-1,22
 224 485 224 485 255 491.5 c 128,-1,23
 286 498 286 498 318 498 c 0,24,25
 418 498 418 498 466.5 443.5 c 128,-1,26
 515 389 515 389 515 298 c 2,27,-1
 515 0 l 1,28,-1
 448 0 l 1,29,-1
 441 66 l 1,30,-1
 438 66 l 1,31,32
 397 34 397 34 347.5 11 c 128,-1,33
 298 -12 298 -12 246 -12 c 0,0,1
268 54 m 0,34,35
 310 54 310 54 350.5 72.5 c 128,-1,36
 391 91 391 91 433 126 c 1,37,-1
 433 254 l 1,38,39
 355 248 355 248 302.5 237 c 128,-1,40
 250 226 250 226 218.5 210.5 c 128,-1,41
 187 195 187 195 174 175.5 c 128,-1,42
 161 156 161 156 161 132 c 0,43,44
 161 111 161 111 170 96.5 c 128,-1,45
 179 82 179 82 193.5 72.5 c 128,-1,46
 208 63 208 63 227.5 58.5 c 128,-1,47
 247 54 247 54 268 54 c 0,34,35
EndSplineSet
Substitution2: "'sups' Superscript lookup 26 subtable" a.sups
Substitution2: "'ss02' Style Set 2 lookup 0 subtable" a.a
EndChar

StartChar: b
Encoding: 98 98 29
Width: 600
GlyphClass: 2
Flags: W
AnchorPoint: "Anchor-3" 310 -20 basechar 0
AnchorPoint: "Anchor-0" 137 736 basechar 0
LayerCount: 2
Fore
SplineSet
320 -12 m 0,0,1
 285 -12 285 -12 244.5 5.5 c 128,-1,2
 204 23 204 23 169 54 c 1,3,-1
 166 54 l 1,4,-1
 159 0 l 1,5,-1
 93 0 l 1,6,-1
 93 712 l 1,7,-1
 175 712 l 1,8,-1
 175 518 l 1,9,-1
 172 424 l 1,10,-1
 175 424 l 1,11,12
 208 458 208 458 251.5 478 c 128,-1,13
 295 498 295 498 338 498 c 0,14,15
 387 498 387 498 425 480.5 c 128,-1,16
 463 463 463 463 488.5 430.5 c 128,-1,17
 514 398 514 398 527 352.5 c 128,-1,18
 540 307 540 307 540 251 c 0,19,20
 540 189 540 189 522 140 c 128,-1,21
 504 91 504 91 473.5 57 c 128,-1,22
 443 23 443 23 403 5.5 c 128,-1,23
 363 -12 363 -12 320 -12 c 0,0,1
307 57 m 0,24,25
 339 57 339 57 366 70.5 c 128,-1,26
 393 84 393 84 413 108.5 c 128,-1,27
 433 133 433 133 444 169 c 128,-1,28
 455 205 455 205 455 250 c 0,29,30
 455 290 455 290 447 323 c 128,-1,31
 439 356 439 356 422.5 379.5 c 128,-1,32
 406 403 406 403 380 416 c 128,-1,33
 354 429 354 429 318 429 c 0,34,35
 286 429 286 429 249.5 411.5 c 128,-1,36
 213 394 213 394 175 356 c 1,37,-1
 175 114 l 1,38,39
 210 83 210 83 245.5 70 c 128,-1,40
 281 57 281 57 307 57 c 0,24,25
EndSplineSet
Substitution2: "'sups' Superscript lookup 26 subtable" b.sups
EndChar

StartChar: c
Encoding: 99 99 30
Width: 600
GlyphClass: 2
Flags: W
AnchorPoint: "Anchor-3" 340 -20 basechar 0
AnchorPoint: "Anchor-2" 346 0 basechar 0
AnchorPoint: "Anchor-0" 346 507 basechar 0
LayerCount: 2
Fore
SplineSet
346 -12 m 0,0,1
 289 -12 289 -12 240.5 5 c 128,-1,2
 192 22 192 22 156 54.5 c 128,-1,3
 120 87 120 87 100 134.5 c 128,-1,4
 80 182 80 182 80 242 c 0,5,6
 80 303 80 303 101.5 350.5 c 128,-1,7
 123 398 123 398 160 431 c 128,-1,8
 197 464 197 464 246.5 481 c 128,-1,9
 296 498 296 498 351 498 c 0,10,11
 411 498 411 498 454.5 477 c 128,-1,12
 498 456 498 456 528 427 c 1,13,-1
 487 374 l 1,14,15
 457 400 457 400 424.5 415 c 128,-1,16
 392 430 392 430 354 430 c 0,17,18
 312 430 312 430 277 416.5 c 128,-1,19
 242 403 242 403 217.5 378 c 128,-1,20
 193 353 193 353 179 318.5 c 128,-1,21
 165 284 165 284 165 242 c 256,22,23
 165 200 165 200 178.5 166 c 128,-1,24
 192 132 192 132 216.5 107.5 c 128,-1,25
 241 83 241 83 275.5 69.5 c 128,-1,26
 310 56 310 56 352 56 c 0,27,28
 397 56 397 56 434.5 73.5 c 128,-1,29
 472 91 472 91 502 117 c 1,30,-1
 539 64 l 1,31,32
 498 28 498 28 449 8 c 128,-1,33
 400 -12 400 -12 346 -12 c 0,0,1
EndSplineSet
Substitution2: "'sups' Superscript lookup 26 subtable" c.sups
EndChar

StartChar: d
Encoding: 100 100 31
Width: 600
GlyphClass: 2
Flags: W
AnchorPoint: "Anchor-3" 304 -20 basechar 0
AnchorPoint: "Anchor-2" 295 0 basechar 0
AnchorPoint: "Anchor-0" 459 736 basechar 0
LayerCount: 2
Fore
SplineSet
271 -12 m 0,0,1
 223 -12 223 -12 184.5 5 c 128,-1,2
 146 22 146 22 118 54.5 c 128,-1,3
 90 87 90 87 75 134 c 128,-1,4
 60 181 60 181 60 242 c 0,5,6
 60 301 60 301 78.5 348.5 c 128,-1,7
 97 396 97 396 127.5 429 c 128,-1,8
 158 462 158 462 198 480 c 128,-1,9
 238 498 238 498 281 498 c 0,10,11
 325 498 325 498 359.5 481.5 c 128,-1,12
 394 465 394 465 426 435 c 1,13,-1
 429 435 l 1,14,-1
 425 525 l 1,15,-1
 425 712 l 1,16,-1
 507 712 l 1,17,-1
 507 0 l 1,18,-1
 439 0 l 1,19,-1
 432 64 l 1,20,-1
 429 64 l 1,21,22
 399 33 399 33 357.5 10.5 c 128,-1,23
 316 -12 316 -12 271 -12 c 0,0,1
288 57 m 0,24,25
 360 57 360 57 425 130 c 1,26,-1
 425 372 l 1,27,28
 392 403 392 403 360.5 416 c 128,-1,29
 329 429 329 429 297 429 c 256,30,31
 265 429 265 429 237.5 415.5 c 128,-1,32
 210 402 210 402 189.5 377.5 c 128,-1,33
 169 353 169 353 157 319 c 128,-1,34
 145 285 145 285 145 243 c 0,35,36
 145 155 145 155 182.5 106 c 128,-1,37
 220 57 220 57 288 57 c 0,24,25
EndSplineSet
Substitution2: "'sups' Superscript lookup 26 subtable" d.sups
EndChar

StartChar: e
Encoding: 101 101 32
Width: 600
GlyphClass: 2
Flags: W
AnchorPoint: "Anchor-6" 404 0 basechar 0
AnchorPoint: "Anchor-3" 316 -20 basechar 0
AnchorPoint: "Anchor-2" 316 0 basechar 0
AnchorPoint: "Anchor-0" 316 507 basechar 0
LayerCount: 2
Fore
SplineSet
330 -12 m 0,0,1
 275 -12 275 -12 227.5 5 c 128,-1,2
 180 22 180 22 144.5 55 c 128,-1,3
 109 88 109 88 88.5 135.5 c 128,-1,4
 68 183 68 183 68 244 c 0,5,6
 68 303 68 303 88.5 350 c 128,-1,7
 109 397 109 397 143.5 430 c 128,-1,8
 178 463 178 463 222.5 480.5 c 128,-1,9
 267 498 267 498 316 498 c 0,10,11
 368 498 368 498 409.5 481.5 c 128,-1,12
 451 465 451 465 479.5 435 c 128,-1,13
 508 405 508 405 523 363 c 128,-1,14
 538 321 538 321 538 270 c 0,15,16
 538 256 538 256 537 243 c 128,-1,17
 536 230 536 230 534 220 c 1,18,-1
 151 220 l 1,19,20
 159 137 159 137 211.5 95.5 c 128,-1,21
 264 54 264 54 340 54 c 0,22,23
 384 54 384 54 419.5 66.5 c 128,-1,24
 455 79 455 79 488 100 c 1,25,-1
 518 46 l 1,26,27
 482 22 482 22 435.5 5 c 128,-1,28
 389 -12 389 -12 330 -12 c 0,0,1
318 433 m 0,29,30
 288 433 288 433 260.5 423 c 128,-1,31
 233 413 233 413 211 394.5 c 128,-1,32
 189 376 189 376 174 348 c 128,-1,33
 159 320 159 320 153 284 c 1,34,-1
 463 284 l 1,35,36
 458 359 458 359 419.5 396 c 128,-1,37
 381 433 381 433 318 433 c 0,29,30
EndSplineSet
Substitution2: "'sups' Superscript lookup 26 subtable" e.sups
EndChar

StartChar: f
Encoding: 102 102 33
Width: 600
GlyphClass: 2
Flags: W
AnchorPoint: "Anchor-3" 291 -20 basechar 0
AnchorPoint: "Anchor-2" 298 0 basechar 0
AnchorPoint: "Anchor-0" 420 736 basechar 0
LayerCount: 2
Fore
SplineSet
242 0 m 1,0,-1
 242 419 l 1,1,-1
 103 419 l 1,2,-1
 103 481 l 1,3,-1
 242 486 l 1,4,-1
 242 527 l 2,5,6
 242 616 242 616 289.5 670 c 128,-1,7
 337 724 337 724 438 724 c 0,8,9
 510 724 510 724 578 696 c 1,10,-1
 559 634 l 1,11,12
 529 648 529 648 503.5 652.5 c 128,-1,13
 478 657 478 657 446 657 c 0,14,15
 380 657 380 657 351.5 623.5 c 128,-1,16
 323 590 323 590 323 530 c 2,17,-1
 323 486 l 1,18,-1
 527 486 l 1,19,-1
 527 419 l 1,20,-1
 323 419 l 1,21,-1
 323 0 l 1,22,-1
 242 0 l 1,0,-1
EndSplineSet
Substitution2: "'sups' Superscript lookup 26 subtable" f.sups
EndChar

StartChar: g
Encoding: 103 103 34
Width: 600
GlyphClass: 2
Flags: W
AnchorPoint: "Anchor-3" 308 -219 basechar 0
AnchorPoint: "Anchor-0" 307 507 basechar 0
LayerCount: 2
Fore
SplineSet
296 -224 m 0,0,1
 189 -224 189 -224 130.5 -189 c 128,-1,2
 72 -154 72 -154 72 -89 c 0,3,4
 72 -60 72 -60 92.5 -32 c 128,-1,5
 113 -4 113 -4 152 19 c 1,6,-1
 152 23 l 1,7,8
 132 34 132 34 117 53 c 128,-1,9
 102 72 102 72 102 103 c 0,10,11
 102 126 102 126 117 150.5 c 128,-1,12
 132 175 132 175 160 194 c 1,13,-1
 160 198 l 1,14,15
 135 217 135 217 117.5 248.5 c 128,-1,16
 100 280 100 280 100 324 c 0,17,18
 100 364 100 364 115.5 396 c 128,-1,19
 131 428 131 428 157 450.5 c 128,-1,20
 183 473 183 473 217.5 485.5 c 128,-1,21
 252 498 252 498 291 498 c 0,22,23
 331 498 331 498 363 486 c 1,24,-1
 564 486 l 1,25,-1
 564 419 l 1,26,-1
 438 419 l 1,27,28
 455 402 455 402 467 376 c 128,-1,29
 479 350 479 350 479 321 c 0,30,31
 479 282 479 282 464.5 251 c 128,-1,32
 450 220 450 220 424.5 198.5 c 128,-1,33
 399 177 399 177 364.5 165.5 c 128,-1,34
 330 154 330 154 291 154 c 0,35,36
 272 154 272 154 250.5 158.5 c 128,-1,37
 229 163 229 163 209 172 c 1,38,39
 171 148 171 148 171 116 c 0,40,41
 171 87 171 87 197.5 73.5 c 128,-1,42
 224 60 224 60 272 60 c 2,43,-1
 381 60 l 2,44,45
 475 60 475 60 520.5 34 c 128,-1,46
 566 8 566 8 566 -54 c 0,47,48
 566 -88 566 -88 547 -119 c 128,-1,49
 528 -150 528 -150 493 -173 c 128,-1,50
 458 -196 458 -196 408 -210 c 128,-1,51
 358 -224 358 -224 296 -224 c 0,0,1
291 209 m 0,52,53
 338 209 338 209 370.5 240 c 128,-1,54
 403 271 403 271 403 324 c 0,55,56
 403 349 403 349 394 370 c 128,-1,57
 385 391 385 391 370 406 c 128,-1,58
 355 421 355 421 334.5 429.5 c 128,-1,59
 314 438 314 438 291 438 c 256,60,61
 268 438 268 438 247.5 429.5 c 128,-1,62
 227 421 227 421 212 406 c 128,-1,63
 197 391 197 391 188 370 c 128,-1,64
 179 349 179 349 179 324 c 0,65,66
 179 271 179 271 212 240 c 128,-1,67
 245 209 245 209 291 209 c 0,52,53
302 -164 m 0,68,69
 344 -164 344 -164 378 -156 c 128,-1,70
 412 -148 412 -148 436 -134.5 c 128,-1,71
 460 -121 460 -121 472.5 -103.5 c 128,-1,72
 485 -86 485 -86 485 -67 c 0,73,74
 485 -32 485 -32 457.5 -20 c 128,-1,75
 430 -8 430 -8 374 -8 c 2,76,-1
 279 -8 l 2,77,78
 258 -8 258 -8 239.5 -6.5 c 128,-1,79
 221 -5 221 -5 205 0 c 1,80,81
 170 -19 170 -19 156.5 -39.5 c 128,-1,82
 143 -60 143 -60 143 -81 c 0,83,84
 143 -119 143 -119 183.5 -141.5 c 128,-1,85
 224 -164 224 -164 302 -164 c 0,68,69
EndSplineSet
Substitution2: "'sups' Superscript lookup 26 subtable" g.sups
Substitution2: "'ss03' Style Set 3 lookup 1 subtable" g.a
EndChar

StartChar: h
Encoding: 104 104 35
Width: 600
GlyphClass: 2
Flags: W
AnchorPoint: "Anchor-3" 314 -20 basechar 0
AnchorPoint: "Anchor-2" 134 0 basechar 0
AnchorPoint: "Anchor-0" 131 736 basechar 0
LayerCount: 2
Fore
SplineSet
93 0 m 1,0,-1
 93 712 l 1,1,-1
 175 712 l 1,2,-1
 175 518 l 1,3,-1
 170 403 l 1,4,-1
 173 403 l 1,5,6
 211 444 211 444 254.5 471 c 128,-1,7
 298 498 298 498 355 498 c 0,8,9
 442 498 442 498 482.5 448.5 c 128,-1,10
 523 399 523 399 523 302 c 2,11,-1
 523 0 l 1,12,-1
 441 0 l 1,13,-1
 441 291 l 2,14,15
 441 360 441 360 415 393.5 c 128,-1,16
 389 427 389 427 329 427 c 0,17,18
 307 427 307 427 288.5 421.5 c 128,-1,19
 270 416 270 416 252 405 c 128,-1,20
 234 394 234 394 215 377.5 c 128,-1,21
 196 361 196 361 175 339 c 1,22,-1
 175 0 l 1,23,-1
 93 0 l 1,0,-1
EndSplineSet
Substitution2: "'sups' Superscript lookup 26 subtable" h.sups
EndChar

StartChar: k
Encoding: 107 107 38
Width: 600
GlyphClass: 2
Flags: W
AnchorPoint: "Anchor-3" 335 -20 basechar 0
AnchorPoint: "Anchor-0" 178 736 basechar 0
LayerCount: 2
Fore
SplineSet
106 0 m 1,0,-1
 106 712 l 1,1,-1
 188 712 l 1,2,-1
 188 230 l 1,3,-1
 192 230 l 1,4,-1
 454 486 l 1,5,-1
 548 486 l 1,6,-1
 354 295 l 1,7,-1
 574 0 l 1,8,-1
 482 0 l 1,9,-1
 303 245 l 1,10,-1
 188 132 l 1,11,-1
 188 0 l 1,12,-1
 106 0 l 1,0,-1
EndSplineSet
Substitution2: "'sups' Superscript lookup 26 subtable" k.sups
EndChar

StartChar: l
Encoding: 108 108 39
Width: 600
GlyphClass: 2
Flags: W
AnchorPoint: "Anchor-4" 288 385 basechar 0
AnchorPoint: "Anchor-3" 385 -20 basechar 0
AnchorPoint: "Anchor-2" 363 0 basechar 0
AnchorPoint: "Anchor-0" 285 736 basechar 0
LayerCount: 2
Fore
SplineSet
407 -12 m 0,0,1
 329 -12 329 -12 288 32 c 128,-1,2
 247 76 247 76 247 163 c 2,3,-1
 247 645 l 1,4,-1
 74 645 l 1,5,-1
 74 712 l 1,6,-1
 329 712 l 1,7,-1
 329 157 l 2,8,9
 329 103 329 103 355 79.5 c 128,-1,10
 381 56 381 56 425 56 c 0,11,12
 468 56 468 56 516 78 c 1,13,-1
 537 17 l 1,14,15
 503 3 503 3 475 -4.5 c 128,-1,16
 447 -12 447 -12 407 -12 c 0,0,1
EndSplineSet
Substitution2: "'sups' Superscript lookup 26 subtable" l.sups
Substitution2: "'ss04' Style Set 4 lookup 2 subtable" l.a
EndChar

StartChar: m
Encoding: 109 109 40
Width: 600
GlyphClass: 2
Flags: W
AnchorPoint: "Anchor-3" 308 -20 basechar 0
AnchorPoint: "Anchor-2" 514 0 basechar 0
AnchorPoint: "Anchor-0" 315 508 basechar 0
LayerCount: 2
Fore
SplineSet
58 0 m 1,0,-1
 58 486 l 1,1,-1
 124 486 l 1,2,-1
 131 422 l 1,3,-1
 133 422 l 1,4,5
 152 456 152 456 177 477 c 128,-1,6
 202 498 202 498 244 498 c 0,7,8
 315 498 315 498 336 414 c 1,9,10
 357 453 357 453 382.5 475.5 c 128,-1,11
 408 498 408 498 450 498 c 0,12,13
 501 498 501 498 529.5 459.5 c 128,-1,14
 558 421 558 421 558 348 c 2,15,-1
 558 0 l 1,16,-1
 476 0 l 1,17,-1
 476 342 l 2,18,19
 476 427 476 427 424 427 c 0,20,21
 398 427 398 427 382 408.5 c 128,-1,22
 366 390 366 390 346 352 c 1,23,-1
 346 0 l 1,24,-1
 270 0 l 1,25,-1
 270 342 l 2,26,27
 270 384 270 384 258.5 405.5 c 128,-1,28
 247 427 247 427 220 427 c 0,29,30
 194 427 194 427 176 408.5 c 128,-1,31
 158 390 158 390 140 352 c 1,32,-1
 140 0 l 1,33,-1
 58 0 l 1,0,-1
EndSplineSet
Substitution2: "'sups' Superscript lookup 26 subtable" m.sups
EndChar

StartChar: n
Encoding: 110 110 41
Width: 600
GlyphClass: 2
Flags: W
AnchorPoint: "Anchor-3" 313 -20 basechar 0
AnchorPoint: "Anchor-2" 480 0 basechar 0
AnchorPoint: "Anchor-0" 318 507 basechar 0
LayerCount: 2
Fore
SplineSet
93 0 m 1,0,-1
 93 486 l 1,1,-1
 161 486 l 1,2,-1
 168 403 l 1,3,-1
 172 403 l 1,4,5
 210 444 210 444 254 471 c 128,-1,6
 298 498 298 498 355 498 c 0,7,8
 442 498 442 498 482.5 448.5 c 128,-1,9
 523 399 523 399 523 302 c 2,10,-1
 523 0 l 1,11,-1
 441 0 l 1,12,-1
 441 291 l 2,13,14
 441 360 441 360 415 393.5 c 128,-1,15
 389 427 389 427 329 427 c 0,16,17
 307 427 307 427 288.5 421.5 c 128,-1,18
 270 416 270 416 252 405 c 128,-1,19
 234 394 234 394 215 377.5 c 128,-1,20
 196 361 196 361 175 339 c 1,21,-1
 175 0 l 1,22,-1
 93 0 l 1,0,-1
EndSplineSet
Substitution2: "'sups' Superscript lookup 26 subtable" n.sups
EndChar

StartChar: o
Encoding: 111 111 42
Width: 600
GlyphClass: 2
Flags: W
AnchorPoint: "Anchor-6" 300 0 basechar 0
AnchorPoint: "Anchor-5" 411 486 basechar 0
AnchorPoint: "Anchor-3" 300 -20 basechar 0
AnchorPoint: "Anchor-2" 300 0 basechar 0
AnchorPoint: "Anchor-0" 300 507 basechar 0
LayerCount: 2
Fore
SplineSet
300 -12 m 256,0,1
 252 -12 252 -12 208.5 5 c 128,-1,2
 165 22 165 22 132 54.5 c 128,-1,3
 99 87 99 87 79.5 134.5 c 128,-1,4
 60 182 60 182 60 242 c 0,5,6
 60 303 60 303 79.5 350.5 c 128,-1,7
 99 398 99 398 132 431 c 128,-1,8
 165 464 165 464 208.5 481 c 128,-1,9
 252 498 252 498 300 498 c 256,10,11
 348 498 348 498 391.5 481 c 128,-1,12
 435 464 435 464 468 431 c 128,-1,13
 501 398 501 398 520.5 350.5 c 128,-1,14
 540 303 540 303 540 242 c 0,15,16
 540 182 540 182 520.5 134.5 c 128,-1,17
 501 87 501 87 468 54.5 c 128,-1,18
 435 22 435 22 391.5 5 c 128,-1,19
 348 -12 348 -12 300 -12 c 256,0,1
300 56 m 256,20,21
 335 56 335 56 363.5 69.5 c 128,-1,22
 392 83 392 83 412.5 107.5 c 128,-1,23
 433 132 433 132 444 166 c 128,-1,24
 455 200 455 200 455 242 c 256,25,26
 455 284 455 284 444 318.5 c 128,-1,27
 433 353 433 353 412.5 378 c 128,-1,28
 392 403 392 403 363.5 416.5 c 128,-1,29
 335 430 335 430 300 430 c 256,30,31
 265 430 265 430 236.5 416.5 c 128,-1,32
 208 403 208 403 187.5 378 c 128,-1,33
 167 353 167 353 156 318.5 c 128,-1,34
 145 284 145 284 145 242 c 256,35,36
 145 200 145 200 156 166 c 128,-1,37
 167 132 167 132 187.5 107.5 c 128,-1,38
 208 83 208 83 236.5 69.5 c 128,-1,39
 265 56 265 56 300 56 c 256,20,21
EndSplineSet
Substitution2: "'sups' Superscript lookup 26 subtable" o.sups
EndChar

StartChar: p
Encoding: 112 112 43
Width: 600
GlyphClass: 2
Flags: W
AnchorPoint: "Anchor-3" 137 -219 basechar 0
AnchorPoint: "Anchor-0" 321 507 basechar 0
LayerCount: 2
Fore
SplineSet
93 -205 m 1,0,-1
 93 486 l 1,1,-1
 161 486 l 1,2,-1
 168 424 l 1,3,-1
 171 424 l 1,4,5
 205 456 205 456 249.5 477 c 128,-1,6
 294 498 294 498 339 498 c 0,7,8
 388 498 388 498 425.5 480.5 c 128,-1,9
 463 463 463 463 488.5 430.5 c 128,-1,10
 514 398 514 398 527 352.5 c 128,-1,11
 540 307 540 307 540 250 c 0,12,13
 540 188 540 188 522 139.5 c 128,-1,14
 504 91 504 91 473.5 57 c 128,-1,15
 443 23 443 23 403 5.5 c 128,-1,16
 363 -12 363 -12 319 -12 c 0,17,18
 285 -12 285 -12 245.5 4.5 c 128,-1,19
 206 21 206 21 174 51 c 1,20,-1
 171 51 l 1,21,-1
 175 -41 l 1,22,-1
 175 -205 l 1,23,-1
 93 -205 l 1,0,-1
305 57 m 0,24,25
 371 57 371 57 413 108 c 128,-1,26
 455 159 455 159 455 250 c 0,27,28
 455 290 455 290 447 323 c 128,-1,29
 439 356 439 356 422.5 379.5 c 128,-1,30
 406 403 406 403 380 416 c 128,-1,31
 354 429 354 429 318 429 c 0,32,33
 286 429 286 429 249.5 411.5 c 128,-1,34
 213 394 213 394 175 356 c 1,35,-1
 175 114 l 1,36,37
 210 83 210 83 245 70 c 128,-1,38
 280 57 280 57 305 57 c 0,24,25
EndSplineSet
Substitution2: "'sups' Superscript lookup 26 subtable" p.sups
EndChar

StartChar: q
Encoding: 113 113 44
Width: 600
GlyphClass: 2
Flags: W
AnchorPoint: "Anchor-3" 461 -219 basechar 0
AnchorPoint: "Anchor-0" 304 507 basechar 0
LayerCount: 2
Fore
SplineSet
425 -205 m 1,0,-1
 425 -28 l 1,1,-1
 429 62 l 1,2,-1
 426 62 l 1,3,4
 396 31 396 31 355.5 9.5 c 128,-1,5
 315 -12 315 -12 270 -12 c 0,6,7
 223 -12 223 -12 184 5 c 128,-1,8
 145 22 145 22 117.5 54.5 c 128,-1,9
 90 87 90 87 75 134 c 128,-1,10
 60 181 60 181 60 242 c 0,11,12
 60 301 60 301 78.5 348.5 c 128,-1,13
 97 396 97 396 127.5 429 c 128,-1,14
 158 462 158 462 198 480 c 128,-1,15
 238 498 238 498 281 498 c 0,16,17
 326 498 326 498 361 481 c 128,-1,18
 396 464 396 464 431 432 c 1,19,-1
 434 432 l 1,20,-1
 441 486 l 1,21,-1
 507 486 l 1,22,-1
 507 -205 l 1,23,-1
 425 -205 l 1,0,-1
288 57 m 0,24,25
 360 57 360 57 425 130 c 1,26,-1
 425 372 l 1,27,28
 392 403 392 403 360.5 416 c 128,-1,29
 329 429 329 429 297 429 c 256,30,31
 265 429 265 429 237.5 415.5 c 128,-1,32
 210 402 210 402 189.5 377.5 c 128,-1,33
 169 353 169 353 157 319 c 128,-1,34
 145 285 145 285 145 243 c 0,35,36
 145 155 145 155 182.5 106 c 128,-1,37
 220 57 220 57 288 57 c 0,24,25
EndSplineSet
Substitution2: "'sups' Superscript lookup 26 subtable" q.sups
EndChar

StartChar: r
Encoding: 114 114 45
Width: 600
GlyphClass: 2
Flags: W
AnchorPoint: "Anchor-3" 191 -20 basechar 0
AnchorPoint: "Anchor-2" 183 0 basechar 0
AnchorPoint: "Anchor-0" 356 507 basechar 0
LayerCount: 2
Fore
SplineSet
146 0 m 1,0,-1
 146 486 l 1,1,-1
 214 486 l 1,2,-1
 221 371 l 1,3,-1
 224 371 l 1,4,5
 262 430 262 430 317.5 464 c 128,-1,6
 373 498 373 498 441 498 c 0,7,8
 468 498 468 498 491 493.5 c 128,-1,9
 514 489 514 489 537 478 c 1,10,-1
 518 407 l 1,11,12
 492 416 492 416 474.5 420 c 128,-1,13
 457 424 457 424 428 424 c 0,14,15
 373 424 373 424 322.5 392.5 c 128,-1,16
 272 361 272 361 228 285 c 1,17,-1
 228 0 l 1,18,-1
 146 0 l 1,0,-1
EndSplineSet
Substitution2: "'sups' Superscript lookup 26 subtable" r.sups
EndChar

StartChar: s
Encoding: 115 115 46
Width: 600
GlyphClass: 2
Flags: W
AnchorPoint: "Anchor-3" 309 -20 basechar 0
AnchorPoint: "Anchor-2" 314 0 basechar 0
AnchorPoint: "Anchor-0" 303 507 basechar 0
LayerCount: 2
Fore
SplineSet
310 -12 m 0,0,1
 238 -12 238 -12 177 10.5 c 128,-1,2
 116 33 116 33 71 64 c 1,3,-1
 109 118 l 1,4,5
 151 88 151 88 201.5 70 c 128,-1,6
 252 52 252 52 320 52 c 0,7,8
 382 52 382 52 412.5 74.5 c 128,-1,9
 443 97 443 97 443 128 c 0,10,11
 443 142 443 142 438 154 c 128,-1,12
 433 166 433 166 416.5 177 c 128,-1,13
 400 188 400 188 370 198 c 128,-1,14
 340 208 340 208 291 218 c 0,15,16
 196 238 196 238 148.5 271.5 c 128,-1,17
 101 305 101 305 101 360 c 0,18,19
 101 389 101 389 114 414.5 c 128,-1,20
 127 440 127 440 152.5 458.5 c 128,-1,21
 178 477 178 477 215.5 487.5 c 128,-1,22
 253 498 253 498 303 498 c 0,23,24
 359 498 359 498 411 479.5 c 128,-1,25
 463 461 463 461 499 436 c 1,26,-1
 459 383 l 1,27,28
 425 406 425 406 384 420 c 128,-1,29
 343 434 343 434 296 434 c 0,30,31
 234 434 234 434 209 413 c 128,-1,32
 184 392 184 392 184 364 c 0,33,34
 184 332 184 332 217 315.5 c 128,-1,35
 250 299 250 299 325 283 c 0,36,37
 386 270 386 270 425 255.5 c 128,-1,38
 464 241 464 241 486.5 223 c 128,-1,39
 509 205 509 205 517.5 183 c 128,-1,40
 526 161 526 161 526 133 c 0,41,42
 526 103 526 103 512 77 c 128,-1,43
 498 51 498 51 470.5 31 c 128,-1,44
 443 11 443 11 402.5 -0.5 c 128,-1,45
 362 -12 362 -12 310 -12 c 0,0,1
EndSplineSet
Substitution2: "'sups' Superscript lookup 26 subtable" s.sups
EndChar

StartChar: t
Encoding: 116 116 47
Width: 600
GlyphClass: 2
Flags: W
AnchorPoint: "Anchor-3" 380 -20 basechar 0
AnchorPoint: "Anchor-2" 389 0 basechar 0
AnchorPoint: "Anchor-0" 256 643 basechar 0
LayerCount: 2
Fore
SplineSet
394 -12 m 0,0,1
 341 -12 341 -12 305 2.5 c 128,-1,2
 269 17 269 17 247 43.5 c 128,-1,3
 225 70 225 70 215.5 107 c 128,-1,4
 206 144 206 144 206 189 c 2,5,-1
 206 419 l 1,6,-1
 69 419 l 1,7,-1
 69 481 l 1,8,-1
 209 486 l 1,9,-1
 220 642 l 1,10,-1
 288 642 l 1,11,-1
 288 486 l 1,12,-1
 527 486 l 1,13,-1
 527 419 l 1,14,-1
 288 419 l 1,15,-1
 288 188 l 2,16,17
 288 155 288 155 294 130.5 c 128,-1,18
 300 106 300 106 314 89 c 128,-1,19
 328 72 328 72 352 63.5 c 128,-1,20
 376 55 376 55 411 55 c 256,21,22
 446 55 446 55 474 61 c 128,-1,23
 502 67 502 67 528 77 c 1,24,-1
 546 17 l 1,25,26
 513 5 513 5 476.5 -3.5 c 128,-1,27
 440 -12 440 -12 394 -12 c 0,0,1
EndSplineSet
Substitution2: "'sups' Superscript lookup 26 subtable" t.sups
EndChar

StartChar: u
Encoding: 117 117 48
Width: 600
GlyphClass: 2
Flags: W
AnchorPoint: "Anchor-6" 426 0 basechar 0
AnchorPoint: "Anchor-3" 300 -20 basechar 0
AnchorPoint: "Anchor-2" 464 0 basechar 0
AnchorPoint: "Anchor-0" 295 507 basechar 0
LayerCount: 2
Fore
SplineSet
246 -12 m 0,0,1
 158 -12 158 -12 117.5 37.5 c 128,-1,2
 77 87 77 87 77 184 c 2,3,-1
 77 486 l 1,4,-1
 160 486 l 1,5,-1
 160 195 l 2,6,7
 160 126 160 126 185.5 92.5 c 128,-1,8
 211 59 211 59 272 59 c 0,9,10
 314 59 314 59 348 80.5 c 128,-1,11
 382 102 382 102 423 149 c 1,12,-1
 423 486 l 1,13,-1
 505 486 l 1,14,-1
 505 0 l 1,15,-1
 438 0 l 1,16,-1
 431 85 l 1,17,-1
 427 85 l 1,18,19
 390 42 390 42 346.5 15 c 128,-1,20
 303 -12 303 -12 246 -12 c 0,0,1
EndSplineSet
Substitution2: "'sups' Superscript lookup 26 subtable" u.sups
EndChar

StartChar: v
Encoding: 118 118 49
Width: 600
GlyphClass: 2
Flags: W
AnchorPoint: "Anchor-3" 300 -20 basechar 0
AnchorPoint: "Anchor-0" 300 507 basechar 0
LayerCount: 2
Fore
SplineSet
256 0 m 1,0,-1
 51 486 l 1,1,-1
 134 486 l 1,2,-1
 246 210 l 2,3,4
 261 173 261 173 274.5 137.5 c 128,-1,5
 288 102 288 102 301 67 c 1,6,-1
 305 67 l 1,7,8
 318 102 318 102 330.5 137.5 c 128,-1,9
 343 173 343 173 358 210 c 2,10,-1
 470 486 l 1,11,-1
 549 486 l 1,12,-1
 348 0 l 1,13,-1
 256 0 l 1,0,-1
EndSplineSet
Substitution2: "'sups' Superscript lookup 26 subtable" v.sups
EndChar

StartChar: w
Encoding: 119 119 50
Width: 600
GlyphClass: 2
Flags: W
AnchorPoint: "Anchor-3" 300 -20 basechar 0
AnchorPoint: "Anchor-0" 300 507 basechar 0
LayerCount: 2
Fore
SplineSet
114 0 m 1,0,-1
 8 486 l 1,1,-1
 90 486 l 1,2,-1
 148 204 l 2,3,4
 155 169 155 169 160 137 c 128,-1,5
 165 105 165 105 170 70 c 1,6,-1
 174 70 l 1,7,8
 179 105 179 105 186.5 137.5 c 128,-1,9
 194 170 194 170 202 204 c 2,10,-1
 262 456 l 1,11,-1
 344 456 l 1,12,-1
 402 204 l 2,13,14
 410 169 410 169 418.5 137 c 128,-1,15
 427 105 427 105 432 70 c 1,16,-1
 436 70 l 1,17,18
 442 105 442 105 446.5 137 c 128,-1,19
 451 169 451 169 458 204 c 2,20,-1
 516 486 l 1,21,-1
 592 486 l 1,22,-1
 488 0 l 1,23,-1
 382 0 l 1,24,-1
 326 232 l 2,25,26
 314 283 314 283 302 376 c 1,27,-1
 298 376 l 1,28,29
 286 283 286 283 274 232 c 2,30,-1
 220 0 l 1,31,-1
 114 0 l 1,0,-1
EndSplineSet
Substitution2: "'sups' Superscript lookup 26 subtable" w.sups
EndChar

StartChar: x
Encoding: 120 120 51
Width: 600
GlyphClass: 2
Flags: W
AnchorPoint: "Anchor-3" 300 -20 basechar 0
AnchorPoint: "Anchor-2" 480 0 basechar 0
AnchorPoint: "Anchor-0" 300 507 basechar 0
LayerCount: 2
Fore
SplineSet
64 0 m 1,0,-1
 249 252 l 1,1,-1
 78 486 l 1,2,-1
 169 486 l 1,3,-1
 246 379 l 2,4,5
 259 359 259 359 273.5 338 c 128,-1,6
 288 317 288 317 303 297 c 1,7,-1
 307 297 l 1,8,9
 321 317 321 317 335 339 c 128,-1,10
 349 361 349 361 362 381 c 2,11,-1
 435 486 l 1,12,-1
 522 486 l 1,13,-1
 349 245 l 1,14,-1
 535 0 l 1,15,-1
 445 0 l 1,16,-1
 360 112 l 2,17,18
 345 133 345 133 328.5 156 c 128,-1,19
 312 179 312 179 296 200 c 1,20,-1
 292 200 l 1,21,22
 277 178 277 178 262 156.5 c 128,-1,23
 247 135 247 135 232 112 c 2,24,-1
 152 0 l 1,25,-1
 64 0 l 1,0,-1
EndSplineSet
Substitution2: "'sups' Superscript lookup 26 subtable" x.sups
EndChar

StartChar: y
Encoding: 121 121 52
Width: 600
GlyphClass: 2
Flags: W
AnchorPoint: "Anchor-6" 262 -105 basechar 0
AnchorPoint: "Anchor-3" 267 -219 basechar 0
AnchorPoint: "Anchor-0" 304 507 basechar 0
LayerCount: 2
Fore
SplineSet
131 -209 m 0,0,1
 95 -209 95 -209 67 -199 c 1,2,-1
 84 -134 l 1,3,4
 94 -137 94 -137 105.5 -139 c 128,-1,5
 117 -141 117 -141 128 -141 c 0,6,7
 179 -141 179 -141 211 -111.5 c 128,-1,8
 243 -82 243 -82 261 -37 c 2,9,-1
 276 -1 l 1,10,-1
 49 486 l 1,11,-1
 132 486 l 1,12,-1
 251 217 l 2,13,14
 265 185 265 185 280.5 148 c 128,-1,15
 296 111 296 111 311 76 c 1,16,-1
 315 76 l 1,17,18
 328 111 328 111 341.5 147.5 c 128,-1,19
 355 184 355 184 367 217 c 2,20,-1
 473 486 l 1,21,-1
 551 486 l 1,22,-1
 337 -40 l 2,23,24
 323 -76 323 -76 305 -107 c 128,-1,25
 287 -138 287 -138 262 -160.5 c 128,-1,26
 237 -183 237 -183 204.5 -196 c 128,-1,27
 172 -209 172 -209 131 -209 c 0,0,1
EndSplineSet
Substitution2: "'sups' Superscript lookup 26 subtable" y.sups
EndChar

StartChar: z
Encoding: 122 122 53
Width: 600
GlyphClass: 2
Flags: W
AnchorPoint: "Anchor-3" 314 -20 basechar 0
AnchorPoint: "Anchor-2" 320 0 basechar 0
AnchorPoint: "Anchor-0" 322 507 basechar 0
LayerCount: 2
Fore
SplineSet
71 0 m 1,0,-1
 71 44 l 1,1,-1
 404 419 l 1,2,-1
 108 419 l 1,3,-1
 108 486 l 1,4,-1
 522 486 l 1,5,-1
 522 442 l 1,6,-1
 188 67 l 1,7,-1
 531 67 l 1,8,-1
 531 0 l 1,9,-1
 71 0 l 1,0,-1
EndSplineSet
Substitution2: "'sups' Superscript lookup 26 subtable" z.sups
EndChar

StartChar: Aringacute
Encoding: 506 506 62
Width: 600
Flags: W
LayerCount: 2
Fore
SplineSet
232 367 m 2,0,-1
 201 267 l 1,1,-1
 397 267 l 1,2,-1
 366 367 l 2,3,4
 349 422 349 422 332.5 476.5 c 128,-1,5
 316 531 316 531 301 588 c 1,6,-1
 297 588 l 1,7,8
 281 531 281 531 265 476.5 c 128,-1,9
 249 422 249 422 232 367 c 2,0,-1
32 0 m 1,10,-1
 253 656 l 1,11,-1
 347 656 l 1,12,-1
 568 0 l 1,13,-1
 480 0 l 1,14,-1
 418 200 l 1,15,-1
 180 200 l 1,16,-1
 117 0 l 1,17,-1
 32 0 l 1,10,-1
300 699 m 256,18,19
 258 699 258 699 230.5 723.5 c 128,-1,20
 203 748 203 748 203 789 c 0,21,22
 203 813 203 813 213 832 c 128,-1,23
 223 851 223 851 240 863 c 2,24,-1
 372 968 l 1,25,-1
 409 918 l 1,26,-1
 330 876 l 1,27,28
 360 868 360 868 378.5 845 c 128,-1,29
 397 822 397 822 397 789 c 0,30,31
 397 748 397 748 369.5 723.5 c 128,-1,32
 342 699 342 699 300 699 c 256,18,19
300 735 m 0,33,34
 320 735 320 735 335.5 749 c 128,-1,35
 351 763 351 763 351 789 c 256,36,37
 351 815 351 815 335.5 829 c 128,-1,38
 320 843 320 843 300 843 c 0,39,40
 278 843 278 843 263 829 c 128,-1,41
 248 815 248 815 248 789 c 256,42,43
 248 763 248 763 263 749 c 128,-1,44
 278 735 278 735 300 735 c 0,33,34
EndSplineSet
EndChar

StartChar: Aogonek
Encoding: 260 260 64
Width: 600
GlyphClass: 2
Flags: W
AnchorPoint: "Anchor-0" 300 676 basechar 0
LayerCount: 2
Fore
SplineSet
515 -225 m 0,0,1
 471 -225 471 -225 441.5 -202.5 c 128,-1,2
 412 -180 412 -180 412 -134 c 0,3,4
 412 -111 412 -111 420 -90.5 c 128,-1,5
 428 -70 428 -70 440.5 -53.5 c 128,-1,6
 453 -37 453 -37 468.5 -23.5 c 128,-1,7
 484 -10 484 -10 499 0 c 1,8,-1
 480 0 l 1,9,-1
 418 200 l 1,10,-1
 180 200 l 1,11,-1
 117 0 l 1,12,-1
 32 0 l 1,13,-1
 253 656 l 1,14,-1
 347 656 l 1,15,-1
 568 0 l 1,16,17
 530 -17 530 -17 503.5 -48 c 128,-1,18
 477 -79 477 -79 477 -116 c 0,19,20
 477 -142 477 -142 493 -154.5 c 128,-1,21
 509 -167 509 -167 531 -167 c 0,22,23
 548 -167 548 -167 560 -160.5 c 128,-1,24
 572 -154 572 -154 581 -146 c 1,25,-1
 607 -189 l 1,26,27
 590 -204 590 -204 567 -214.5 c 128,-1,28
 544 -225 544 -225 515 -225 c 0,0,1
232 367 m 2,29,-1
 201 267 l 1,30,-1
 397 267 l 1,31,-1
 366 367 l 2,32,33
 349 422 349 422 332.5 476.5 c 128,-1,34
 316 531 316 531 301 588 c 1,35,-1
 297 588 l 1,36,37
 281 531 281 531 265 476.5 c 128,-1,38
 249 422 249 422 232 367 c 2,29,-1
EndSplineSet
Ligature2: "'ccmp' Glyph Composition/Decomposition lookup 19 subtable" A uni0328
EndChar

StartChar: AE
Encoding: 198 198 77
Width: 600
GlyphClass: 2
Flags: W
AnchorPoint: "Anchor-3" 336 -20 basechar 0
AnchorPoint: "Anchor-2" 464 0 basechar 0
AnchorPoint: "Anchor-0" 420 676 basechar 0
LayerCount: 2
Fore
SplineSet
231 377 m 2,0,-1
 185 258 l 1,1,-1
 317 258 l 1,2,-1
 317 590 l 1,3,-1
 314 590 l 1,4,5
 294 536 294 536 272.5 483.5 c 128,-1,6
 251 431 251 431 231 377 c 2,0,-1
-1 0 m 1,7,-1
 263 656 l 1,8,-1
 582 656 l 1,9,-1
 582 586 l 1,10,-1
 393 586 l 1,11,-1
 393 381 l 1,12,-1
 540 381 l 1,13,-1
 540 310 l 1,14,-1
 393 310 l 1,15,-1
 393 71 l 1,16,-1
 591 71 l 1,17,-1
 591 0 l 1,18,-1
 317 0 l 1,19,-1
 317 191 l 1,20,-1
 159 191 l 1,21,-1
 86 0 l 1,22,-1
 -1 0 l 1,7,-1
EndSplineSet
EndChar

StartChar: uni0243
Encoding: 579 579 80
Width: 600
Flags: W
LayerCount: 2
Fore
SplineSet
105 0 m 1,0,-1
 105 162 l 1,1,-1
 26 162 l 1,2,-1
 26 218 l 1,3,-1
 105 224 l 1,4,-1
 105 656 l 1,5,-1
 291 656 l 2,6,7
 341 656 341 656 382.5 647 c 128,-1,8
 424 638 424 638 453.5 619 c 128,-1,9
 483 600 483 600 499.5 569.5 c 128,-1,10
 516 539 516 539 516 496 c 0,11,12
 516 447 516 447 488 407.5 c 128,-1,13
 460 368 460 368 401 353 c 1,14,-1
 401 349 l 1,15,16
 473 338 473 338 513 299 c 128,-1,17
 553 260 553 260 553 192 c 0,18,19
 553 144 553 144 535 108 c 128,-1,20
 517 72 517 72 484.5 48 c 128,-1,21
 452 24 452 24 406.5 12 c 128,-1,22
 361 0 361 0 306 0 c 2,23,-1
 105 0 l 1,0,-1
188 70 m 1,24,-1
 294 70 l 2,25,26
 379 70 379 70 425 99.5 c 128,-1,27
 471 129 471 129 471 196 c 0,28,29
 471 257 471 257 426 283.5 c 128,-1,30
 381 310 381 310 294 310 c 2,31,-1
 188 310 l 1,32,-1
 188 224 l 1,33,-1
 330 224 l 1,34,-1
 330 162 l 1,35,-1
 188 162 l 1,36,-1
 188 70 l 1,24,-1
188 380 m 1,37,-1
 277 380 l 2,38,39
 361 380 361 380 397.5 407 c 128,-1,40
 434 434 434 434 434 489 c 0,41,42
 434 543 434 543 395.5 564.5 c 128,-1,43
 357 586 357 586 281 586 c 2,44,-1
 188 586 l 1,45,-1
 188 380 l 1,37,-1
EndSplineSet
EndChar

StartChar: uni018A
Encoding: 394 394 92
Width: 600
Flags: W
LayerCount: 2
Fore
SplineSet
209 0 m 1,0,-1
 209 595 l 1,1,2
 152 584 152 584 123 544 c 128,-1,3
 94 504 94 504 94 449 c 0,4,5
 94 401 94 401 113 372 c 128,-1,6
 132 343 132 343 170 320 c 1,7,-1
 130 262 l 1,8,9
 79 288 79 288 49.5 332 c 128,-1,10
 20 376 20 376 20 445 c 0,11,12
 20 493 20 493 35.5 534 c 128,-1,13
 51 575 51 575 82.5 605 c 128,-1,14
 114 635 114 635 160.5 651.5 c 128,-1,15
 207 668 207 668 269 668 c 0,16,17
 420 668 420 668 493.5 582 c 128,-1,18
 567 496 567 496 567 338 c 0,19,20
 567 176 567 176 498.5 88 c 128,-1,21
 430 0 430 0 308 0 c 2,22,-1
 209 0 l 1,0,-1
292 68 m 1,23,-1
 313 68 l 2,24,25
 395 68 395 68 438 138.5 c 128,-1,26
 481 209 481 209 481 338 c 0,27,28
 481 460 481 460 436.5 527 c 128,-1,29
 392 594 392 594 292 599 c 1,30,-1
 292 68 l 1,23,-1
EndSplineSet
EndChar

StartChar: Eogonek
Encoding: 280 280 101
Width: 600
GlyphClass: 2
Flags: W
AnchorPoint: "Anchor-0" 331 676 basechar 0
LayerCount: 2
Fore
SplineSet
462 -225 m 0,0,1
 417 -225 417 -225 388 -202.5 c 128,-1,2
 359 -180 359 -180 359 -134 c 0,3,4
 359 -89 359 -89 385.5 -54.5 c 128,-1,5
 412 -20 412 -20 445 0 c 1,6,-1
 115 0 l 1,7,-1
 115 656 l 1,8,-1
 520 656 l 1,9,-1
 520 586 l 1,10,-1
 199 586 l 1,11,-1
 199 380 l 1,12,-1
 470 380 l 1,13,-1
 470 309 l 1,14,-1
 199 309 l 1,15,-1
 199 71 l 1,16,-1
 530 71 l 1,17,-1
 530 0 l 1,18,-1
 526 0 l 2,19,20
 507 -3 507 -3 488.5 -14 c 128,-1,21
 470 -25 470 -25 455.5 -41 c 128,-1,22
 441 -57 441 -57 432 -76.5 c 128,-1,23
 423 -96 423 -96 423 -116 c 0,24,25
 423 -142 423 -142 440 -154.5 c 128,-1,26
 457 -167 457 -167 478 -167 c 0,27,28
 494 -167 494 -167 506 -160.5 c 128,-1,29
 518 -154 518 -154 528 -146 c 1,30,-1
 553 -189 l 1,31,32
 536 -204 536 -204 513.5 -214.5 c 128,-1,33
 491 -225 491 -225 462 -225 c 0,0,1
EndSplineSet
Ligature2: "'ccmp' Glyph Composition/Decomposition lookup 19 subtable" E uni0328
EndChar

StartChar: uni0193
Encoding: 403 403 119
Width: 600
Flags: W
LayerCount: 2
Fore
SplineSet
525 588 m 1,0,-1
 478 535 l 1,1,2
 454 561 454 561 423 578 c 128,-1,3
 392 595 392 595 344 595 c 0,4,5
 298 595 298 595 260.5 576.5 c 128,-1,6
 223 558 223 558 196 523.5 c 128,-1,7
 169 489 169 489 154.5 440 c 128,-1,8
 140 391 140 391 140 330 c 0,9,10
 140 268 140 268 153.5 218.5 c 128,-1,11
 167 169 167 169 192.5 134 c 128,-1,12
 218 99 218 99 256 80 c 128,-1,13
 294 61 294 61 342 61 c 0,14,15
 377 61 377 61 407 71.5 c 128,-1,16
 437 82 437 82 456 100 c 1,17,-1
 456 271 l 1,18,-1
 325 271 l 1,19,-1
 325 340 l 1,20,-1
 533 340 l 1,21,-1
 533 64 l 1,22,23
 502 32 502 32 451.5 10 c 128,-1,24
 401 -12 401 -12 337 -12 c 0,25,26
 275 -12 275 -12 223 11 c 128,-1,27
 171 34 171 34 133 77.5 c 128,-1,28
 95 121 95 121 74 184.5 c 128,-1,29
 53 248 53 248 53 328 c 0,30,31
 53 407 53 407 74.5 470.5 c 128,-1,32
 96 534 96 534 134.5 577.5 c 128,-1,33
 173 621 173 621 226.5 644.5 c 128,-1,34
 280 668 280 668 344 668 c 0,35,36
 366 668 366 668 385.5 664.5 c 128,-1,37
 405 661 405 661 422 656 c 1,38,39
 415 676 415 676 415 699 c 0,40,41
 415 746 415 746 445.5 775 c 128,-1,42
 476 804 476 804 526 804 c 0,43,44
 546 804 546 804 561.5 800 c 128,-1,45
 577 796 577 796 589 791 c 1,46,-1
 573 728 l 1,47,48
 565 731 565 731 557.5 734 c 128,-1,49
 550 737 550 737 539 737 c 0,50,51
 513 737 513 737 499 721.5 c 128,-1,52
 485 706 485 706 485 683 c 0,53,54
 485 656 485 656 495 636.5 c 128,-1,55
 505 617 505 617 525 588 c 1,0,-1
EndSplineSet
EndChar

StartChar: Hbar
Encoding: 294 294 125
Width: 600
Flags: W
LayerCount: 2
Fore
SplineSet
10 484 m 1,0,-1
 10 540 l 1,1,-1
 79 546 l 1,2,-1
 79 656 l 1,3,-1
 163 656 l 1,4,-1
 163 546 l 1,5,-1
 437 546 l 1,6,-1
 437 656 l 1,7,-1
 521 656 l 1,8,-1
 521 546 l 1,9,-1
 590 546 l 1,10,-1
 590 484 l 1,11,-1
 521 484 l 1,12,-1
 521 0 l 1,13,-1
 437 0 l 1,14,-1
 437 309 l 1,15,-1
 163 309 l 1,16,-1
 163 0 l 1,17,-1
 79 0 l 1,18,-1
 79 484 l 1,19,-1
 10 484 l 1,0,-1
163 381 m 1,20,-1
 437 381 l 1,21,-1
 437 484 l 1,22,-1
 163 484 l 1,23,-1
 163 381 l 1,20,-1
EndSplineSet
EndChar

StartChar: Iogonek
Encoding: 302 302 134
Width: 600
GlyphClass: 2
Flags: W
AnchorPoint: "Anchor-0" 300 676 basechar 0
LayerCount: 2
Fore
SplineSet
311 -225 m 0,0,1
 267 -225 267 -225 237.5 -202.5 c 128,-1,2
 208 -180 208 -180 208 -134 c 0,3,4
 208 -92 208 -92 231 -58 c 128,-1,5
 254 -24 254 -24 279 0 c 1,6,-1
 95 0 l 1,7,-1
 95 71 l 1,8,-1
 258 71 l 1,9,-1
 258 586 l 1,10,-1
 95 586 l 1,11,-1
 95 656 l 1,12,-1
 505 656 l 1,13,-1
 505 586 l 1,14,-1
 342 586 l 1,15,-1
 342 71 l 1,16,-1
 505 71 l 1,17,-1
 505 0 l 1,18,-1
 347 0 l 1,19,20
 309 -29 309 -29 291 -58.5 c 128,-1,21
 273 -88 273 -88 273 -116 c 0,22,23
 273 -142 273 -142 290 -154.5 c 128,-1,24
 307 -167 307 -167 327 -167 c 0,25,26
 344 -167 344 -167 356 -160.5 c 128,-1,27
 368 -154 368 -154 377 -146 c 1,28,-1
 402 -189 l 1,29,30
 385 -204 385 -204 362.5 -214.5 c 128,-1,31
 340 -225 340 -225 311 -225 c 0,0,1
EndSplineSet
Ligature2: "'ccmp' Glyph Composition/Decomposition lookup 19 subtable" I uni0328
EndChar

StartChar: Lslash
Encoding: 321 321 148
Width: 600
GlyphClass: 2
Flags: W
AnchorPoint: "Anchor-3" 349 -20 basechar 0
AnchorPoint: "Anchor-0" 189 676 basechar 0
LayerCount: 2
Fore
SplineSet
39 181 m 1,0,-1
 10 234 l 1,1,-1
 134 300 l 1,2,-1
 134 656 l 1,3,-1
 216 656 l 1,4,-1
 216 337 l 1,5,-1
 427 450 l 1,6,-1
 456 397 l 1,7,-1
 216 269 l 1,8,-1
 216 71 l 1,9,-1
 541 71 l 1,10,-1
 541 0 l 1,11,-1
 134 0 l 1,12,-1
 134 233 l 1,13,-1
 39 181 l 1,0,-1
EndSplineSet
EndChar

StartChar: uni01EA
Encoding: 490 490 170
Width: 600
GlyphClass: 2
Flags: W
AnchorPoint: "Anchor-0" 300 676 basechar 0
LayerCount: 2
Fore
SplineSet
318 -225 m 0,0,1
 273 -225 273 -225 244 -202.5 c 128,-1,2
 215 -180 215 -180 215 -134 c 0,3,4
 215 -94 215 -94 236.5 -64 c 128,-1,5
 258 -34 258 -34 286 -11 c 1,6,7
 228 -7 228 -7 183.5 21 c 128,-1,8
 139 49 139 49 109 94 c 128,-1,9
 79 139 79 139 63.5 199.5 c 128,-1,10
 48 260 48 260 48 331 c 0,11,12
 48 410 48 410 66.5 472.5 c 128,-1,13
 85 535 85 535 118.5 578.5 c 128,-1,14
 152 622 152 622 198 645 c 128,-1,15
 244 668 244 668 300 668 c 0,16,17
 355 668 355 668 401.5 644.5 c 128,-1,18
 448 621 448 621 481.5 577.5 c 128,-1,19
 515 534 515 534 533.5 471.5 c 128,-1,20
 552 409 552 409 552 331 c 0,21,22
 552 199 552 199 505.5 117 c 128,-1,23
 459 35 459 35 371 -2 c 0,24,25
 325 -22 325 -22 302 -53.5 c 128,-1,26
 279 -85 279 -85 279 -116 c 0,27,28
 279 -142 279 -142 296 -154.5 c 128,-1,29
 313 -167 313 -167 334 -167 c 0,30,31
 350 -167 350 -167 362 -160.5 c 128,-1,32
 374 -154 374 -154 384 -146 c 1,33,-1
 409 -189 l 1,34,35
 392 -204 392 -204 369.5 -214.5 c 128,-1,36
 347 -225 347 -225 318 -225 c 0,0,1
300 60 m 256,37,38
 375 60 375 60 420.5 131 c 128,-1,39
 466 202 466 202 466 331 c 0,40,41
 466 393 466 393 454 442 c 128,-1,42
 442 491 442 491 420.5 525 c 128,-1,43
 399 559 399 559 368 577 c 128,-1,44
 337 595 337 595 300 595 c 0,45,46
 262 595 262 595 231.5 577 c 128,-1,47
 201 559 201 559 179.5 525 c 128,-1,48
 158 491 158 491 146 442 c 128,-1,49
 134 393 134 393 134 331 c 0,50,51
 134 202 134 202 179.5 131 c 128,-1,52
 225 60 225 60 300 60 c 256,37,38
EndSplineSet
Ligature2: "'ccmp' Glyph Composition/Decomposition lookup 19 subtable" O uni0328
EndChar

StartChar: Ohorn
Encoding: 416 416 178
Width: 600
GlyphClass: 2
Flags: W
AnchorPoint: "Anchor-3" 300 -20 basechar 0
AnchorPoint: "Anchor-0" 300 676 basechar 0
LayerCount: 2
Fore
SplineSet
300 -12 m 0,0,1
 244 -12 244 -12 198 11.5 c 128,-1,2
 152 35 152 35 118.5 79 c 128,-1,3
 85 123 85 123 66.5 186.5 c 128,-1,4
 48 250 48 250 48 331 c 0,5,6
 48 410 48 410 66.5 473 c 128,-1,7
 85 536 85 536 118.5 579 c 128,-1,8
 152 622 152 622 198 645 c 128,-1,9
 244 668 244 668 300 668 c 0,10,11
 362 668 362 668 411 640 c 1,12,13
 489 656 489 656 489 726 c 0,14,15
 489 741 489 741 485 756.5 c 128,-1,16
 481 772 481 772 474 784 c 1,17,-1
 539 813 l 1,18,19
 550 796 550 796 556 775.5 c 128,-1,20
 562 755 562 755 562 732 c 0,21,22
 562 681 562 681 534 649.5 c 128,-1,23
 506 618 506 618 458 606 c 1,24,25
 503 563 503 563 527.5 494 c 128,-1,26
 552 425 552 425 552 331 c 0,27,28
 552 250 552 250 533.5 186.5 c 128,-1,29
 515 123 515 123 481.5 79 c 128,-1,30
 448 35 448 35 401.5 11.5 c 128,-1,31
 355 -12 355 -12 300 -12 c 0,0,1
300 61 m 0,32,33
 337 61 337 61 368 79.5 c 128,-1,34
 399 98 399 98 420.5 133 c 128,-1,35
 442 168 442 168 454 218 c 128,-1,36
 466 268 466 268 466 331 c 0,37,38
 466 393 466 393 454 442 c 128,-1,39
 442 491 442 491 420.5 525 c 128,-1,40
 399 559 399 559 368 577 c 128,-1,41
 337 595 337 595 300 595 c 0,42,43
 262 595 262 595 231.5 577 c 128,-1,44
 201 559 201 559 179.5 525 c 128,-1,45
 158 491 158 491 146 442 c 128,-1,46
 134 393 134 393 134 331 c 0,47,48
 134 268 134 268 146 218 c 128,-1,49
 158 168 158 168 179.5 133 c 128,-1,50
 201 98 201 98 231.5 79.5 c 128,-1,51
 262 61 262 61 300 61 c 0,32,33
EndSplineSet
EndChar

StartChar: Oslash
Encoding: 216 216 185
Width: 600
GlyphClass: 2
Flags: W
AnchorPoint: "Anchor-2" 300 0 basechar 0
AnchorPoint: "Anchor-0" 300 676 basechar 0
LayerCount: 2
Fore
SplineSet
300 -12 m 0,0,1
 211 -12 211 -12 146 48 c 1,2,-1
 92 -32 l 1,3,-1
 36 4 l 1,4,-1
 103 102 l 1,5,6
 77 145 77 145 62.5 202.5 c 128,-1,7
 48 260 48 260 48 331 c 0,8,9
 48 410 48 410 66.5 473 c 128,-1,10
 85 536 85 536 118.5 579 c 128,-1,11
 152 622 152 622 198 645 c 128,-1,12
 244 668 244 668 300 668 c 0,13,14
 387 668 387 668 452 611 c 1,15,-1
 504 688 l 1,16,-1
 560 652 l 1,17,-1
 496 558 l 1,18,19
 523 516 523 516 537.5 459 c 128,-1,20
 552 402 552 402 552 331 c 0,21,22
 552 250 552 250 533.5 186.5 c 128,-1,23
 515 123 515 123 481.5 79 c 128,-1,24
 448 35 448 35 401.5 11.5 c 128,-1,25
 355 -12 355 -12 300 -12 c 0,0,1
134 331 m 0,26,27
 134 244 134 244 157 181 c 1,28,-1
 406 545 l 1,29,30
 362 595 362 595 300 595 c 0,31,32
 262 595 262 595 231.5 577 c 128,-1,33
 201 559 201 559 179.5 525 c 128,-1,34
 158 491 158 491 146 442 c 128,-1,35
 134 393 134 393 134 331 c 0,26,27
300 61 m 0,36,37
 337 61 337 61 368 79.5 c 128,-1,38
 399 98 399 98 420.5 133 c 128,-1,39
 442 168 442 168 454 218 c 128,-1,40
 466 268 466 268 466 331 c 0,41,42
 466 420 466 420 442 480 c 1,43,-1
 192 115 l 1,44,45
 235 61 235 61 300 61 c 0,36,37
EndSplineSet
EndChar

StartChar: OE
Encoding: 338 338 187
Width: 600
GlyphClass: 2
Flags: W
AnchorPoint: "Anchor-2" 452 0 basechar 0
AnchorPoint: "Anchor-0" 383 676 basechar 0
LayerCount: 2
Fore
SplineSet
296 0 m 2,0,1
 171 0 171 0 102 86.5 c 128,-1,2
 33 173 33 173 33 331 c 0,3,4
 33 488 33 488 103.5 572.5 c 128,-1,5
 174 657 174 657 299 657 c 2,6,-1
 581 657 l 1,7,-1
 581 587 l 1,8,-1
 387 587 l 1,9,-1
 387 380 l 1,10,-1
 535 380 l 1,11,-1
 535 309 l 1,12,-1
 387 309 l 1,13,-1
 387 71 l 1,14,-1
 591 71 l 1,15,-1
 591 0 l 1,16,-1
 296 0 l 2,0,1
289 68 m 2,17,-1
 311 68 l 1,18,-1
 311 588 l 1,19,-1
 289 588 l 2,20,21
 203 588 203 588 161 522 c 128,-1,22
 119 456 119 456 119 331 c 0,23,24
 119 205 119 205 161 136.5 c 128,-1,25
 203 68 203 68 289 68 c 2,17,-1
EndSplineSet
EndChar

StartChar: uni1E9E
Encoding: 7838 7838 202
Width: 600
Flags: W
LayerCount: 2
Fore
SplineSet
390 -12 m 0,0,1
 341 -12 341 -12 299 7 c 128,-1,2
 257 26 257 26 229 61 c 1,3,-1
 269 114 l 1,4,5
 294 85 294 85 321 71.5 c 128,-1,6
 348 58 348 58 383 58 c 0,7,8
 429 58 429 58 455.5 88.5 c 128,-1,9
 482 119 482 119 482 167 c 0,10,11
 482 191 482 191 474.5 212.5 c 128,-1,12
 467 234 467 234 447.5 252.5 c 128,-1,13
 428 271 428 271 394.5 285.5 c 128,-1,14
 361 300 361 300 310 310 c 1,15,-1
 304 364 l 1,16,-1
 428 518 l 1,17,18
 411 560 411 560 379.5 579.5 c 128,-1,19
 348 599 348 599 305 599 c 0,20,21
 240 599 240 599 201 554 c 128,-1,22
 162 509 162 509 162 413 c 2,23,-1
 162 0 l 1,24,-1
 78 0 l 1,25,-1
 78 428 l 2,26,27
 78 483 78 483 94 527.5 c 128,-1,28
 110 572 110 572 139 603 c 128,-1,29
 168 634 168 634 210 651 c 128,-1,30
 252 668 252 668 305 668 c 0,31,32
 389 668 389 668 440 626 c 128,-1,33
 491 584 491 584 515 514 c 1,34,-1
 394 363 l 1,35,36
 443 348 443 348 477 328.5 c 128,-1,37
 511 309 511 309 531 284.5 c 128,-1,38
 551 260 551 260 560 230.5 c 128,-1,39
 569 201 569 201 569 167 c 0,40,41
 569 129 569 129 557 96 c 128,-1,42
 545 63 545 63 521.5 39 c 128,-1,43
 498 15 498 15 465 1.5 c 128,-1,44
 432 -12 432 -12 390 -12 c 0,0,1
EndSplineSet
EndChar

StartChar: Tbar
Encoding: 358 358 208
Width: 600
GlyphClass: 2
Flags: W
AnchorPoint: "Anchor-3" 300 -20 basechar 0
AnchorPoint: "Anchor-0" 300 676 basechar 0
LayerCount: 2
Fore
SplineSet
116 306 m 1,0,-1
 116 364 l 1,1,-1
 206 368 l 1,2,-1
 258 368 l 1,3,-1
 258 586 l 1,4,-1
 42 586 l 1,5,-1
 42 656 l 1,6,-1
 558 656 l 1,7,-1
 558 586 l 1,8,-1
 342 586 l 1,9,-1
 342 368 l 1,10,-1
 484 368 l 1,11,-1
 484 306 l 1,12,-1
 342 306 l 1,13,-1
 342 0 l 1,14,-1
 258 0 l 1,15,-1
 258 306 l 1,16,-1
 116 306 l 1,0,-1
EndSplineSet
EndChar

StartChar: Uogonek
Encoding: 370 370 219
Width: 600
GlyphClass: 2
Flags: W
AnchorPoint: "Anchor-0" 300 676 basechar 0
LayerCount: 2
Fore
SplineSet
318 -225 m 0,0,1
 273 -225 273 -225 244 -202.5 c 128,-1,2
 215 -180 215 -180 215 -134 c 0,3,4
 215 -113 215 -113 221.5 -94.5 c 128,-1,5
 228 -76 228 -76 238 -60.5 c 128,-1,6
 248 -45 248 -45 260 -32.5 c 128,-1,7
 272 -20 272 -20 282 -11 c 1,8,9
 189 -6 189 -6 134 57 c 128,-1,10
 79 120 79 120 79 248 c 2,11,-1
 79 656 l 1,12,-1
 163 656 l 1,13,-1
 163 246 l 2,14,15
 163 195 163 195 173.5 159.5 c 128,-1,16
 184 124 184 124 202 102.5 c 128,-1,17
 220 81 220 81 245 71 c 128,-1,18
 270 61 270 61 300 61 c 256,19,20
 330 61 330 61 355.5 71 c 128,-1,21
 381 81 381 81 399.5 102.5 c 128,-1,22
 418 124 418 124 429 159.5 c 128,-1,23
 440 195 440 195 440 246 c 2,24,-1
 440 656 l 1,25,-1
 521 656 l 1,26,-1
 521 248 l 2,27,28
 521 142 521 142 486 84.5 c 128,-1,29
 451 27 451 27 383 0 c 0,30,31
 324 -24 324 -24 301.5 -55 c 128,-1,32
 279 -86 279 -86 279 -116 c 0,33,34
 279 -142 279 -142 296 -154.5 c 128,-1,35
 313 -167 313 -167 334 -167 c 0,36,37
 350 -167 350 -167 362 -160.5 c 128,-1,38
 374 -154 374 -154 384 -146 c 1,39,-1
 409 -189 l 1,40,41
 392 -204 392 -204 369.5 -214.5 c 128,-1,42
 347 -225 347 -225 318 -225 c 0,0,1
EndSplineSet
Ligature2: "'ccmp' Glyph Composition/Decomposition lookup 19 subtable" U uni0328
EndChar

StartChar: Uhorn
Encoding: 431 431 226
Width: 600
GlyphClass: 2
Flags: W
AnchorPoint: "Anchor-3" 300 -20 basechar 0
AnchorPoint: "Anchor-0" 300 676 basechar 0
LayerCount: 2
Fore
SplineSet
301 -12 m 256,0,1
 253 -12 253 -12 212 2 c 128,-1,2
 171 16 171 16 141.5 47.5 c 128,-1,3
 112 79 112 79 95.5 128 c 128,-1,4
 79 177 79 177 79 248 c 2,5,-1
 79 656 l 1,6,-1
 163 656 l 1,7,-1
 163 246 l 2,8,9
 163 195 163 195 173.5 159.5 c 128,-1,10
 184 124 184 124 202.5 102.5 c 128,-1,11
 221 81 221 81 246 71 c 128,-1,12
 271 61 271 61 301 61 c 256,13,14
 331 61 331 61 356 71 c 128,-1,15
 381 81 381 81 400 102.5 c 128,-1,16
 419 124 419 124 429.5 159.5 c 128,-1,17
 440 195 440 195 440 246 c 2,18,-1
 440 656 l 1,19,-1
 473 656 l 1,20,21
 514 661 514 661 535.5 679 c 128,-1,22
 557 697 557 697 557 739 c 0,23,24
 557 754 557 754 553 769.5 c 128,-1,25
 549 785 549 785 542 797 c 1,26,-1
 607 825 l 1,27,28
 618 808 618 808 624 788 c 128,-1,29
 630 768 630 768 630 745 c 0,30,31
 630 687 630 687 598.5 659 c 128,-1,32
 567 631 567 631 521 620 c 1,33,-1
 521 248 l 2,34,35
 521 177 521 177 504.5 128 c 128,-1,36
 488 79 488 79 459 47.5 c 128,-1,37
 430 16 430 16 389.5 2 c 128,-1,38
 349 -12 349 -12 301 -12 c 256,0,1
EndSplineSet
EndChar

StartChar: Eth
Encoding: 208 208 251
Width: 600
GlyphClass: 2
Flags: W
AnchorPoint: "Anchor-3" 290 -20 basechar 0
AnchorPoint: "Anchor-0" 299 676 basechar 0
LayerCount: 2
Fore
SplineSet
87 0 m 1,0,-1
 87 314 l 1,1,-1
 12 314 l 1,2,-1
 12 370 l 1,3,-1
 87 376 l 1,4,-1
 87 656 l 1,5,-1
 249 656 l 2,6,7
 398 656 398 656 475.5 572 c 128,-1,8
 553 488 553 488 553 331 c 256,9,10
 553 174 553 174 475.5 87 c 128,-1,11
 398 0 398 0 253 0 c 2,12,-1
 87 0 l 1,0,-1
170 68 m 1,13,-1
 243 68 l 2,14,15
 355 68 355 68 410.5 137 c 128,-1,16
 466 206 466 206 466 331 c 256,17,18
 466 456 466 456 410.5 522 c 128,-1,19
 355 588 355 588 243 588 c 2,20,-1
 170 588 l 1,21,-1
 170 376 l 1,22,-1
 314 376 l 1,23,-1
 314 314 l 1,24,-1
 170 314 l 1,25,-1
 170 68 l 1,13,-1
EndSplineSet
EndChar

StartChar: Thorn
Encoding: 222 222 252
Width: 600
Flags: W
LayerCount: 2
Fore
SplineSet
101 0 m 1,0,-1
 101 656 l 1,1,-1
 185 656 l 1,2,-1
 185 546 l 1,3,-1
 303 546 l 2,4,5
 357 546 357 546 402 536 c 128,-1,6
 447 526 447 526 478.5 503 c 128,-1,7
 510 480 510 480 527.5 443.5 c 128,-1,8
 545 407 545 407 545 353 c 0,9,10
 545 301 545 301 527.5 262.5 c 128,-1,11
 510 224 510 224 478 199 c 128,-1,12
 446 174 446 174 401.5 162 c 128,-1,13
 357 150 357 150 303 150 c 2,14,-1
 185 150 l 1,15,-1
 185 0 l 1,16,-1
 101 0 l 1,0,-1
185 218 m 1,17,-1
 292 218 l 2,18,19
 379 218 379 218 420.5 250 c 128,-1,20
 462 282 462 282 462 353 c 256,21,22
 462 424 462 424 419.5 451 c 128,-1,23
 377 478 377 478 292 478 c 2,24,-1
 185 478 l 1,25,-1
 185 218 l 1,17,-1
EndSplineSet
EndChar

StartChar: uni018F
Encoding: 399 399 253
Width: 600
GlyphClass: 2
Flags: W
AnchorPoint: "Anchor-6" 310 0 basechar 0
AnchorPoint: "Anchor-3" 304 -20 basechar 0
AnchorPoint: "Anchor-2" 310 0 basechar 0
AnchorPoint: "Anchor-0" 317 676 basechar 0
LayerCount: 2
Fore
SplineSet
300 -12 m 256,0,1
 245 -12 245 -12 200.5 12.5 c 128,-1,2
 156 37 156 37 124.5 81 c 128,-1,3
 93 125 93 125 76 187.5 c 128,-1,4
 59 250 59 250 59 327 c 0,5,6
 59 333 59 333 59 338.5 c 128,-1,7
 59 344 59 344 60 350 c 1,8,-1
 467 350 l 1,9,10
 463 468 463 468 420 532 c 128,-1,11
 377 596 377 596 297 596 c 0,12,13
 256 596 256 596 223 580 c 128,-1,14
 190 564 190 564 165 538 c 1,15,-1
 125 595 l 1,16,17
 156 627 156 627 199.5 647.5 c 128,-1,18
 243 668 243 668 301 668 c 256,19,20
 359 668 359 668 405 644.5 c 128,-1,21
 451 621 451 621 483.5 577.5 c 128,-1,22
 516 534 516 534 533 471.5 c 128,-1,23
 550 409 550 409 550 330 c 256,24,25
 550 251 550 251 531.5 188 c 128,-1,26
 513 125 513 125 480 80.5 c 128,-1,27
 447 36 447 36 401 12 c 128,-1,28
 355 -12 355 -12 300 -12 c 256,0,1
300 60 m 256,29,30
 369 60 369 60 413.5 117 c 128,-1,31
 458 174 458 174 466 286 c 1,32,-1
 141 286 l 1,33,34
 149 172 149 172 190 116 c 128,-1,35
 231 60 231 60 300 60 c 256,29,30
EndSplineSet
EndChar

StartChar: Eng
Encoding: 330 330 254
Width: 600
GlyphClass: 2
Flags: W
AnchorPoint: "Anchor-3" 306 -20 basechar 0
AnchorPoint: "Anchor-0" 322 676 basechar 0
LayerCount: 2
Fore
SplineSet
378 -12 m 0,0,1
 359 -12 359 -12 338 -8.5 c 128,-1,2
 317 -5 317 -5 303 2 c 1,3,-1
 324 77 l 1,4,5
 333 72 333 72 344 69.5 c 128,-1,6
 355 67 355 67 369 67 c 0,7,8
 389 67 389 67 406.5 79.5 c 128,-1,9
 424 92 424 92 436.5 123 c 128,-1,10
 449 154 449 154 456 205.5 c 128,-1,11
 463 257 463 257 463 335 c 0,12,13
 463 409 463 409 452.5 459 c 128,-1,14
 442 509 442 509 422.5 539 c 128,-1,15
 403 569 403 569 375.5 582 c 128,-1,16
 348 595 348 595 315 595 c 0,17,18
 278 595 278 595 237 568 c 128,-1,19
 196 541 196 541 168 501 c 1,20,-1
 168 0 l 1,21,-1
 85 0 l 1,22,-1
 85 656 l 1,23,-1
 166 656 l 1,24,-1
 166 579 l 1,25,26
 198 616 198 616 241.5 642 c 128,-1,27
 285 668 285 668 333 668 c 0,28,29
 379 668 379 668 419 650.5 c 128,-1,30
 459 633 459 633 487.5 593.5 c 128,-1,31
 516 554 516 554 532.5 490.5 c 128,-1,32
 549 427 549 427 549 335 c 0,33,34
 549 240 549 240 537.5 174 c 128,-1,35
 526 108 526 108 504 67 c 128,-1,36
 482 26 482 26 450 7 c 128,-1,37
 418 -12 418 -12 378 -12 c 0,0,1
EndSplineSet
Substitution2: "'ss05' Style Set 5 lookup 3 subtable" uni014A.a
EndChar

StartChar: IJ
Encoding: 306 306 255
Width: 600
GlyphClass: 5
Flags: W
LayerCount: 2
Fore
SplineSet
112 0 m 1,0,-1
 112 656 l 1,1,-1
 195 656 l 1,2,-1
 195 0 l 1,3,-1
 112 0 l 1,0,-1
351 -165 m 0,4,5
 328 -165 328 -165 309.5 -161 c 128,-1,6
 291 -157 291 -157 277 -152 c 1,7,-1
 293 -86 l 1,8,9
 304 -90 304 -90 316.5 -93 c 128,-1,10
 329 -96 329 -96 342 -96 c 0,11,12
 380 -96 380 -96 392.5 -70.5 c 128,-1,13
 405 -45 405 -45 405 0 c 2,14,-1
 405 656 l 1,15,-1
 488 656 l 1,16,-1
 488 -3 l 2,17,18
 488 -77 488 -77 456.5 -121 c 128,-1,19
 425 -165 425 -165 351 -165 c 0,4,5
EndSplineSet
EndChar

StartChar: uni004C00B7004C
Encoding: 1114114 -1 256
Width: 600
GlyphClass: 3
Flags: W
LayerCount: 2
Fore
SplineSet
68 0 m 1,0,-1
 68 656 l 1,1,-1
 144 656 l 1,2,-1
 144 71 l 1,3,-1
 275 71 l 1,4,-1
 275 0 l 1,5,-1
 68 0 l 1,0,-1
246 272 m 256,6,7
 213 272 213 272 190.5 294.5 c 128,-1,8
 168 317 168 317 168 356 c 256,9,10
 168 395 168 395 190.5 416.5 c 128,-1,11
 213 438 213 438 246 438 c 256,12,13
 279 438 279 438 302.5 416.5 c 128,-1,14
 326 395 326 395 326 356 c 256,15,16
 326 317 326 317 302.5 294.5 c 128,-1,17
 279 272 279 272 246 272 c 256,6,7
348 0 m 1,18,-1
 348 656 l 1,19,-1
 424 656 l 1,20,-1
 424 71 l 1,21,-1
 554 71 l 1,22,-1
 554 0 l 1,23,-1
 348 0 l 1,18,-1
EndSplineSet
Ligature2: "'ccmp' Glyph Composition/Decomposition lookup 19 subtable" L periodcentered L
EndChar

StartChar: aringacute
Encoding: 507 507 266
Width: 600
Flags: W
LayerCount: 2
Fore
SplineSet
246 -12 m 0,0,1
 212 -12 212 -12 182 -2.5 c 128,-1,2
 152 7 152 7 129.5 24.5 c 128,-1,3
 107 42 107 42 94 67.5 c 128,-1,4
 81 93 81 93 81 126 c 0,5,6
 81 167 81 167 100.5 197.5 c 128,-1,7
 120 228 120 228 162.5 250 c 128,-1,8
 205 272 205 272 272 286 c 128,-1,9
 339 300 339 300 433 308 c 1,10,11
 432 333 432 333 425 355 c 128,-1,12
 418 377 418 377 403 393.5 c 128,-1,13
 388 410 388 410 363.5 420 c 128,-1,14
 339 430 339 430 304 430 c 0,15,16
 256 430 256 430 212 411.5 c 128,-1,17
 168 393 168 393 134 372 c 1,18,-1
 102 428 l 1,19,20
 120 440 120 440 144.5 452.5 c 128,-1,21
 169 465 169 465 196.5 475 c 128,-1,22
 224 485 224 485 255 491.5 c 128,-1,23
 286 498 286 498 318 498 c 0,24,25
 418 498 418 498 466.5 443.5 c 128,-1,26
 515 389 515 389 515 298 c 2,27,-1
 515 0 l 1,28,-1
 448 0 l 1,29,-1
 441 66 l 1,30,-1
 438 66 l 1,31,32
 397 34 397 34 347.5 11 c 128,-1,33
 298 -12 298 -12 246 -12 c 0,0,1
268 54 m 0,34,35
 310 54 310 54 350.5 72.5 c 128,-1,36
 391 91 391 91 433 126 c 1,37,-1
 433 254 l 1,38,39
 355 248 355 248 302.5 237 c 128,-1,40
 250 226 250 226 218.5 210.5 c 128,-1,41
 187 195 187 195 174 175.5 c 128,-1,42
 161 156 161 156 161 132 c 0,43,44
 161 111 161 111 170 96.5 c 128,-1,45
 179 82 179 82 193.5 72.5 c 128,-1,46
 208 63 208 63 227.5 58.5 c 128,-1,47
 247 54 247 54 268 54 c 0,34,35
320 569 m 256,48,49
 268 569 268 569 239 596.5 c 128,-1,50
 210 624 210 624 210 665 c 0,51,52
 210 691 210 691 222 712 c 128,-1,53
 234 733 234 733 257 746 c 2,54,-1
 390 843 l 1,55,-1
 425 793 l 1,56,-1
 352 758 l 1,57,58
 389 750 389 750 409.5 724.5 c 128,-1,59
 430 699 430 699 430 665 c 0,60,61
 430 624 430 624 401 596.5 c 128,-1,62
 372 569 372 569 320 569 c 256,48,49
320 606 m 256,63,64
 344 606 344 606 360.5 623 c 128,-1,65
 377 640 377 640 377 665 c 0,66,67
 377 691 377 691 360.5 707.5 c 128,-1,68
 344 724 344 724 320 724 c 256,69,70
 296 724 296 724 279.5 707.5 c 128,-1,71
 263 691 263 691 263 665 c 0,72,73
 263 640 263 640 279.5 623 c 128,-1,74
 296 606 296 606 320 606 c 256,63,64
EndSplineSet
Substitution2: "'ss02' Style Set 2 lookup 0 subtable" aringacute.a
EndChar

StartChar: aogonek
Encoding: 261 261 268
Width: 600
GlyphClass: 2
Flags: W
AnchorPoint: "Anchor-0" 320 507 basechar 0
LayerCount: 2
Fore
SplineSet
456 -225 m 0,0,1
 412 -225 412 -225 382.5 -202.5 c 128,-1,2
 353 -180 353 -180 353 -132 c 0,3,4
 353 -87 353 -87 381 -53 c 128,-1,5
 409 -19 409 -19 448 5 c 1,6,-1
 441 66 l 1,7,-1
 438 66 l 1,8,9
 397 34 397 34 347.5 11 c 128,-1,10
 298 -12 298 -12 246 -12 c 0,11,12
 212 -12 212 -12 182 -2.5 c 128,-1,13
 152 7 152 7 129.5 24.5 c 128,-1,14
 107 42 107 42 94 67.5 c 128,-1,15
 81 93 81 93 81 126 c 0,16,17
 81 167 81 167 100.5 197.5 c 128,-1,18
 120 228 120 228 162.5 250 c 128,-1,19
 205 272 205 272 272 286 c 128,-1,20
 339 300 339 300 433 308 c 1,21,22
 432 333 432 333 425 355 c 128,-1,23
 418 377 418 377 403 393.5 c 128,-1,24
 388 410 388 410 363.5 420 c 128,-1,25
 339 430 339 430 304 430 c 0,26,27
 256 430 256 430 212 411.5 c 128,-1,28
 168 393 168 393 134 372 c 1,29,-1
 102 428 l 1,30,31
 120 440 120 440 144.5 452.5 c 128,-1,32
 169 465 169 465 196.5 475 c 128,-1,33
 224 485 224 485 255 491.5 c 128,-1,34
 286 498 286 498 318 498 c 0,35,36
 418 498 418 498 466.5 443.5 c 128,-1,37
 515 389 515 389 515 298 c 2,38,-1
 515 0 l 1,39,40
 461 -24 461 -24 437.5 -54.5 c 128,-1,41
 414 -85 414 -85 414 -116 c 0,42,43
 414 -145 414 -145 432 -158 c 128,-1,44
 450 -171 450 -171 473 -171 c 0,45,46
 490 -171 490 -171 503 -165 c 128,-1,47
 516 -159 516 -159 525 -150 c 1,48,-1
 549 -189 l 1,49,50
 532 -206 532 -206 508.5 -215.5 c 128,-1,51
 485 -225 485 -225 456 -225 c 0,0,1
268 54 m 0,52,53
 310 54 310 54 350.5 72.5 c 128,-1,54
 391 91 391 91 433 126 c 1,55,-1
 433 254 l 1,56,57
 355 248 355 248 302.5 237 c 128,-1,58
 250 226 250 226 218.5 210.5 c 128,-1,59
 187 195 187 195 174 175.5 c 128,-1,60
 161 156 161 156 161 132 c 0,61,62
 161 111 161 111 170 96.5 c 128,-1,63
 179 82 179 82 193.5 72.5 c 128,-1,64
 208 63 208 63 227.5 58.5 c 128,-1,65
 247 54 247 54 268 54 c 0,52,53
EndSplineSet
Ligature2: "'ccmp' Glyph Composition/Decomposition lookup 19 subtable" a uni0328
Substitution2: "'ss02' Style Set 2 lookup 0 subtable" aogonek.a
EndChar

StartChar: ae
Encoding: 230 230 281
Width: 600
GlyphClass: 2
Flags: W
AnchorPoint: "Anchor-3" 309 -20 basechar 0
AnchorPoint: "Anchor-2" 449 0 basechar 0
AnchorPoint: "Anchor-0" 316 507 basechar 0
LayerCount: 2
Fore
SplineSet
145 -12 m 0,0,1
 89 -12 89 -12 53 23 c 128,-1,2
 17 58 17 58 17 120 c 0,3,4
 17 194 17 194 75.5 239.5 c 128,-1,5
 134 285 134 285 266 302 c 1,6,7
 264 373 264 373 240 401.5 c 128,-1,8
 216 430 216 430 178 430 c 0,9,10
 148 430 148 430 117.5 418 c 128,-1,11
 87 406 87 406 64 390 c 1,12,-1
 33 446 l 1,13,14
 63 466 63 466 102.5 482 c 128,-1,15
 142 498 142 498 185 498 c 0,16,17
 229 498 229 498 260 475 c 128,-1,18
 291 452 291 452 308 398 c 1,19,20
 333 452 333 452 370 475 c 128,-1,21
 407 498 407 498 448 498 c 0,22,23
 486 498 486 498 514 480 c 128,-1,24
 542 462 542 462 560.5 431.5 c 128,-1,25
 579 401 579 401 588 361 c 128,-1,26
 597 321 597 321 597 276 c 0,27,28
 597 262 597 262 596 247.5 c 128,-1,29
 595 233 595 233 593 220 c 1,30,-1
 332 220 l 1,31,32
 336 143 336 143 368 99 c 128,-1,33
 400 55 400 55 457 55 c 0,34,35
 485 55 485 55 508.5 64 c 128,-1,36
 532 73 532 73 552 87 c 1,37,-1
 582 31 l 1,38,39
 557 13 557 13 524.5 0.5 c 128,-1,40
 492 -12 492 -12 454 -12 c 0,41,42
 403 -12 403 -12 365.5 10.5 c 128,-1,43
 328 33 328 33 304 75 c 1,44,45
 269 33 269 33 229.5 10.5 c 128,-1,46
 190 -12 190 -12 145 -12 c 0,0,1
167 54 m 0,47,48
 195 54 195 54 226 71.5 c 128,-1,49
 257 89 257 89 283 123 c 1,50,51
 266 177 266 177 266 242 c 2,52,-1
 266 249 l 1,53,54
 215 241 215 241 182 229.5 c 128,-1,55
 149 218 149 218 129 203 c 128,-1,56
 109 188 109 188 101 169 c 128,-1,57
 93 150 93 150 93 128 c 0,58,59
 93 93 93 93 113.5 73.5 c 128,-1,60
 134 54 134 54 167 54 c 0,47,48
443 433 m 0,61,62
 405 433 405 433 373 399 c 128,-1,63
 341 365 341 365 333 284 c 1,64,-1
 530 284 l 1,65,66
 526 433 526 433 443 433 c 0,61,62
EndSplineSet
EndChar

StartChar: uni0180
Encoding: 384 384 284
Width: 600
Flags: W
LayerCount: 2
Fore
SplineSet
320 -12 m 0,0,1
 285 -12 285 -12 244.5 5.5 c 128,-1,2
 204 23 204 23 169 54 c 1,3,-1
 166 54 l 1,4,-1
 159 0 l 1,5,-1
 93 0 l 1,6,-1
 93 562 l 1,7,-1
 20 562 l 1,8,-1
 20 621 l 1,9,-1
 93 626 l 1,10,-1
 93 712 l 1,11,-1
 175 712 l 1,12,-1
 175 626 l 1,13,-1
 388 626 l 1,14,-1
 388 562 l 1,15,-1
 175 562 l 1,16,-1
 175 495 l 1,17,-1
 172 404 l 1,18,-1
 175 404 l 1,19,20
 208 438 208 438 251.5 458 c 128,-1,21
 295 478 295 478 338 478 c 0,22,23
 387 478 387 478 425 461 c 128,-1,24
 463 444 463 444 488.5 413.5 c 128,-1,25
 514 383 514 383 527 339 c 128,-1,26
 540 295 540 295 540 241 c 0,27,28
 540 181 540 181 522 134 c 128,-1,29
 504 87 504 87 473.5 54.5 c 128,-1,30
 443 22 443 22 403 5 c 128,-1,31
 363 -12 363 -12 320 -12 c 0,0,1
307 57 m 0,32,33
 371 57 371 57 413 105.5 c 128,-1,34
 455 154 455 154 455 240 c 0,35,36
 455 316 455 316 423 362.5 c 128,-1,37
 391 409 391 409 318 409 c 0,38,39
 286 409 286 409 249.5 391.5 c 128,-1,40
 213 374 213 374 175 336 c 1,41,-1
 175 114 l 1,42,43
 210 83 210 83 245.5 70 c 128,-1,44
 281 57 281 57 307 57 c 0,32,33
EndSplineSet
EndChar

StartChar: dcaron
Encoding: 271 271 291
Width: 600
GlyphClass: 3
Flags: W
LayerCount: 2
Fore
SplineSet
254 -12 m 0,0,1
 209 -12 209 -12 172 5 c 128,-1,2
 135 22 135 22 109 54.5 c 128,-1,3
 83 87 83 87 68.5 134 c 128,-1,4
 54 181 54 181 54 242 c 0,5,6
 54 301 54 301 71.5 348.5 c 128,-1,7
 89 396 89 396 118 429 c 128,-1,8
 147 462 147 462 185 480 c 128,-1,9
 223 498 223 498 264 498 c 0,10,11
 306 498 306 498 338 481 c 128,-1,12
 370 464 370 464 402 435 c 1,13,-1
 405 435 l 1,14,-1
 400 525 l 1,15,-1
 400 712 l 1,16,-1
 479 712 l 1,17,-1
 479 0 l 1,18,-1
 415 0 l 1,19,-1
 408 64 l 1,20,-1
 405 64 l 1,21,22
 376 34 376 34 337 11 c 128,-1,23
 298 -12 298 -12 254 -12 c 0,0,1
271 57 m 0,24,25
 336 57 336 57 400 130 c 1,26,-1
 400 372 l 1,27,28
 368 402 368 402 339 415.5 c 128,-1,29
 310 429 310 429 280 429 c 256,30,31
 250 429 250 429 223.5 415.5 c 128,-1,32
 197 402 197 402 177.5 377.5 c 128,-1,33
 158 353 158 353 146.5 319 c 128,-1,34
 135 285 135 285 135 243 c 0,35,36
 135 155 135 155 171 106 c 128,-1,37
 207 57 207 57 271 57 c 0,24,25
548 548 m 1,38,-1
 545 816 l 1,39,-1
 619 816 l 1,40,-1
 619 735 l 1,41,-1
 605 548 l 1,42,-1
 548 548 l 1,38,-1
EndSplineSet
Ligature2: "'ccmp' Glyph Composition/Decomposition lookup 19 subtable" d uni030C
EndChar

StartChar: dcroat
Encoding: 273 273 295
Width: 600
GlyphClass: 2
Flags: W
AnchorPoint: "Anchor-3" 304 -20 basechar 0
AnchorPoint: "Anchor-0" 459 736 basechar 0
LayerCount: 2
Fore
SplineSet
271 -12 m 0,0,1
 223 -12 223 -12 184.5 4 c 128,-1,2
 146 20 146 20 118 51.5 c 128,-1,3
 90 83 90 83 75 128 c 128,-1,4
 60 173 60 173 60 232 c 0,5,6
 60 289 60 289 78.5 334.5 c 128,-1,7
 97 380 97 380 127.5 412 c 128,-1,8
 158 444 158 444 198 461 c 128,-1,9
 238 478 238 478 281 478 c 0,10,11
 326 478 326 478 360 461 c 128,-1,12
 394 444 394 444 426 415 c 1,13,-1
 429 415 l 1,14,-1
 425 505 l 1,15,-1
 425 562 l 1,16,-1
 250 562 l 1,17,-1
 250 626 l 1,18,-1
 425 626 l 1,19,-1
 425 712 l 1,20,-1
 507 712 l 1,21,-1
 507 626 l 1,22,-1
 580 626 l 1,23,-1
 580 568 l 1,24,-1
 507 562 l 1,25,-1
 507 0 l 1,26,-1
 439 0 l 1,27,-1
 432 64 l 1,28,-1
 429 64 l 1,29,30
 399 33 399 33 357.5 10.5 c 128,-1,31
 316 -12 316 -12 271 -12 c 0,0,1
288 57 m 0,32,33
 360 57 360 57 425 130 c 1,34,-1
 425 352 l 1,35,36
 392 383 392 383 360.5 396 c 128,-1,37
 329 409 329 409 298 409 c 0,38,39
 266 409 266 409 238 396 c 128,-1,40
 210 383 210 383 189.5 360 c 128,-1,41
 169 337 169 337 157 304.5 c 128,-1,42
 145 272 145 272 145 233 c 0,43,44
 145 150 145 150 182.5 103.5 c 128,-1,45
 220 57 220 57 288 57 c 0,32,33
EndSplineSet
EndChar

StartChar: eogonek
Encoding: 281 281 303
Width: 600
GlyphClass: 2
Flags: W
AnchorPoint: "Anchor-0" 314 507 basechar 0
LayerCount: 2
Fore
SplineSet
422 -225 m 0,0,1
 377 -225 377 -225 348 -202.5 c 128,-1,2
 319 -180 319 -180 319 -132 c 0,3,4
 319 -92 319 -92 340.5 -61 c 128,-1,5
 362 -30 362 -30 395 -1 c 1,6,7
 369 -10 369 -10 353.5 -11 c 128,-1,8
 338 -12 338 -12 330 -12 c 0,9,10
 275 -12 275 -12 227.5 5 c 128,-1,11
 180 22 180 22 144.5 55 c 128,-1,12
 109 88 109 88 88.5 135 c 128,-1,13
 68 182 68 182 68 242 c 256,14,15
 68 302 68 302 88.5 349.5 c 128,-1,16
 109 397 109 397 143.5 430 c 128,-1,17
 178 463 178 463 222.5 480.5 c 128,-1,18
 267 498 267 498 316 498 c 0,19,20
 368 498 368 498 409.5 481.5 c 128,-1,21
 451 465 451 465 479.5 435 c 128,-1,22
 508 405 508 405 523 363 c 128,-1,23
 538 321 538 321 538 270 c 0,24,25
 538 256 538 256 537 243 c 128,-1,26
 536 230 536 230 534 220 c 1,27,-1
 151 220 l 1,28,29
 159 137 159 137 211.5 95.5 c 128,-1,30
 264 54 264 54 340 54 c 0,31,32
 384 54 384 54 419.5 66.5 c 128,-1,33
 455 79 455 79 488 100 c 1,34,-1
 518 46 l 1,35,36
 480 19 480 19 453.5 -2.5 c 128,-1,37
 427 -24 427 -24 410.5 -42.5 c 128,-1,38
 394 -61 394 -61 387 -79 c 128,-1,39
 380 -97 380 -97 380 -116 c 0,40,41
 380 -144 380 -144 398 -157.5 c 128,-1,42
 416 -171 416 -171 439 -171 c 0,43,44
 456 -171 456 -171 469 -165 c 128,-1,45
 482 -159 482 -159 492 -150 c 1,46,-1
 516 -189 l 1,47,48
 498 -206 498 -206 474.5 -215.5 c 128,-1,49
 451 -225 451 -225 422 -225 c 0,0,1
318 433 m 0,50,51
 288 433 288 433 260.5 423 c 128,-1,52
 233 413 233 413 211 394.5 c 128,-1,53
 189 376 189 376 174 348 c 128,-1,54
 159 320 159 320 153 284 c 1,55,-1
 463 284 l 1,56,57
 458 359 458 359 419.5 396 c 128,-1,58
 381 433 381 433 318 433 c 0,50,51
EndSplineSet
Ligature2: "'ccmp' Glyph Composition/Decomposition lookup 19 subtable" e uni0328
EndChar

StartChar: hbar
Encoding: 295 295 328
Width: 600
Flags: W
LayerCount: 2
Fore
SplineSet
93 0 m 1,0,-1
 93 562 l 1,1,-1
 20 562 l 1,2,-1
 20 620 l 1,3,-1
 93 626 l 1,4,-1
 93 712 l 1,5,-1
 175 712 l 1,6,-1
 175 626 l 1,7,-1
 388 626 l 1,8,-1
 388 562 l 1,9,-1
 175 562 l 1,10,-1
 175 498 l 1,11,-1
 170 383 l 1,12,-1
 173 383 l 1,13,14
 211 424 211 424 254.5 451 c 128,-1,15
 298 478 298 478 355 478 c 0,16,17
 442 478 442 478 482.5 428.5 c 128,-1,18
 523 379 523 379 523 282 c 2,19,-1
 523 0 l 1,20,-1
 441 0 l 1,21,-1
 441 271 l 2,22,23
 441 340 441 340 415 373.5 c 128,-1,24
 389 407 389 407 329 407 c 0,25,26
 307 407 307 407 288.5 401.5 c 128,-1,27
 270 396 270 396 252 385 c 128,-1,28
 234 374 234 374 215 357.5 c 128,-1,29
 196 341 196 341 175 319 c 1,30,-1
 175 0 l 1,31,-1
 93 0 l 1,0,-1
EndSplineSet
EndChar

StartChar: dotlessi
Encoding: 305 305 340
Width: 600
GlyphClass: 2
Flags: W
AnchorPoint: "Anchor-6" 356 0 basechar 0
AnchorPoint: "Anchor-3" 348 -20 basechar 0
AnchorPoint: "Anchor-2" 354 0 basechar 0
AnchorPoint: "Anchor-0" 348 507 basechar 0
LayerCount: 2
Fore
SplineSet
316 0 m 1,0,-1
 316 419 l 1,1,-1
 90 419 l 1,2,-1
 90 486 l 1,3,-1
 398 486 l 1,4,-1
 398 0 l 1,5,-1
 316 0 l 1,0,-1
EndSplineSet
Substitution2: "'ss04' Style Set 4 lookup 2 subtable" dotlessi.a
EndChar

StartChar: kgreenlandic
Encoding: 312 312 345
Width: 600
Flags: W
LayerCount: 2
Fore
SplineSet
106 0 m 1,0,-1
 106 486 l 1,1,-1
 188 486 l 1,2,-1
 188 230 l 1,3,-1
 191 231 l 1,4,-1
 454 486 l 1,5,-1
 548 486 l 1,6,-1
 354 293 l 1,7,-1
 574 0 l 1,8,-1
 482 0 l 1,9,-1
 303 240 l 1,10,-1
 188 130 l 1,11,-1
 188 0 l 1,12,-1
 106 0 l 1,0,-1
EndSplineSet
EndChar

StartChar: lslash
Encoding: 322 322 352
Width: 600
GlyphClass: 2
Flags: W
AnchorPoint: "Anchor-3" 385 -20 basechar 0
AnchorPoint: "Anchor-0" 285 736 basechar 0
LayerCount: 2
Fore
SplineSet
407 -12 m 0,0,1
 329 -12 329 -12 288 32 c 128,-1,2
 247 76 247 76 247 163 c 2,3,-1
 247 335 l 1,4,-1
 139 271 l 1,5,-1
 110 325 l 1,6,-1
 247 405 l 1,7,-1
 247 645 l 1,8,-1
 74 645 l 1,9,-1
 74 712 l 1,10,-1
 329 712 l 1,11,-1
 329 443 l 1,12,-1
 477 527 l 1,13,-1
 505 473 l 1,14,-1
 329 373 l 1,15,-1
 329 157 l 2,16,17
 329 103 329 103 355 79.5 c 128,-1,18
 381 56 381 56 425 56 c 0,19,20
 468 56 468 56 516 78 c 1,21,-1
 537 17 l 1,22,23
 503 3 503 3 475 -4.5 c 128,-1,24
 447 -12 447 -12 407 -12 c 0,0,1
EndSplineSet
Substitution2: "'ss04' Style Set 4 lookup 2 subtable" lslash.a
EndChar

StartChar: napostrophe
Encoding: 329 329 365
Width: 600
Flags: W
LayerCount: 2
Fore
SplineSet
196 0 m 1,0,-1
 196 486 l 1,1,-1
 264 486 l 1,2,-1
 271 410 l 1,3,-1
 275 410 l 1,4,5
 310 447 310 447 350 472.5 c 128,-1,6
 390 498 390 498 443 498 c 0,7,8
 522 498 522 498 560 450 c 128,-1,9
 598 402 598 402 598 308 c 2,10,-1
 598 0 l 1,11,-1
 515 0 l 1,12,-1
 515 297 l 2,13,14
 515 363 515 363 492 395 c 128,-1,15
 469 427 469 427 417 427 c 0,16,17
 378 427 378 427 347.5 406.5 c 128,-1,18
 317 386 317 386 278 346 c 1,19,-1
 278 0 l 1,20,-1
 196 0 l 1,0,-1
6 350 m 1,21,-1
 -22 398 l 1,22,23
 25 424 25 424 52 463.5 c 128,-1,24
 79 503 79 503 82 556 c 1,25,26
 70 550 70 550 56 550 c 0,27,28
 24 550 24 550 4.5 569.5 c 128,-1,29
 -15 589 -15 589 -15 621 c 0,30,31
 -15 656 -15 656 6 677.5 c 128,-1,32
 27 699 27 699 59 699 c 0,33,34
 99 699 99 699 124 667 c 128,-1,35
 149 635 149 635 149 578 c 0,36,37
 149 503 149 503 111 444 c 128,-1,38
 73 385 73 385 6 350 c 1,21,-1
EndSplineSet
EndChar

StartChar: uni01EB
Encoding: 491 491 374
Width: 600
GlyphClass: 2
Flags: W
AnchorPoint: "Anchor-0" 300 507 basechar 0
LayerCount: 2
Fore
SplineSet
324 -225 m 0,0,1
 281 -225 281 -225 252 -202.5 c 128,-1,2
 223 -180 223 -180 223 -132 c 0,3,4
 223 -93 223 -93 244 -62.5 c 128,-1,5
 265 -32 265 -32 291 -11 c 1,6,7
 241 -9 241 -9 198.5 10 c 128,-1,8
 156 29 156 29 125.5 61.5 c 128,-1,9
 95 94 95 94 77.5 140 c 128,-1,10
 60 186 60 186 60 242 c 0,11,12
 60 303 60 303 79.5 350.5 c 128,-1,13
 99 398 99 398 132 431 c 128,-1,14
 165 464 165 464 208.5 481 c 128,-1,15
 252 498 252 498 300 498 c 256,16,17
 348 498 348 498 391.5 481 c 128,-1,18
 435 464 435 464 468 431 c 128,-1,19
 501 398 501 398 520.5 350.5 c 128,-1,20
 540 303 540 303 540 242 c 0,21,22
 540 191 540 191 528 153 c 128,-1,23
 516 115 516 115 493.5 86 c 128,-1,24
 471 57 471 57 439.5 35.5 c 128,-1,25
 408 14 408 14 369 -3 c 0,26,27
 328 -21 328 -21 306 -53 c 128,-1,28
 284 -85 284 -85 284 -116 c 0,29,30
 284 -145 284 -145 302 -158 c 128,-1,31
 320 -171 320 -171 341 -171 c 0,32,33
 360 -171 360 -171 373 -164.5 c 128,-1,34
 386 -158 386 -158 395 -150 c 1,35,-1
 419 -189 l 1,36,37
 402 -205 402 -205 378.5 -215 c 128,-1,38
 355 -225 355 -225 324 -225 c 0,0,1
300 55 m 256,39,40
 335 55 335 55 363.5 68.5 c 128,-1,41
 392 82 392 82 412.5 106.5 c 128,-1,42
 433 131 433 131 444 165.5 c 128,-1,43
 455 200 455 200 455 242 c 256,44,45
 455 284 455 284 444 318.5 c 128,-1,46
 433 353 433 353 412.5 378 c 128,-1,47
 392 403 392 403 363.5 416.5 c 128,-1,48
 335 430 335 430 300 430 c 256,49,50
 265 430 265 430 236.5 416.5 c 128,-1,51
 208 403 208 403 187.5 378 c 128,-1,52
 167 353 167 353 156 318.5 c 128,-1,53
 145 284 145 284 145 242 c 256,54,55
 145 200 145 200 156 165.5 c 128,-1,56
 167 131 167 131 187.5 106.5 c 128,-1,57
 208 82 208 82 236.5 68.5 c 128,-1,58
 265 55 265 55 300 55 c 256,39,40
EndSplineSet
Ligature2: "'ccmp' Glyph Composition/Decomposition lookup 19 subtable" o uni0328
EndChar

StartChar: ohorn
Encoding: 417 417 384
Width: 600
GlyphClass: 2
Flags: W
AnchorPoint: "Anchor-3" 300 -20 basechar 0
AnchorPoint: "Anchor-0" 300 507 basechar 0
LayerCount: 2
Fore
SplineSet
300 -12 m 256,0,1
 252 -12 252 -12 208.5 5 c 128,-1,2
 165 22 165 22 132 54.5 c 128,-1,3
 99 87 99 87 79.5 134.5 c 128,-1,4
 60 182 60 182 60 242 c 0,5,6
 60 303 60 303 79.5 350.5 c 128,-1,7
 99 398 99 398 132 431 c 128,-1,8
 165 464 165 464 208.5 481 c 128,-1,9
 252 498 252 498 300 498 c 0,10,11
 354 498 354 498 401 477 c 1,12,13
 443 486 443 486 465 509.5 c 128,-1,14
 487 533 487 533 487 576 c 0,15,16
 487 591 487 591 483.5 606.5 c 128,-1,17
 480 622 480 622 472 634 c 1,18,-1
 536 664 l 1,19,20
 547 647 547 647 553 626 c 128,-1,21
 559 605 559 605 559 582 c 0,22,23
 559 553 559 553 550.5 530.5 c 128,-1,24
 542 508 542 508 527.5 491.5 c 128,-1,25
 513 475 513 475 493.5 463.5 c 128,-1,26
 474 452 474 452 452 445 c 1,27,28
 492 413 492 413 516 362 c 128,-1,29
 540 311 540 311 540 242 c 0,30,31
 540 182 540 182 520.5 134.5 c 128,-1,32
 501 87 501 87 468 54.5 c 128,-1,33
 435 22 435 22 391.5 5 c 128,-1,34
 348 -12 348 -12 300 -12 c 256,0,1
300 56 m 256,35,36
 335 56 335 56 363.5 69.5 c 128,-1,37
 392 83 392 83 412.5 107.5 c 128,-1,38
 433 132 433 132 444 166 c 128,-1,39
 455 200 455 200 455 242 c 256,40,41
 455 284 455 284 444 318.5 c 128,-1,42
 433 353 433 353 412.5 378 c 128,-1,43
 392 403 392 403 363.5 416.5 c 128,-1,44
 335 430 335 430 300 430 c 256,45,46
 265 430 265 430 236.5 416.5 c 128,-1,47
 208 403 208 403 187.5 378 c 128,-1,48
 167 353 167 353 156 318.5 c 128,-1,49
 145 284 145 284 145 242 c 256,50,51
 145 200 145 200 156 166 c 128,-1,52
 167 132 167 132 187.5 107.5 c 128,-1,53
 208 83 208 83 236.5 69.5 c 128,-1,54
 265 56 265 56 300 56 c 256,35,36
EndSplineSet
EndChar

StartChar: oslash
Encoding: 248 248 390
Width: 600
GlyphClass: 2
Flags: W
AnchorPoint: "Anchor-3" 300 -20 basechar 0
AnchorPoint: "Anchor-2" 300 0 basechar 0
AnchorPoint: "Anchor-0" 300 507 basechar 0
LayerCount: 2
Fore
SplineSet
300 -12 m 0,0,1
 221 -12 221 -12 160 31 c 1,2,-1
 108 -30 l 1,3,-1
 62 12 l 1,4,-1
 115 74 l 1,5,6
 89 106 89 106 74.5 148 c 128,-1,7
 60 190 60 190 60 242 c 0,8,9
 60 303 60 303 79.5 350.5 c 128,-1,10
 99 398 99 398 132 431 c 128,-1,11
 165 464 165 464 208.5 481 c 128,-1,12
 252 498 252 498 300 498 c 0,13,14
 379 498 379 498 440 455 c 1,15,-1
 492 516 l 1,16,-1
 538 474 l 1,17,-1
 485 412 l 1,18,19
 511 380 511 380 525.5 337.5 c 128,-1,20
 540 295 540 295 540 242 c 0,21,22
 540 182 540 182 520.5 134.5 c 128,-1,23
 501 87 501 87 468 54.5 c 128,-1,24
 435 22 435 22 391.5 5 c 128,-1,25
 348 -12 348 -12 300 -12 c 0,0,1
145 242 m 0,26,27
 145 182 145 182 168 136 c 1,28,-1
 392 399 l 1,29,30
 354 432 354 432 300 432 c 0,31,32
 265 432 265 432 236.5 418 c 128,-1,33
 208 404 208 404 187.5 379 c 128,-1,34
 167 354 167 354 156 319 c 128,-1,35
 145 284 145 284 145 242 c 0,26,27
300 54 m 0,36,37
 335 54 335 54 363.5 68 c 128,-1,38
 392 82 392 82 412.5 106.5 c 128,-1,39
 433 131 433 131 444 165.5 c 128,-1,40
 455 200 455 200 455 242 c 0,41,42
 455 305 455 305 432 349 c 1,43,-1
 207 86 l 1,44,45
 226 71 226 71 249.5 62.5 c 128,-1,46
 273 54 273 54 300 54 c 0,36,37
EndSplineSet
EndChar

StartChar: oe
Encoding: 339 339 392
Width: 600
GlyphClass: 2
Flags: W
AnchorPoint: "Anchor-3" 309 -20 basechar 0
AnchorPoint: "Anchor-2" 455 0 basechar 0
AnchorPoint: "Anchor-0" 318 507 basechar 0
LayerCount: 2
Fore
SplineSet
188 56 m 0,0,1
 210 56 210 56 227.5 69.5 c 128,-1,2
 245 83 245 83 257.5 108 c 128,-1,3
 270 133 270 133 277 167 c 128,-1,4
 284 201 284 201 284 243 c 256,5,6
 284 285 284 285 277 319 c 128,-1,7
 270 353 270 353 257.5 378 c 128,-1,8
 245 403 245 403 227.5 416.5 c 128,-1,9
 210 430 210 430 188 430 c 0,10,11
 139 430 139 430 113.5 378.5 c 128,-1,12
 88 327 88 327 88 242 c 0,13,14
 88 158 88 158 113.5 107 c 128,-1,15
 139 56 139 56 188 56 c 0,0,1
183 -12 m 0,16,17
 146 -12 146 -12 114.5 5 c 128,-1,18
 83 22 83 22 60 54.5 c 128,-1,19
 37 87 37 87 24 134.5 c 128,-1,20
 11 182 11 182 11 242 c 0,21,22
 11 303 11 303 24 350.5 c 128,-1,23
 37 398 37 398 60.5 431 c 128,-1,24
 84 464 84 464 115.5 481 c 128,-1,25
 147 498 147 498 184 498 c 0,26,27
 230 498 230 498 262.5 469 c 128,-1,28
 295 440 295 440 315 378 c 1,29,30
 335 440 335 440 370.5 469 c 128,-1,31
 406 498 406 498 453 498 c 0,32,33
 489 498 489 498 516 480 c 128,-1,34
 543 462 543 462 561 432 c 128,-1,35
 579 402 579 402 588 361.5 c 128,-1,36
 597 321 597 321 597 276 c 0,37,38
 597 262 597 262 596 247.5 c 128,-1,39
 595 233 595 233 593 220 c 1,40,-1
 347 220 l 1,41,42
 352 136 352 136 384.5 95.5 c 128,-1,43
 417 55 417 55 466 55 c 0,44,45
 492 55 492 55 512 64 c 128,-1,46
 532 73 532 73 552 87 c 1,47,-1
 582 31 l 1,48,49
 559 13 559 13 528.5 0.5 c 128,-1,50
 498 -12 498 -12 463 -12 c 0,51,52
 414 -12 414 -12 375 16 c 128,-1,53
 336 44 336 44 316 105 c 1,54,55
 295 44 295 44 262 16 c 128,-1,56
 229 -12 229 -12 183 -12 c 0,16,17
446 433 m 0,57,58
 407 433 407 433 380 396 c 128,-1,59
 353 359 353 359 348 284 c 1,60,-1
 530 284 l 1,61,62
 526 433 526 433 446 433 c 0,57,58
EndSplineSet
EndChar

StartChar: germandbls
Encoding: 223 223 407
Width: 600
Flags: W
LayerCount: 2
Fore
SplineSet
401 -12 m 0,0,1
 359 -12 359 -12 324 0 c 128,-1,2
 289 12 289 12 257 33 c 1,3,-1
 290 91 l 1,4,5
 318 71 318 71 344 61.5 c 128,-1,6
 370 52 370 52 399 52 c 0,7,8
 441 52 441 52 463.5 75.5 c 128,-1,9
 486 99 486 99 486 130 c 0,10,11
 486 159 486 159 471 178 c 128,-1,12
 456 197 456 197 433.5 211.5 c 128,-1,13
 411 226 411 226 385 238.5 c 128,-1,14
 359 251 359 251 336.5 267.5 c 128,-1,15
 314 284 314 284 299 306.5 c 128,-1,16
 284 329 284 329 284 364 c 0,17,18
 284 398 284 398 298 422.5 c 128,-1,19
 312 447 312 447 329 469.5 c 128,-1,20
 346 492 346 492 360 515.5 c 128,-1,21
 374 539 374 539 374 571 c 0,22,23
 374 608 374 608 352 632.5 c 128,-1,24
 330 657 330 657 288 657 c 0,25,26
 233 657 233 657 201.5 619.5 c 128,-1,27
 170 582 170 582 170 507 c 2,28,-1
 170 0 l 1,29,-1
 88 0 l 1,30,-1
 88 519 l 2,31,32
 88 565 88 565 102 603 c 128,-1,33
 116 641 116 641 142 668 c 128,-1,34
 168 695 168 695 205 709.5 c 128,-1,35
 242 724 242 724 289 724 c 0,36,37
 329 724 329 724 359.5 712 c 128,-1,38
 390 700 390 700 411 679.5 c 128,-1,39
 432 659 432 659 442.5 632.5 c 128,-1,40
 453 606 453 606 453 576 c 0,41,42
 453 538 453 538 439 511.5 c 128,-1,43
 425 485 425 485 408 463 c 128,-1,44
 391 441 391 441 377 420.5 c 128,-1,45
 363 400 363 400 363 374 c 0,46,47
 363 350 363 350 378 334 c 128,-1,48
 393 318 393 318 415 304.5 c 128,-1,49
 437 291 437 291 463.5 278 c 128,-1,50
 490 265 490 265 512 247 c 128,-1,51
 534 229 534 229 549 202.5 c 128,-1,52
 564 176 564 176 564 137 c 0,53,54
 564 105 564 105 552.5 78 c 128,-1,55
 541 51 541 51 519.5 31 c 128,-1,56
 498 11 498 11 468 -0.5 c 128,-1,57
 438 -12 438 -12 401 -12 c 0,0,1
EndSplineSet
EndChar

StartChar: longs
Encoding: 383 383 408
Width: 600
Flags: W
LayerCount: 2
Fore
SplineSet
242 0 m 1,0,-1
 242 419 l 1,1,-1
 103 419 l 1,2,-1
 103 481 l 1,3,-1
 242 486 l 1,4,-1
 242 527 l 2,5,6
 242 616 242 616 289.5 670 c 128,-1,7
 337 724 337 724 438 724 c 0,8,9
 510 724 510 724 578 696 c 1,10,-1
 559 634 l 1,11,12
 529 648 529 648 503.5 652.5 c 128,-1,13
 478 657 478 657 446 657 c 0,14,15
 380 657 380 657 351.5 623.5 c 128,-1,16
 323 590 323 590 323 530 c 2,17,-1
 323 0 l 1,18,-1
 242 0 l 1,0,-1
EndSplineSet
EndChar

StartChar: tbar
Encoding: 359 359 415
Width: 600
GlyphClass: 2
Flags: W
AnchorPoint: "Anchor-3" 380 -20 basechar 0
AnchorPoint: "Anchor-0" 256 643 basechar 0
LayerCount: 2
Fore
SplineSet
70 220 m 1,0,-1
 70 278 l 1,1,-1
 206 284 l 1,2,-1
 206 419 l 1,3,-1
 69 419 l 1,4,-1
 69 481 l 1,5,-1
 209 486 l 1,6,-1
 220 642 l 1,7,-1
 288 642 l 1,8,-1
 288 486 l 1,9,-1
 527 486 l 1,10,-1
 527 419 l 1,11,-1
 288 419 l 1,12,-1
 288 284 l 1,13,-1
 508 284 l 1,14,-1
 508 220 l 1,15,-1
 288 220 l 1,16,-1
 288 188 l 2,17,18
 288 155 288 155 294 130.5 c 128,-1,19
 300 106 300 106 314 89 c 128,-1,20
 328 72 328 72 352 63.5 c 128,-1,21
 376 55 376 55 411 55 c 256,22,23
 446 55 446 55 474 61 c 128,-1,24
 502 67 502 67 528 77 c 1,25,-1
 546 17 l 1,26,27
 513 5 513 5 476.5 -3.5 c 128,-1,28
 440 -12 440 -12 394 -12 c 0,29,30
 341 -12 341 -12 305 2.5 c 128,-1,31
 269 17 269 17 247 43.5 c 128,-1,32
 225 70 225 70 215.5 107 c 128,-1,33
 206 144 206 144 206 189 c 2,34,-1
 206 220 l 1,35,-1
 70 220 l 1,0,-1
EndSplineSet
EndChar

StartChar: uogonek
Encoding: 371 371 426
Width: 600
GlyphClass: 2
Flags: W
AnchorPoint: "Anchor-0" 295 507 basechar 0
LayerCount: 2
Fore
SplineSet
446 -225 m 0,0,1
 402 -225 402 -225 372.5 -202.5 c 128,-1,2
 343 -180 343 -180 343 -132 c 0,3,4
 343 -89 343 -89 371 -56.5 c 128,-1,5
 399 -24 399 -24 438 0 c 1,6,-1
 431 85 l 1,7,-1
 427 85 l 1,8,9
 390 42 390 42 346.5 15 c 128,-1,10
 303 -12 303 -12 246 -12 c 0,11,12
 158 -12 158 -12 117.5 37.5 c 128,-1,13
 77 87 77 87 77 184 c 2,14,-1
 77 486 l 1,15,-1
 160 486 l 1,16,-1
 160 195 l 2,17,18
 160 126 160 126 185.5 92.5 c 128,-1,19
 211 59 211 59 272 59 c 0,20,21
 314 59 314 59 348 80.5 c 128,-1,22
 382 102 382 102 423 149 c 1,23,-1
 423 486 l 1,24,-1
 505 486 l 1,25,-1
 505 -5 l 1,26,27
 451 -29 451 -29 427.5 -58 c 128,-1,28
 404 -87 404 -87 404 -116 c 0,29,30
 404 -144 404 -144 422 -157.5 c 128,-1,31
 440 -171 440 -171 463 -171 c 0,32,33
 480 -171 480 -171 493 -165 c 128,-1,34
 506 -159 506 -159 515 -150 c 1,35,-1
 539 -189 l 1,36,37
 522 -206 522 -206 498.5 -215.5 c 128,-1,38
 475 -225 475 -225 446 -225 c 0,0,1
EndSplineSet
Ligature2: "'ccmp' Glyph Composition/Decomposition lookup 19 subtable" u uni0328
EndChar

StartChar: uhorn
Encoding: 432 432 433
Width: 600
GlyphClass: 2
Flags: W
AnchorPoint: "Anchor-3" 300 -20 basechar 0
AnchorPoint: "Anchor-0" 295 507 basechar 0
LayerCount: 2
Fore
SplineSet
246 -12 m 0,0,1
 158 -12 158 -12 117.5 37.5 c 128,-1,2
 77 87 77 87 77 184 c 2,3,-1
 77 486 l 1,4,-1
 160 486 l 1,5,-1
 160 195 l 2,6,7
 160 126 160 126 185.5 92.5 c 128,-1,8
 211 59 211 59 272 59 c 0,9,10
 314 59 314 59 348 80.5 c 128,-1,11
 382 102 382 102 423 149 c 1,12,-1
 423 486 l 1,13,-1
 439 486 l 2,14,15
 457 489 457 489 472.5 495 c 128,-1,16
 488 501 488 501 500 512 c 128,-1,17
 512 523 512 523 518.5 540 c 128,-1,18
 525 557 525 557 525 582 c 0,19,20
 525 597 525 597 522 612.5 c 128,-1,21
 519 628 519 628 511 640 c 1,22,-1
 575 670 l 1,23,24
 586 653 586 653 592 632 c 128,-1,25
 598 611 598 611 598 588 c 0,26,27
 598 559 598 559 590 537.5 c 128,-1,28
 582 516 582 516 569 500.5 c 128,-1,29
 556 485 556 485 539.5 474.5 c 128,-1,30
 523 464 523 464 505 457 c 1,31,-1
 505 0 l 1,32,-1
 438 0 l 1,33,-1
 431 85 l 1,34,-1
 427 85 l 1,35,36
 390 42 390 42 346.5 15 c 128,-1,37
 303 -12 303 -12 246 -12 c 0,0,1
EndSplineSet
EndChar

StartChar: eth
Encoding: 240 240 458
Width: 600
GlyphClass: 2
Flags: W
AnchorPoint: "Anchor-3" 306 -20 basechar 0
AnchorPoint: "Anchor-0" 330 736 basechar 0
LayerCount: 2
Fore
SplineSet
298 -12 m 0,0,1
 251 -12 251 -12 208 4 c 128,-1,2
 165 20 165 20 132 50.5 c 128,-1,3
 99 81 99 81 79.5 124.5 c 128,-1,4
 60 168 60 168 60 222 c 0,5,6
 60 273 60 273 77 314.5 c 128,-1,7
 94 356 94 356 124.5 385.5 c 128,-1,8
 155 415 155 415 196.5 431 c 128,-1,9
 238 447 238 447 288 447 c 0,10,11
 335 447 335 447 377 426 c 128,-1,12
 419 405 419 405 447 367 c 1,13,14
 433 433 433 433 404.5 483 c 128,-1,15
 376 533 376 533 332 572 c 1,16,-1
 180 494 l 1,17,-1
 150 546 l 1,18,-1
 280 612 l 1,19,20
 254 630 254 630 225.5 646 c 128,-1,21
 197 662 197 662 165 678 c 1,22,-1
 203 730 l 1,23,24
 241 712 241 712 277.5 691.5 c 128,-1,25
 314 671 314 671 347 646 c 1,26,-1
 484 716 l 1,27,-1
 514 666 l 1,28,-1
 396 605 l 1,29,30
 459 544 459 544 497.5 460 c 128,-1,31
 536 376 536 376 536 257 c 0,32,33
 536 197 536 197 519.5 147.5 c 128,-1,34
 503 98 503 98 472 62.5 c 128,-1,35
 441 27 441 27 397 7.5 c 128,-1,36
 353 -12 353 -12 298 -12 c 0,0,1
300 56 m 0,37,38
 340 56 340 56 369.5 70.5 c 128,-1,39
 399 85 399 85 418.5 111.5 c 128,-1,40
 438 138 438 138 447.5 174 c 128,-1,41
 457 210 457 210 457 254 c 0,42,43
 457 265 457 265 457 276 c 128,-1,44
 457 287 457 287 456 298 c 1,45,46
 421 345 421 345 380 364 c 128,-1,47
 339 383 339 383 300 383 c 0,48,49
 260 383 260 383 229.5 371 c 128,-1,50
 199 359 199 359 178.5 337 c 128,-1,51
 158 315 158 315 147.5 285.5 c 128,-1,52
 137 256 137 256 137 222 c 0,53,54
 137 184 137 184 150 153.5 c 128,-1,55
 163 123 163 123 185 101.5 c 128,-1,56
 207 80 207 80 237 68 c 128,-1,57
 267 56 267 56 300 56 c 0,37,38
EndSplineSet
EndChar

StartChar: thorn
Encoding: 254 254 459
Width: 600
GlyphClass: 2
Flags: W
AnchorPoint: "Anchor-3" 137 -219 basechar 0
AnchorPoint: "Anchor-0" 137 736 basechar 0
LayerCount: 2
Fore
SplineSet
93 -205 m 1,0,-1
 93 712 l 1,1,-1
 175 712 l 1,2,-1
 175 511 l 1,3,-1
 172 424 l 1,4,-1
 175 424 l 1,5,6
 209 458 209 458 251.5 478 c 128,-1,7
 294 498 294 498 337 498 c 0,8,9
 386 498 386 498 424 480.5 c 128,-1,10
 462 463 462 463 487.5 430.5 c 128,-1,11
 513 398 513 398 526.5 352.5 c 128,-1,12
 540 307 540 307 540 250 c 0,13,14
 540 188 540 188 521.5 139.5 c 128,-1,15
 503 91 503 91 472.5 57 c 128,-1,16
 442 23 442 23 402 5.5 c 128,-1,17
 362 -12 362 -12 319 -12 c 0,18,19
 283 -12 283 -12 245 5 c 128,-1,20
 207 22 207 22 175 51 c 1,21,-1
 172 51 l 1,22,-1
 175 -41 l 1,23,-1
 175 -205 l 1,24,-1
 93 -205 l 1,0,-1
305 57 m 0,25,26
 337 57 337 57 364.5 70.5 c 128,-1,27
 392 84 392 84 412 108.5 c 128,-1,28
 432 133 432 133 443.5 169 c 128,-1,29
 455 205 455 205 455 250 c 0,30,31
 455 330 455 330 422.5 379.5 c 128,-1,32
 390 429 390 429 317 429 c 0,33,34
 285 429 285 429 249 411.5 c 128,-1,35
 213 394 213 394 175 356 c 1,36,-1
 175 114 l 1,37,38
 210 83 210 83 244.5 70 c 128,-1,39
 279 57 279 57 305 57 c 0,25,26
EndSplineSet
EndChar

StartChar: eng
Encoding: 331 331 460
Width: 600
GlyphClass: 2
Flags: W
AnchorPoint: "Anchor-3" 361 -219 basechar 0
AnchorPoint: "Anchor-0" 318 507 basechar 0
LayerCount: 2
Fore
SplineSet
387 -183 m 0,0,1
 364 -183 364 -183 344.5 -178.5 c 128,-1,2
 325 -174 325 -174 311 -169 c 1,3,-1
 327 -106 l 1,4,5
 338 -110 338 -110 351 -113 c 128,-1,6
 364 -116 364 -116 378 -116 c 0,7,8
 416 -116 416 -116 428.5 -89 c 128,-1,9
 441 -62 441 -62 441 -14 c 2,10,-1
 441 291 l 2,11,12
 441 360 441 360 415 393.5 c 128,-1,13
 389 427 389 427 329 427 c 0,14,15
 307 427 307 427 288.5 421.5 c 128,-1,16
 270 416 270 416 252 405 c 128,-1,17
 234 394 234 394 215 377.5 c 128,-1,18
 196 361 196 361 175 339 c 1,19,-1
 175 0 l 1,20,-1
 93 0 l 1,21,-1
 93 486 l 1,22,-1
 161 486 l 1,23,-1
 168 403 l 1,24,-1
 172 403 l 1,25,26
 210 444 210 444 254 471 c 128,-1,27
 298 498 298 498 355 498 c 0,28,29
 442 498 442 498 482.5 448.5 c 128,-1,30
 523 399 523 399 523 302 c 2,31,-1
 523 -14 l 2,32,33
 523 -92 523 -92 491.5 -137.5 c 128,-1,34
 460 -183 460 -183 387 -183 c 0,0,1
EndSplineSet
EndChar

StartChar: uni0237
Encoding: 567 567 461
Width: 600
GlyphClass: 2
Flags: W
AnchorPoint: "Anchor-3" 237 -219 basechar 0
AnchorPoint: "Anchor-0" 348 507 basechar 0
LayerCount: 2
Fore
SplineSet
194 -217 m 0,0,1
 156 -217 156 -217 120 -207.5 c 128,-1,2
 84 -198 84 -198 55 -184 c 1,3,-1
 82 -123 l 1,4,5
 108 -136 108 -136 136.5 -143 c 128,-1,6
 165 -150 165 -150 193 -150 c 0,7,8
 229 -150 229 -150 253 -141 c 128,-1,9
 277 -132 277 -132 291 -115 c 128,-1,10
 305 -98 305 -98 310.5 -73.5 c 128,-1,11
 316 -49 316 -49 316 -18 c 2,12,-1
 316 419 l 1,13,-1
 90 419 l 1,14,-1
 90 486 l 1,15,-1
 398 486 l 1,16,-1
 398 -12 l 2,17,18
 398 -57 398 -57 388 -94.5 c 128,-1,19
 378 -132 378 -132 354.5 -159.5 c 128,-1,20
 331 -187 331 -187 292 -202 c 128,-1,21
 253 -217 253 -217 194 -217 c 0,0,1
EndSplineSet
EndChar

StartChar: ij
Encoding: 307 307 462
Width: 600
GlyphClass: 5
Flags: W
LayerCount: 2
Fore
SplineSet
112 0 m 1,0,-1
 112 486 l 1,1,-1
 194 486 l 1,2,-1
 194 0 l 1,3,-1
 112 0 l 1,0,-1
154 586 m 256,4,5
 128 586 128 586 110.5 602 c 128,-1,6
 93 618 93 618 93 644 c 256,7,8
 93 670 93 670 110.5 686 c 128,-1,9
 128 702 128 702 154 702 c 256,10,11
 180 702 180 702 197 686 c 128,-1,12
 214 670 214 670 214 644 c 256,13,14
 214 618 214 618 197 602 c 128,-1,15
 180 586 180 586 154 586 c 256,4,5
371 -217 m 0,16,17
 348 -217 348 -217 330.5 -213 c 128,-1,18
 313 -209 313 -209 300 -204 c 1,19,-1
 316 -142 l 1,20,21
 326 -145 326 -145 337.5 -147.5 c 128,-1,22
 349 -150 349 -150 362 -150 c 0,23,24
 399 -150 399 -150 410.5 -125 c 128,-1,25
 422 -100 422 -100 422 -55 c 2,26,-1
 422 486 l 1,27,-1
 504 486 l 1,28,-1
 504 -55 l 2,29,30
 504 -129 504 -129 474 -173 c 128,-1,31
 444 -217 444 -217 371 -217 c 0,16,17
464 586 m 256,32,33
 438 586 438 586 420.5 602 c 128,-1,34
 403 618 403 618 403 644 c 256,35,36
 403 670 403 670 420.5 686 c 128,-1,37
 438 702 438 702 464 702 c 256,38,39
 490 702 490 702 507 686 c 128,-1,40
 524 670 524 670 524 644 c 256,41,42
 524 618 524 618 507 602 c 128,-1,43
 490 586 490 586 464 586 c 256,32,33
EndSplineSet
EndChar

StartChar: uni006C00B7006C
Encoding: 1114117 -1 463
Width: 600
GlyphClass: 3
Flags: W
LayerCount: 2
Fore
SplineSet
230 -12 m 0,0,1
 166 -12 166 -12 132.5 32 c 128,-1,2
 99 76 99 76 99 163 c 2,3,-1
 99 645 l 1,4,-1
 -8 645 l 1,5,-1
 -8 712 l 1,6,-1
 174 712 l 1,7,-1
 174 157 l 2,8,9
 174 103 174 103 192 79.5 c 128,-1,10
 210 56 210 56 240 56 c 0,11,12
 251 56 251 56 262 60 c 128,-1,13
 273 64 273 64 288 71 c 1,14,-1
 309 9 l 1,15,16
 289 1 289 1 271.5 -5.5 c 128,-1,17
 254 -12 254 -12 230 -12 c 0,0,1
294 272 m 256,18,19
 261 272 261 272 238.5 294.5 c 128,-1,20
 216 317 216 317 216 356 c 256,21,22
 216 395 216 395 238.5 416.5 c 128,-1,23
 261 438 261 438 294 438 c 256,24,25
 327 438 327 438 350.5 416.5 c 128,-1,26
 374 395 374 395 374 356 c 256,27,28
 374 317 374 317 350.5 294.5 c 128,-1,29
 327 272 327 272 294 272 c 256,18,19
540 -12 m 0,30,31
 477 -12 477 -12 443.5 32 c 128,-1,32
 410 76 410 76 410 163 c 2,33,-1
 410 645 l 1,34,-1
 302 645 l 1,35,-1
 302 712 l 1,36,-1
 485 712 l 1,37,-1
 485 157 l 2,38,39
 485 103 485 103 503 79.5 c 128,-1,40
 521 56 521 56 551 56 c 0,41,42
 562 56 562 56 573 60 c 128,-1,43
 584 64 584 64 599 71 c 1,44,-1
 620 9 l 1,45,46
 600 1 600 1 582.5 -5.5 c 128,-1,47
 565 -12 565 -12 540 -12 c 0,30,31
EndSplineSet
Ligature2: "'ccmp' Glyph Composition/Decomposition lookup 19 subtable" l periodcentered l
Substitution2: "'ss04' Style Set 4 lookup 2 subtable" uni006C00B7006C.a
EndChar

StartChar: uni01330301
Encoding: 1114118 -1 464
Width: 600
GlyphClass: 3
Flags: W
LayerCount: 2
Fore
SplineSet
112 0 m 1,0,-1
 112 486 l 1,1,-1
 194 486 l 1,2,-1
 194 0 l 1,3,-1
 112 0 l 1,0,-1
371 -217 m 0,4,5
 348 -217 348 -217 330.5 -213 c 128,-1,6
 313 -209 313 -209 300 -204 c 1,7,-1
 316 -142 l 1,8,9
 326 -145 326 -145 337.5 -147.5 c 128,-1,10
 349 -150 349 -150 362 -150 c 0,11,12
 399 -150 399 -150 410.5 -125 c 128,-1,13
 422 -100 422 -100 422 -55 c 2,14,-1
 422 486 l 1,15,-1
 504 486 l 1,16,-1
 504 -55 l 2,17,18
 504 -129 504 -129 474 -173 c 128,-1,19
 444 -217 444 -217 371 -217 c 0,4,5
123 568 m 1,20,-1
 80 609 l 1,21,-1
 222 777 l 1,22,-1
 280 721 l 1,23,-1
 123 568 l 1,20,-1
433 568 m 1,24,-1
 390 609 l 1,25,-1
 532 777 l 1,26,-1
 590 721 l 1,27,-1
 433 568 l 1,24,-1
EndSplineSet
Substitution2: "'case' Case-Sensitive Forms lookup 31 subtable" uni01320301
Ligature2: "'ccmp' Glyph Composition/Decomposition lookup 19 subtable" ij uni0301
EndChar

StartChar: uni0250
Encoding: 592 592 465
Width: 600
GlyphClass: 2
Flags: W
AnchorPoint: "Anchor-3" 306 -20 basechar 0
AnchorPoint: "Anchor-0" 324 507 basechar 0
LayerCount: 2
Fore
SplineSet
292 -12 m 0,0,1
 192 -12 192 -12 143 42.5 c 128,-1,2
 94 97 94 97 94 188 c 2,3,-1
 94 486 l 1,4,-1
 162 486 l 1,5,-1
 169 420 l 1,6,-1
 172 420 l 1,7,8
 212 452 212 452 262 475 c 128,-1,9
 312 498 312 498 363 498 c 0,10,11
 397 498 397 498 427.5 489 c 128,-1,12
 458 480 458 480 480.5 462 c 128,-1,13
 503 444 503 444 516 418.5 c 128,-1,14
 529 393 529 393 529 360 c 0,15,16
 529 319 529 319 509 288.5 c 128,-1,17
 489 258 489 258 446.5 236 c 128,-1,18
 404 214 404 214 337.5 200 c 128,-1,19
 271 186 271 186 177 179 c 1,20,21
 178 154 178 154 185 131.5 c 128,-1,22
 192 109 192 109 207 92.5 c 128,-1,23
 222 76 222 76 246 66 c 128,-1,24
 270 56 270 56 305 56 c 0,25,26
 353 56 353 56 397.5 74.5 c 128,-1,27
 442 93 442 93 476 114 c 1,28,-1
 508 58 l 1,29,30
 490 46 490 46 465.5 33.5 c 128,-1,31
 441 21 441 21 413.5 11 c 128,-1,32
 386 1 386 1 355 -5.5 c 128,-1,33
 324 -12 324 -12 292 -12 c 0,0,1
177 232 m 1,34,35
 255 238 255 238 307 249 c 128,-1,36
 359 260 359 260 390.5 275.5 c 128,-1,37
 422 291 422 291 435.5 310.5 c 128,-1,38
 449 330 449 330 449 354 c 0,39,40
 449 375 449 375 440 389.5 c 128,-1,41
 431 404 431 404 416.5 413.5 c 128,-1,42
 402 423 402 423 382.5 427.5 c 128,-1,43
 363 432 363 432 342 432 c 0,44,45
 300 432 300 432 259.5 413.5 c 128,-1,46
 219 395 219 395 177 360 c 1,47,-1
 177 232 l 1,34,35
EndSplineSet
EndChar

StartChar: uni0252
Encoding: 594 594 466
Width: 600
GlyphClass: 2
Flags: W
AnchorPoint: "Anchor-3" 316 -20 basechar 0
AnchorPoint: "Anchor-0" 319 507 basechar 0
LayerCount: 2
Fore
SplineSet
320 -12 m 0,0,1
 284 -12 284 -12 244 5.5 c 128,-1,2
 204 23 204 23 169 54 c 1,3,-1
 166 54 l 1,4,-1
 159 0 l 1,5,-1
 93 0 l 1,6,-1
 93 486 l 1,7,-1
 161 486 l 1,8,-1
 168 422 l 1,9,-1
 171 422 l 1,10,11
 200 453 200 453 245 475.5 c 128,-1,12
 290 498 290 498 339 498 c 256,13,14
 388 498 388 498 425.5 480.5 c 128,-1,15
 463 463 463 463 488.5 430.5 c 128,-1,16
 514 398 514 398 527 352.5 c 128,-1,17
 540 307 540 307 540 251 c 0,18,19
 540 189 540 189 522 140 c 128,-1,20
 504 91 504 91 473.5 57 c 128,-1,21
 443 23 443 23 403 5.5 c 128,-1,22
 363 -12 363 -12 320 -12 c 0,0,1
306 57 m 0,23,24
 338 57 338 57 365 70 c 128,-1,25
 392 83 392 83 412 108 c 128,-1,26
 432 133 432 133 443.5 168 c 128,-1,27
 455 203 455 203 455 247 c 0,28,29
 455 330 455 330 422.5 379.5 c 128,-1,30
 390 429 390 429 317 429 c 0,31,32
 281 429 281 429 244 410.5 c 128,-1,33
 207 392 207 392 175 356 c 1,34,-1
 175 114 l 1,35,36
 210 82 210 82 244.5 69.5 c 128,-1,37
 279 57 279 57 306 57 c 0,23,24
EndSplineSet
EndChar

StartChar: uni0253
Encoding: 595 595 467
Width: 600
GlyphClass: 2
Flags: W
AnchorPoint: "Anchor-3" 316 -20 basechar 0
AnchorPoint: "Anchor-0" 293 736 basechar 0
LayerCount: 2
Fore
SplineSet
321 -12 m 0,0,1
 285 -12 285 -12 244.5 5 c 128,-1,2
 204 22 204 22 169 54 c 1,3,-1
 166 54 l 1,4,-1
 159 0 l 1,5,-1
 93 0 l 1,6,-1
 93 537 l 2,7,8
 93 579 93 579 104 613 c 128,-1,9
 115 647 115 647 137.5 672 c 128,-1,10
 160 697 160 697 194 710.5 c 128,-1,11
 228 724 228 724 273 724 c 0,12,13
 299 724 299 724 323 718.5 c 128,-1,14
 347 713 347 713 366 705 c 1,15,-1
 347 642 l 1,16,17
 330 650 330 650 313 653.5 c 128,-1,18
 296 657 296 657 281 657 c 0,19,20
 227 657 227 657 202 626 c 128,-1,21
 177 595 177 595 175 539 c 2,22,-1
 171 417 l 1,23,-1
 175 417 l 1,24,25
 208 451 208 451 251.5 471 c 128,-1,26
 295 491 295 491 338 491 c 0,27,28
 387 491 387 491 425 473.5 c 128,-1,29
 463 456 463 456 488.5 424.5 c 128,-1,30
 514 393 514 393 527 347.5 c 128,-1,31
 540 302 540 302 540 247 c 0,32,33
 540 185 540 185 522 137 c 128,-1,34
 504 89 504 89 473.5 56 c 128,-1,35
 443 23 443 23 403.5 5.5 c 128,-1,36
 364 -12 364 -12 321 -12 c 0,0,1
307 57 m 0,37,38
 338 57 338 57 365.5 70 c 128,-1,39
 393 83 393 83 412.5 107.5 c 128,-1,40
 432 132 432 132 443.5 167 c 128,-1,41
 455 202 455 202 455 246 c 0,42,43
 455 325 455 325 422.5 373.5 c 128,-1,44
 390 422 390 422 318 422 c 0,45,46
 286 422 286 422 249 404.5 c 128,-1,47
 212 387 212 387 175 349 c 1,48,-1
 175 114 l 1,49,50
 210 82 210 82 245.5 69.5 c 128,-1,51
 281 57 281 57 307 57 c 0,37,38
EndSplineSet
EndChar

StartChar: uni0254
Encoding: 596 596 468
Width: 600
GlyphClass: 2
Flags: W
AnchorPoint: "Anchor-3" 280 -20 basechar 0
AnchorPoint: "Anchor-2" 280 0 basechar 0
AnchorPoint: "Anchor-0" 290 507 basechar 0
LayerCount: 2
Fore
SplineSet
257 -12 m 0,0,1
 200 -12 200 -12 150 8 c 128,-1,2
 100 28 100 28 61 64 c 1,3,-1
 98 117 l 1,4,5
 127 91 127 91 165.5 73.5 c 128,-1,6
 204 56 204 56 249 56 c 0,7,8
 291 56 291 56 325 69.5 c 128,-1,9
 359 83 359 83 383.5 107.5 c 128,-1,10
 408 132 408 132 421.5 166 c 128,-1,11
 435 200 435 200 435 242 c 256,12,13
 435 284 435 284 422 318.5 c 128,-1,14
 409 353 409 353 385.5 378 c 128,-1,15
 362 403 362 403 329.5 416.5 c 128,-1,16
 297 430 297 430 258 430 c 0,17,18
 214 430 214 430 179 415 c 128,-1,19
 144 400 144 400 113 374 c 1,20,-1
 71 427 l 1,21,22
 102 456 102 456 149.5 477 c 128,-1,23
 197 498 197 498 263 498 c 0,24,25
 315 498 315 498 361.5 481 c 128,-1,26
 408 464 408 464 443.5 431 c 128,-1,27
 479 398 479 398 499.5 350.5 c 128,-1,28
 520 303 520 303 520 242 c 0,29,30
 520 182 520 182 499.5 134.5 c 128,-1,31
 479 87 479 87 444 54.5 c 128,-1,32
 409 22 409 22 360.5 5 c 128,-1,33
 312 -12 312 -12 257 -12 c 0,0,1
EndSplineSet
EndChar

StartChar: uni0255
Encoding: 597 597 469
Width: 600
GlyphClass: 2
Flags: W
AnchorPoint: "Anchor-3" 360 -20 basechar 0
AnchorPoint: "Anchor-0" 340 507 basechar 0
LayerCount: 2
Fore
SplineSet
361 54 m 0,0,1
 416 54 416 54 444 70 c 128,-1,2
 472 86 472 86 472 111 c 0,3,4
 472 129 472 129 458 140.5 c 128,-1,5
 444 152 444 152 412 152 c 0,6,7
 383 152 383 152 347 130 c 128,-1,8
 311 108 311 108 277 69 c 1,9,10
 314 54 314 54 361 54 c 0,0,1
185 -102 m 1,11,-1
 118 -74 l 1,12,13
 130 -42 130 -42 144.5 -12.5 c 128,-1,14
 159 17 159 17 176 43 c 1,15,16
 131 75 131 75 105.5 125.5 c 128,-1,17
 80 176 80 176 80 242 c 0,18,19
 80 303 80 303 101.5 350.5 c 128,-1,20
 123 398 123 398 159.5 431 c 128,-1,21
 196 464 196 464 244 481 c 128,-1,22
 292 498 292 498 345 498 c 0,23,24
 408 498 408 498 452 478 c 128,-1,25
 496 458 496 458 528 427 c 1,26,-1
 488 376 l 1,27,28
 459 403 459 403 424.5 418 c 128,-1,29
 390 433 390 433 348 433 c 0,30,31
 308 433 308 433 274 419 c 128,-1,32
 240 405 240 405 215 380 c 128,-1,33
 190 355 190 355 175.5 320 c 128,-1,34
 161 285 161 285 161 242 c 0,35,36
 161 197 161 197 176.5 162 c 128,-1,37
 192 127 192 127 220 103 c 1,38,39
 267 155 267 155 318 183 c 128,-1,40
 369 211 369 211 417 211 c 0,41,42
 475 211 475 211 506 184 c 128,-1,43
 537 157 537 157 537 112 c 0,44,45
 537 60 537 60 492.5 24 c 128,-1,46
 448 -12 448 -12 359 -12 c 0,47,48
 292 -12 292 -12 234 11 c 1,49,50
 219 -15 219 -15 206.5 -43 c 128,-1,51
 194 -71 194 -71 185 -102 c 1,11,-1
EndSplineSet
EndChar

StartChar: uni0256
Encoding: 598 598 470
Width: 600
GlyphClass: 2
Flags: W
AnchorPoint: "Anchor-3" 307 -219 basechar 0
AnchorPoint: "Anchor-0" 352 736 basechar 0
LayerCount: 2
Fore
SplineSet
546 -176 m 0,0,1
 483 -176 483 -176 454 -139.5 c 128,-1,2
 425 -103 425 -103 425 -39 c 2,3,-1
 427 61 l 1,4,-1
 424 61 l 1,5,6
 395 31 395 31 354.5 9.5 c 128,-1,7
 314 -12 314 -12 269 -12 c 0,8,9
 222 -12 222 -12 183.5 5 c 128,-1,10
 145 22 145 22 117.5 54.5 c 128,-1,11
 90 87 90 87 75 134 c 128,-1,12
 60 181 60 181 60 242 c 0,13,14
 60 301 60 301 78.5 348.5 c 128,-1,15
 97 396 97 396 127.5 429 c 128,-1,16
 158 462 158 462 197.5 480 c 128,-1,17
 237 498 237 498 280 498 c 0,18,19
 324 498 324 498 358 481 c 128,-1,20
 392 464 392 464 424 435 c 1,21,-1
 427 435 l 1,22,-1
 422 525 l 1,23,-1
 422 712 l 1,24,-1
 505 712 l 1,25,-1
 505 -21 l 2,26,27
 505 -63 505 -63 515.5 -86 c 128,-1,28
 526 -109 526 -109 555 -109 c 0,29,30
 565 -109 565 -109 574 -106 c 128,-1,31
 583 -103 583 -103 591 -100 c 1,32,-1
 607 -163 l 1,33,34
 596 -168 596 -168 580.5 -172 c 128,-1,35
 565 -176 565 -176 546 -176 c 0,0,1
288 57 m 0,36,37
 358 57 358 57 422 130 c 1,38,-1
 422 372 l 1,39,40
 389 403 389 403 357 416 c 128,-1,41
 325 429 325 429 294 429 c 256,42,43
 263 429 263 429 236 415.5 c 128,-1,44
 209 402 209 402 188.5 377.5 c 128,-1,45
 168 353 168 353 156.5 319 c 128,-1,46
 145 285 145 285 145 243 c 0,47,48
 145 155 145 155 183 106 c 128,-1,49
 221 57 221 57 288 57 c 0,36,37
EndSplineSet
EndChar

StartChar: uni0257
Encoding: 599 599 471
Width: 600
GlyphClass: 2
Flags: W
AnchorPoint: "Anchor-3" 300 -20 basechar 0
AnchorPoint: "Anchor-0" 366 736 basechar 0
LayerCount: 2
Fore
SplineSet
269 -12 m 0,0,1
 174 -12 174 -12 117 54 c 128,-1,2
 60 120 60 120 60 242 c 0,3,4
 60 301 60 301 78 348.5 c 128,-1,5
 96 396 96 396 126.5 429 c 128,-1,6
 157 462 157 462 196.5 480 c 128,-1,7
 236 498 236 498 279 498 c 256,8,9
 322 498 322 498 356.5 481.5 c 128,-1,10
 391 465 391 465 423 435 c 1,11,-1
 426 435 l 1,12,-1
 424 525 l 1,13,-1
 424 581 l 2,14,15
 424 649 424 649 456 687.5 c 128,-1,16
 488 726 488 726 554 726 c 0,17,18
 571 726 571 726 585 723.5 c 128,-1,19
 599 721 599 721 610 716 c 1,20,-1
 594 653 l 1,21,22
 587 655 587 655 579.5 657 c 128,-1,23
 572 659 572 659 563 659 c 0,24,25
 530 659 530 659 517 634 c 128,-1,26
 504 609 504 609 504 567 c 2,27,-1
 504 0 l 1,28,-1
 436 0 l 1,29,-1
 429 64 l 1,30,-1
 426 64 l 1,31,32
 397 33 397 33 355.5 10.5 c 128,-1,33
 314 -12 314 -12 269 -12 c 0,0,1
287 57 m 0,34,35
 357 57 357 57 422 130 c 1,36,-1
 422 372 l 1,37,38
 389 403 389 403 357 416 c 128,-1,39
 325 429 325 429 293 429 c 0,40,41
 263 429 263 429 236 415.5 c 128,-1,42
 209 402 209 402 188.5 377.5 c 128,-1,43
 168 353 168 353 156.5 319 c 128,-1,44
 145 285 145 285 145 243 c 0,45,46
 145 155 145 155 182.5 106 c 128,-1,47
 220 57 220 57 287 57 c 0,34,35
EndSplineSet
EndChar

StartChar: uni0258
Encoding: 600 600 472
Width: 600
GlyphClass: 2
Flags: W
AnchorPoint: "Anchor-3" 294 -20 basechar 0
AnchorPoint: "Anchor-0" 307 507 basechar 0
LayerCount: 2
Fore
SplineSet
290 433 m 0,0,1
 227 433 227 433 185 396 c 128,-1,2
 143 359 143 359 137 284 c 1,3,-1
 447 284 l 1,4,5
 436 356 436 356 393 394.5 c 128,-1,6
 350 433 350 433 290 433 c 0,0,1
270 -12 m 0,7,8
 211 -12 211 -12 165 5 c 128,-1,9
 119 22 119 22 83 45 c 1,10,-1
 112 99 l 1,11,12
 146 78 146 78 181.5 66 c 128,-1,13
 217 54 217 54 261 54 c 0,14,15
 298 54 298 54 331 64.5 c 128,-1,16
 364 75 364 75 389 96 c 128,-1,17
 414 117 414 117 429.5 148 c 128,-1,18
 445 179 445 179 449 220 c 1,19,-1
 66 220 l 1,20,21
 64 229 64 229 63.5 243 c 128,-1,22
 63 257 63 257 63 270 c 0,23,24
 63 321 63 321 79.5 363 c 128,-1,25
 96 405 96 405 126.5 435 c 128,-1,26
 157 465 157 465 200 481.5 c 128,-1,27
 243 498 243 498 295 498 c 0,28,29
 343 498 343 498 386 480.5 c 128,-1,30
 429 463 429 463 461 430 c 128,-1,31
 493 397 493 397 512 349.5 c 128,-1,32
 531 302 531 302 531 242 c 256,33,34
 531 182 531 182 510.5 135 c 128,-1,35
 490 88 490 88 454.5 55.5 c 128,-1,36
 419 23 419 23 371.5 5.5 c 128,-1,37
 324 -12 324 -12 270 -12 c 0,7,8
EndSplineSet
EndChar

StartChar: uni0251
Encoding: 593 593 473
Width: 600
GlyphClass: 2
Flags: W
AnchorPoint: "Anchor-3" 304 -20 basechar 0
AnchorPoint: "Anchor-2" 465 0 basechar 0
AnchorPoint: "Anchor-0" 304 507 basechar 0
LayerCount: 2
Fore
SplineSet
270 -12 m 0,0,1
 223 -12 223 -12 184.5 5 c 128,-1,2
 146 22 146 22 118 54.5 c 128,-1,3
 90 87 90 87 75 134 c 128,-1,4
 60 181 60 181 60 242 c 0,5,6
 60 301 60 301 78 348.5 c 128,-1,7
 96 396 96 396 127 429 c 128,-1,8
 158 462 158 462 198 480 c 128,-1,9
 238 498 238 498 282 498 c 0,10,11
 325 498 325 498 361 481 c 128,-1,12
 397 464 397 464 431 432 c 1,13,-1
 434 432 l 1,14,-1
 441 486 l 1,15,-1
 507 486 l 1,16,-1
 507 0 l 1,17,-1
 439 0 l 1,18,-1
 432 64 l 1,19,-1
 429 64 l 1,20,21
 400 33 400 33 358 10.5 c 128,-1,22
 316 -12 316 -12 270 -12 c 0,0,1
288 57 m 0,23,24
 360 57 360 57 425 130 c 1,25,-1
 425 372 l 1,26,27
 392 403 392 403 360.5 416 c 128,-1,28
 329 429 329 429 297 429 c 256,29,30
 265 429 265 429 237.5 415.5 c 128,-1,31
 210 402 210 402 189.5 377.5 c 128,-1,32
 169 353 169 353 157 319 c 128,-1,33
 145 285 145 285 145 243 c 0,34,35
 145 155 145 155 182.5 106 c 128,-1,36
 220 57 220 57 288 57 c 0,23,24
EndSplineSet
EndChar

StartChar: uni0259
Encoding: 601 601 475
Width: 600
GlyphClass: 2
Flags: W
AnchorPoint: "Anchor-6" 296 0 basechar 0
AnchorPoint: "Anchor-3" 296 -20 basechar 0
AnchorPoint: "Anchor-2" 296 0 basechar 0
AnchorPoint: "Anchor-0" 310 507 basechar 0
LayerCount: 2
Fore
SplineSet
297 -12 m 0,0,1
 242 -12 242 -12 199.5 5.5 c 128,-1,2
 157 23 157 23 128 54 c 128,-1,3
 99 85 99 85 84 128.5 c 128,-1,4
 69 172 69 172 69 224 c 0,5,6
 69 237 69 237 70 251 c 128,-1,7
 71 265 71 265 73 274 c 1,8,-1
 454 274 l 1,9,10
 446 353 446 353 400 393 c 128,-1,11
 354 433 354 433 279 433 c 0,12,13
 235 433 235 433 199 420.5 c 128,-1,14
 163 408 163 408 130 387 c 1,15,-1
 100 441 l 1,16,17
 137 464 137 464 183 481 c 128,-1,18
 229 498 229 498 288 498 c 0,19,20
 343 498 343 498 389 480.5 c 128,-1,21
 435 463 435 463 468 430.5 c 128,-1,22
 501 398 501 398 519 351 c 128,-1,23
 537 304 537 304 537 244 c 0,24,25
 537 183 537 183 518.5 135.5 c 128,-1,26
 500 88 500 88 467.5 55 c 128,-1,27
 435 22 435 22 391 5 c 128,-1,28
 347 -12 347 -12 297 -12 c 0,0,1
295 54 m 0,29,30
 361 54 361 54 403.5 93 c 128,-1,31
 446 132 446 132 454 210 c 1,32,-1
 143 210 l 1,33,34
 148 132 148 132 187.5 93 c 128,-1,35
 227 54 227 54 295 54 c 0,29,30
EndSplineSet
Substitution2: "'sups' Superscript lookup 26 subtable" uni0259.sups
EndChar

StartChar: uni025A
Encoding: 602 602 476
Width: 600
GlyphClass: 2
Flags: W
AnchorPoint: "Anchor-3" 225 -20 basechar 0
AnchorPoint: "Anchor-0" 229 507 basechar 0
LayerCount: 2
Fore
SplineSet
217 -12 m 256,0,1
 171 -12 171 -12 136 4.5 c 128,-1,2
 101 21 101 21 77 49 c 128,-1,3
 53 77 53 77 39.5 115 c 128,-1,4
 26 153 26 153 22 197 c 1,5,-1
 327 328 l 1,6,7
 310 384 310 384 276.5 408.5 c 128,-1,8
 243 433 243 433 200 433 c 0,9,10
 162 433 162 433 134 421.5 c 128,-1,11
 106 410 106 410 80 392 c 1,12,-1
 51 448 l 1,13,14
 83 471 83 471 120.5 484.5 c 128,-1,15
 158 498 158 498 207 498 c 0,16,17
 275 498 275 498 325 463 c 128,-1,18
 375 428 375 428 400 359 c 1,19,-1
 473 391 l 1,20,-1
 516 374 l 1,21,22
 518 345 518 345 522 327.5 c 128,-1,23
 526 310 526 310 532 300 c 128,-1,24
 538 290 538 290 546 286.5 c 128,-1,25
 554 283 554 283 565 283 c 0,26,27
 575 283 575 283 584 288 c 128,-1,28
 593 293 593 293 599 298 c 1,29,-1
 621 255 l 1,30,31
 610 246 610 246 594.5 238 c 128,-1,32
 579 230 579 230 559 230 c 0,33,34
 530 230 530 230 503.5 250 c 128,-1,35
 477 270 477 270 467 324 c 1,36,-1
 414 302 l 1,37,38
 416 286 416 286 417.5 269.5 c 128,-1,39
 419 253 419 253 419 236 c 0,40,41
 419 182 419 182 404.5 136.5 c 128,-1,42
 390 91 390 91 363.5 58 c 128,-1,43
 337 25 337 25 300 6.5 c 128,-1,44
 263 -12 263 -12 217 -12 c 256,0,1
216 53 m 0,45,46
 244 53 244 53 267.5 65 c 128,-1,47
 291 77 291 77 307 99 c 128,-1,48
 323 121 323 121 332 152 c 128,-1,49
 341 183 341 183 341 220 c 0,50,51
 341 234 341 234 340.5 246 c 128,-1,52
 340 258 340 258 339 270 c 1,53,-1
 94 166 l 1,54,55
 108 106 108 106 139.5 79.5 c 128,-1,56
 171 53 171 53 216 53 c 0,45,46
EndSplineSet
EndChar

StartChar: uni025B
Encoding: 603 603 477
Width: 600
GlyphClass: 2
Flags: W
AnchorPoint: "Anchor-3" 316 -20 basechar 0
AnchorPoint: "Anchor-2" 316 0 basechar 0
AnchorPoint: "Anchor-0" 330 507 basechar 0
LayerCount: 2
Fore
SplineSet
318 -12 m 0,0,1
 267 -12 267 -12 225.5 -2.5 c 128,-1,2
 184 7 184 7 154 26 c 128,-1,3
 124 45 124 45 107.5 72.5 c 128,-1,4
 91 100 91 100 91 135 c 0,5,6
 91 187 91 187 124 215 c 128,-1,7
 157 243 157 243 205 256 c 1,8,-1
 205 260 l 1,9,10
 163 276 163 276 139.5 304 c 128,-1,11
 116 332 116 332 116 368 c 0,12,13
 116 401 116 401 131.5 425.5 c 128,-1,14
 147 450 147 450 175 466 c 128,-1,15
 203 482 203 482 241.5 490 c 128,-1,16
 280 498 280 498 326 498 c 0,17,18
 387 498 387 498 435.5 481 c 128,-1,19
 484 464 484 464 523 436 c 1,20,-1
 490 382 l 1,21,22
 455 406 455 406 417.5 419.5 c 128,-1,23
 380 433 380 433 330 433 c 0,24,25
 266 433 266 433 232 414.5 c 128,-1,26
 198 396 198 396 198 358 c 0,27,28
 198 284 198 284 345 284 c 2,29,-1
 398 284 l 1,30,-1
 398 220 l 1,31,-1
 331 220 l 2,32,33
 254 220 254 220 213.5 202 c 128,-1,34
 173 184 173 184 173 142 c 0,35,36
 173 99 173 99 214 76.5 c 128,-1,37
 255 54 255 54 331 54 c 0,38,39
 380 54 380 54 421.5 67.5 c 128,-1,40
 463 81 463 81 499 113 c 1,41,-1
 535 59 l 1,42,43
 489 19 489 19 436.5 3.5 c 128,-1,44
 384 -12 384 -12 318 -12 c 0,0,1
EndSplineSet
EndChar

StartChar: uni025E
Encoding: 606 606 479
Width: 600
GlyphClass: 2
Flags: W
AnchorPoint: "Anchor-3" 301 -20 basechar 0
AnchorPoint: "Anchor-0" 320 507 basechar 0
LayerCount: 2
Fore
SplineSet
327 -12 m 0,0,1
 270 -12 270 -12 221.5 4 c 128,-1,2
 173 20 173 20 137 52 c 128,-1,3
 101 84 101 84 81 131.5 c 128,-1,4
 61 179 61 179 61 241 c 0,5,6
 61 304 61 304 82.5 352.5 c 128,-1,7
 104 401 104 401 140 433 c 128,-1,8
 176 465 176 465 223 481.5 c 128,-1,9
 270 498 270 498 321 498 c 0,10,11
 361 498 361 498 396 490 c 128,-1,12
 431 482 431 482 457 466 c 128,-1,13
 483 450 483 450 497.5 425 c 128,-1,14
 512 400 512 400 512 367 c 0,15,16
 512 331 512 331 491 302 c 128,-1,17
 470 273 470 273 428 259 c 1,18,-1
 428 255 l 1,19,20
 450 250 450 250 470 240 c 128,-1,21
 490 230 490 230 505 215 c 128,-1,22
 520 200 520 200 528.5 180 c 128,-1,23
 537 160 537 160 537 134 c 0,24,25
 537 64 537 64 480.5 26 c 128,-1,26
 424 -12 424 -12 327 -12 c 0,0,1
328 54 m 0,27,28
 389 54 389 54 422 76.5 c 128,-1,29
 455 99 455 99 455 141 c 0,30,31
 455 181 455 181 419.5 200.5 c 128,-1,32
 384 220 384 220 330 220 c 2,33,-1
 295 220 l 1,34,-1
 295 284 l 1,35,-1
 322 284 l 2,36,37
 374 284 374 284 403 304 c 128,-1,38
 432 324 432 324 432 358 c 0,39,40
 432 396 432 396 402.5 414.5 c 128,-1,41
 373 433 373 433 324 433 c 0,42,43
 286 433 286 433 253 420 c 128,-1,44
 220 407 220 407 196 382.5 c 128,-1,45
 172 358 172 358 158 322 c 128,-1,46
 144 286 144 286 144 241 c 0,47,48
 144 148 144 148 193.5 101 c 128,-1,49
 243 54 243 54 328 54 c 0,27,28
EndSplineSet
EndChar

StartChar: uni025F
Encoding: 607 607 480
Width: 600
GlyphClass: 2
Flags: W
AnchorPoint: "Anchor-3" 237 -219 basechar 0
AnchorPoint: "Anchor-0" 348 507 basechar 0
LayerCount: 2
Fore
SplineSet
194 -217 m 0,0,1
 156 -217 156 -217 120 -207.5 c 128,-1,2
 84 -198 84 -198 55 -184 c 1,3,-1
 82 -123 l 1,4,5
 108 -136 108 -136 136.5 -143 c 128,-1,6
 165 -150 165 -150 193 -150 c 0,7,8
 229 -150 229 -150 253 -141 c 128,-1,9
 277 -132 277 -132 291 -115 c 128,-1,10
 305 -98 305 -98 310.5 -73.5 c 128,-1,11
 316 -49 316 -49 316 -18 c 2,12,-1
 316 206 l 1,13,-1
 122 206 l 1,14,-1
 122 266 l 1,15,-1
 316 272 l 1,16,-1
 316 419 l 1,17,-1
 90 419 l 1,18,-1
 90 486 l 1,19,-1
 398 486 l 1,20,-1
 398 272 l 1,21,-1
 564 272 l 1,22,-1
 564 206 l 1,23,-1
 398 206 l 1,24,-1
 398 -12 l 2,25,26
 398 -57 398 -57 388 -94.5 c 128,-1,27
 378 -132 378 -132 354.5 -159.5 c 128,-1,28
 331 -187 331 -187 292 -202 c 128,-1,29
 253 -217 253 -217 194 -217 c 0,0,1
EndSplineSet
EndChar

StartChar: uni0260
Encoding: 608 608 481
Width: 600
GlyphClass: 2
Flags: W
AnchorPoint: "Anchor-3" 294 -219 basechar 0
AnchorPoint: "Anchor-0" 304 507 basechar 0
LayerCount: 2
Fore
SplineSet
279 -216 m 0,0,1
 231 -216 231 -216 183.5 -202.5 c 128,-1,2
 136 -189 136 -189 95 -163 c 1,3,-1
 126 -105 l 1,4,5
 163 -129 163 -129 202.5 -139.5 c 128,-1,6
 242 -150 242 -150 279 -150 c 0,7,8
 349 -150 349 -150 385 -115.5 c 128,-1,9
 421 -81 421 -81 422 -22 c 2,10,-1
 426 75 l 1,11,-1
 423 75 l 1,12,13
 395 46 395 46 354.5 25.5 c 128,-1,14
 314 5 314 5 269 5 c 0,15,16
 222 5 222 5 183.5 22 c 128,-1,17
 145 39 145 39 117.5 70.5 c 128,-1,18
 90 102 90 102 75 147.5 c 128,-1,19
 60 193 60 193 60 250 c 256,20,21
 60 307 60 307 78.5 353 c 128,-1,22
 97 399 97 399 127.5 431 c 128,-1,23
 158 463 158 463 198 480.5 c 128,-1,24
 238 498 238 498 281 498 c 256,25,26
 324 498 324 498 359 481 c 128,-1,27
 394 464 394 464 423 435 c 1,28,-1
 426 435 l 1,29,-1
 424 483 l 2,30,31
 424 549 424 549 455.5 589 c 128,-1,32
 487 629 487 629 555 629 c 0,33,34
 572 629 572 629 586 626.5 c 128,-1,35
 600 624 600 624 611 619 c 1,36,-1
 595 556 l 1,37,38
 581 562 581 562 564 562 c 0,39,40
 531 562 531 562 518 537 c 128,-1,41
 505 512 505 512 505 470 c 2,42,-1
 505 -24 l 2,43,44
 505 -115 505 -115 445 -165.5 c 128,-1,45
 385 -216 385 -216 279 -216 c 0,0,1
288 73 m 0,46,47
 357 73 357 73 422 146 c 1,48,-1
 422 372 l 1,49,50
 389 404 389 404 357 416.5 c 128,-1,51
 325 429 325 429 294 429 c 256,52,53
 263 429 263 429 236 416 c 128,-1,54
 209 403 209 403 188.5 379 c 128,-1,55
 168 355 168 355 156.5 322.5 c 128,-1,56
 145 290 145 290 145 251 c 0,57,58
 145 169 145 169 183 121 c 128,-1,59
 221 73 221 73 288 73 c 0,46,47
EndSplineSet
EndChar

StartChar: uni0261
Encoding: 609 609 482
Width: 600
GlyphClass: 2
Flags: W
AnchorPoint: "Anchor-3" 294 -219 basechar 0
AnchorPoint: "Anchor-0" 310 507 basechar 0
LayerCount: 2
Fore
SplineSet
280 -217 m 0,0,1
 232 -217 232 -217 183.5 -204 c 128,-1,2
 135 -191 135 -191 95 -165 c 1,3,-1
 125 -106 l 1,4,5
 163 -130 163 -130 203 -140.5 c 128,-1,6
 243 -151 243 -151 280 -151 c 0,7,8
 350 -151 350 -151 387.5 -116 c 128,-1,9
 425 -81 425 -81 427 -22 c 2,10,-1
 429 75 l 1,11,-1
 426 75 l 1,12,13
 397 46 397 46 356 25.5 c 128,-1,14
 315 5 315 5 270 5 c 0,15,16
 223 5 223 5 184.5 22 c 128,-1,17
 146 39 146 39 118 70.5 c 128,-1,18
 90 102 90 102 75 147.5 c 128,-1,19
 60 193 60 193 60 250 c 256,20,21
 60 307 60 307 78 353 c 128,-1,22
 96 399 96 399 126.5 431 c 128,-1,23
 157 463 157 463 197.5 480.5 c 128,-1,24
 238 498 238 498 282 498 c 0,25,26
 325 498 325 498 362 480.5 c 128,-1,27
 399 463 399 463 431 432 c 1,28,-1
 434 432 l 1,29,-1
 441 486 l 1,30,-1
 507 486 l 1,31,-1
 507 -19 l 2,32,33
 507 -111 507 -111 448 -164 c 128,-1,34
 389 -217 389 -217 280 -217 c 0,0,1
288 73 m 0,35,36
 358 73 358 73 425 146 c 1,37,-1
 425 372 l 1,38,39
 392 403 392 403 360 416 c 128,-1,40
 328 429 328 429 296 429 c 0,41,42
 265 429 265 429 237.5 416 c 128,-1,43
 210 403 210 403 189 379 c 128,-1,44
 168 355 168 355 156 322.5 c 128,-1,45
 144 290 144 290 144 251 c 0,46,47
 144 169 144 169 182.5 121 c 128,-1,48
 221 73 221 73 288 73 c 0,35,36
EndSplineSet
EndChar

StartChar: uni0262
Encoding: 610 610 483
Width: 600
GlyphClass: 2
Flags: W
AnchorPoint: "Anchor-3" 326 -20 basechar 0
AnchorPoint: "Anchor-0" 334 507 basechar 0
LayerCount: 2
Fore
SplineSet
339 -12 m 0,0,1
 285 -12 285 -12 237.5 4.5 c 128,-1,2
 190 21 190 21 154.5 53.5 c 128,-1,3
 119 86 119 86 98.5 133.5 c 128,-1,4
 78 181 78 181 78 243 c 0,5,6
 78 303 78 303 99.5 350 c 128,-1,7
 121 397 121 397 157.5 430 c 128,-1,8
 194 463 194 463 242 480.5 c 128,-1,9
 290 498 290 498 344 498 c 0,10,11
 409 498 409 498 451.5 477 c 128,-1,12
 494 456 494 456 524 428 c 1,13,-1
 483 376 l 1,14,15
 457 399 457 399 426.5 416 c 128,-1,16
 396 433 396 433 348 433 c 0,17,18
 310 433 310 433 276.5 420.5 c 128,-1,19
 243 408 243 408 217.5 383.5 c 128,-1,20
 192 359 192 359 177 323.5 c 128,-1,21
 162 288 162 288 162 243 c 0,22,23
 162 199 162 199 175.5 164 c 128,-1,24
 189 129 189 129 213.5 104.5 c 128,-1,25
 238 80 238 80 271 67 c 128,-1,26
 304 54 304 54 343 54 c 0,27,28
 376 54 376 54 404.5 64 c 128,-1,29
 433 74 433 74 454 91 c 1,30,-1
 454 203 l 1,31,-1
 320 203 l 1,32,-1
 320 262 l 1,33,-1
 526 262 l 1,34,-1
 526 57 l 1,35,36
 495 28 495 28 447 8 c 128,-1,37
 399 -12 399 -12 339 -12 c 0,0,1
EndSplineSet
EndChar

StartChar: uni0263
Encoding: 611 611 484
Width: 600
GlyphClass: 2
Flags: W
AnchorPoint: "Anchor-3" 300 -93 basechar 0
AnchorPoint: "Anchor-0" 300 507 basechar 0
LayerCount: 2
Fore
SplineSet
302 -224 m 256,0,1
 246 -224 246 -224 216 -191.5 c 128,-1,2
 186 -159 186 -159 186 -106 c 0,3,4
 186 -88 186 -88 190.5 -71 c 128,-1,5
 195 -54 195 -54 203.5 -35.5 c 128,-1,6
 212 -17 212 -17 223 4.5 c 128,-1,7
 234 26 234 26 248 52 c 1,8,-1
 51 486 l 1,9,-1
 135 486 l 1,10,-1
 248 220 l 2,11,12
 262 185 262 185 273.5 158 c 128,-1,13
 285 131 285 131 300 97 c 1,14,-1
 304 97 l 1,15,16
 319 131 319 131 331 158 c 128,-1,17
 343 185 343 185 357 220 c 2,18,-1
 469 486 l 1,19,-1
 549 486 l 1,20,-1
 356 52 l 1,21,22
 369 26 369 26 380.5 4.5 c 128,-1,23
 392 -17 392 -17 400.5 -35.5 c 128,-1,24
 409 -54 409 -54 413.5 -71 c 128,-1,25
 418 -88 418 -88 418 -106 c 0,26,27
 418 -159 418 -159 388 -191.5 c 128,-1,28
 358 -224 358 -224 302 -224 c 256,0,1
302 -167 m 256,29,30
 325 -167 325 -167 336 -150 c 128,-1,31
 347 -133 347 -133 347 -108 c 0,32,33
 347 -82 347 -82 335 -52.5 c 128,-1,34
 323 -23 323 -23 304 11 c 1,35,-1
 299 11 l 1,36,37
 281 -23 281 -23 269 -53.5 c 128,-1,38
 257 -84 257 -84 257 -108 c 0,39,40
 257 -133 257 -133 268 -150 c 128,-1,41
 279 -167 279 -167 302 -167 c 256,29,30
EndSplineSet
EndChar

StartChar: uni0264
Encoding: 612 612 485
Width: 600
GlyphClass: 2
Flags: W
AnchorPoint: "Anchor-3" 300 -20 basechar 0
AnchorPoint: "Anchor-0" 300 507 basechar 0
LayerCount: 2
Fore
SplineSet
300 -12 m 256,0,1
 214 -12 214 -12 164 33 c 128,-1,2
 114 78 114 78 114 157 c 0,3,4
 114 213 114 213 150 264 c 128,-1,5
 186 315 186 315 243 363 c 1,6,7
 212 397 212 397 187 413.5 c 128,-1,8
 162 430 162 430 134 430 c 256,9,10
 106 430 106 430 86 416 c 1,11,-1
 60 476 l 1,12,13
 76 487 76 487 98.5 492.5 c 128,-1,14
 121 498 121 498 144 498 c 0,15,16
 185 498 185 498 222.5 475.5 c 128,-1,17
 260 453 260 453 300 411 c 1,18,19
 339 453 339 453 377 475.5 c 128,-1,20
 415 498 415 498 456 498 c 0,21,22
 479 498 479 498 501.5 492.5 c 128,-1,23
 524 487 524 487 540 476 c 1,24,-1
 514 416 l 1,25,26
 494 430 494 430 466 430 c 0,27,28
 437 430 437 430 412.5 413.5 c 128,-1,29
 388 397 388 397 357 363 c 1,30,31
 414 315 414 315 450 264 c 128,-1,32
 486 213 486 213 486 157 c 0,33,34
 486 78 486 78 436 33 c 128,-1,35
 386 -12 386 -12 300 -12 c 256,0,1
300 56 m 256,36,37
 350 56 350 56 378.5 85 c 128,-1,38
 407 114 407 114 407 159 c 0,39,40
 407 203 407 203 377 243.5 c 128,-1,41
 347 284 347 284 300 324 c 1,42,43
 253 284 253 284 223 243.5 c 128,-1,44
 193 203 193 203 193 159 c 0,45,46
 193 114 193 114 221.5 85 c 128,-1,47
 250 56 250 56 300 56 c 256,36,37
EndSplineSet
EndChar

StartChar: uni0265
Encoding: 613 613 486
Width: 600
GlyphClass: 2
Flags: W
AnchorPoint: "Anchor-3" 353 -93 basechar 0
AnchorPoint: "Anchor-0" 291 507 basechar 0
LayerCount: 2
Fore
SplineSet
425 -205 m 1,0,-1
 425 -31 l 1,1,-1
 429 83 l 1,2,3
 390 43 390 43 346 15.5 c 128,-1,4
 302 -12 302 -12 245 -12 c 0,5,6
 158 -12 158 -12 117.5 37.5 c 128,-1,7
 77 87 77 87 77 184 c 2,8,-1
 77 486 l 1,9,-1
 159 486 l 1,10,-1
 159 195 l 2,11,12
 159 126 159 126 185 92.5 c 128,-1,13
 211 59 211 59 271 59 c 0,14,15
 293 59 293 59 311.5 64.5 c 128,-1,16
 330 70 330 70 348 81 c 128,-1,17
 366 92 366 92 385 108.5 c 128,-1,18
 404 125 404 125 425 147 c 1,19,-1
 425 486 l 1,20,-1
 507 486 l 1,21,-1
 507 -205 l 1,22,-1
 425 -205 l 1,0,-1
EndSplineSet
EndChar

StartChar: uni0266
Encoding: 614 614 487
Width: 600
GlyphClass: 2
Flags: W
AnchorPoint: "Anchor-3" 316 -20 basechar 0
AnchorPoint: "Anchor-0" 271 736 basechar 0
LayerCount: 2
Fore
SplineSet
93 0 m 1,0,-1
 93 537 l 2,1,2
 93 579 93 579 104 613 c 128,-1,3
 115 647 115 647 137.5 672 c 128,-1,4
 160 697 160 697 194 710.5 c 128,-1,5
 228 724 228 724 273 724 c 0,6,7
 299 724 299 724 323 718.5 c 128,-1,8
 347 713 347 713 366 705 c 1,9,-1
 347 642 l 1,10,11
 330 650 330 650 313 653.5 c 128,-1,12
 296 657 296 657 281 657 c 0,13,14
 227 657 227 657 202 626 c 128,-1,15
 177 595 177 595 175 539 c 2,16,-1
 169 396 l 1,17,-1
 173 396 l 1,18,19
 211 436 211 436 254.5 463.5 c 128,-1,20
 298 491 298 491 355 491 c 0,21,22
 442 491 442 491 482.5 441 c 128,-1,23
 523 391 523 391 523 294 c 2,24,-1
 523 0 l 1,25,-1
 441 0 l 1,26,-1
 441 284 l 2,27,28
 441 353 441 353 415 386 c 128,-1,29
 389 419 389 419 329 419 c 0,30,31
 307 419 307 419 288.5 413.5 c 128,-1,32
 270 408 270 408 252 397 c 128,-1,33
 234 386 234 386 215 370 c 128,-1,34
 196 354 196 354 175 332 c 1,35,-1
 175 0 l 1,36,-1
 93 0 l 1,0,-1
EndSplineSet
EndChar

StartChar: uni0267
Encoding: 615 615 488
Width: 600
GlyphClass: 2
Flags: W
AnchorPoint: "Anchor-3" 361 -219 basechar 0
AnchorPoint: "Anchor-0" 271 736 basechar 0
LayerCount: 2
Fore
SplineSet
384 -183 m 0,0,1
 360 -183 360 -183 340 -178.5 c 128,-1,2
 320 -174 320 -174 306 -169 c 1,3,-1
 322 -106 l 1,4,5
 333 -110 333 -110 346.5 -113 c 128,-1,6
 360 -116 360 -116 375 -116 c 0,7,8
 415 -116 415 -116 428 -89 c 128,-1,9
 441 -62 441 -62 441 -14 c 2,10,-1
 441 284 l 2,11,12
 441 353 441 353 415 386 c 128,-1,13
 389 419 389 419 329 419 c 0,14,15
 307 419 307 419 288.5 413.5 c 128,-1,16
 270 408 270 408 252 397 c 128,-1,17
 234 386 234 386 215 370 c 128,-1,18
 196 354 196 354 175 332 c 1,19,-1
 175 0 l 1,20,-1
 93 0 l 1,21,-1
 93 537 l 2,22,23
 93 579 93 579 104 613 c 128,-1,24
 115 647 115 647 137.5 672 c 128,-1,25
 160 697 160 697 194 710.5 c 128,-1,26
 228 724 228 724 273 724 c 0,27,28
 299 724 299 724 322.5 718.5 c 128,-1,29
 346 713 346 713 366 705 c 1,30,-1
 347 642 l 1,31,32
 312 657 312 657 281 657 c 0,33,34
 227 657 227 657 202 626 c 128,-1,35
 177 595 177 595 175 539 c 2,36,-1
 169 396 l 1,37,-1
 173 396 l 1,38,39
 211 436 211 436 254.5 463.5 c 128,-1,40
 298 491 298 491 355 491 c 0,41,42
 442 491 442 491 482.5 441 c 128,-1,43
 523 391 523 391 523 294 c 2,44,-1
 523 -14 l 2,45,46
 523 -92 523 -92 491.5 -137.5 c 128,-1,47
 460 -183 460 -183 384 -183 c 0,0,1
EndSplineSet
EndChar

StartChar: uni026A
Encoding: 618 618 491
Width: 600
GlyphClass: 2
Flags: W
AnchorPoint: "Anchor-3" 300 -20 basechar 0
AnchorPoint: "Anchor-0" 300 507 basechar 0
LayerCount: 2
Fore
SplineSet
86 0 m 1,0,-1
 86 67 l 1,1,-1
 258 67 l 1,2,-1
 258 419 l 1,3,-1
 86 419 l 1,4,-1
 86 486 l 1,5,-1
 514 486 l 1,6,-1
 514 419 l 1,7,-1
 340 419 l 1,8,-1
 340 67 l 1,9,-1
 514 67 l 1,10,-1
 514 0 l 1,11,-1
 86 0 l 1,0,-1
EndSplineSet
EndChar

StartChar: uni029E
Encoding: 670 670 493
Width: 600
GlyphClass: 2
Flags: W
AnchorPoint: "Anchor-3" 450 -219 basechar 0
AnchorPoint: "Anchor-0" 284 507 basechar 0
LayerCount: 2
Fore
SplineSet
412 -205 m 1,0,-1
 412 256 l 1,1,-1
 408 256 l 1,2,-1
 127 0 l 1,3,-1
 28 0 l 1,4,-1
 246 201 l 1,5,-1
 54 486 l 1,6,-1
 139 486 l 1,7,-1
 298 249 l 1,8,-1
 412 354 l 1,9,-1
 412 486 l 1,10,-1
 494 486 l 1,11,-1
 494 -205 l 1,12,-1
 412 -205 l 1,0,-1
EndSplineSet
EndChar

StartChar: uni026C
Encoding: 620 620 495
Width: 600
GlyphClass: 2
Flags: W
AnchorPoint: "Anchor-3" 385 -20 basechar 0
AnchorPoint: "Anchor-0" 285 736 basechar 0
LayerCount: 2
Fore
SplineSet
232 302 m 2,0,1
 148 302 148 302 112 331.5 c 128,-1,2
 76 361 76 361 76 408 c 0,3,4
 76 446 76 446 101.5 470 c 128,-1,5
 127 494 127 494 166 494 c 0,6,7
 194 494 194 494 213.5 484.5 c 128,-1,8
 233 475 233 475 247 460 c 1,9,-1
 247 645 l 1,10,-1
 74 645 l 1,11,-1
 74 712 l 1,12,-1
 329 712 l 1,13,-1
 329 366 l 1,14,-1
 469 366 l 1,15,-1
 469 302 l 1,16,-1
 329 302 l 1,17,-1
 329 157 l 2,18,19
 329 103 329 103 355 79.5 c 128,-1,20
 381 56 381 56 425 56 c 0,21,22
 468 56 468 56 516 78 c 1,23,-1
 537 17 l 1,24,25
 503 3 503 3 475 -4.5 c 128,-1,26
 447 -12 447 -12 407 -12 c 0,27,28
 329 -12 329 -12 288 32 c 128,-1,29
 247 76 247 76 247 163 c 2,30,-1
 247 302 l 1,31,-1
 232 302 l 2,0,1
214 366 m 2,32,-1
 247 366 l 1,33,-1
 247 372 l 2,34,35
 247 395 247 395 229.5 415.5 c 128,-1,36
 212 436 212 436 174 436 c 0,37,38
 160 436 160 436 151 427.5 c 128,-1,39
 142 419 142 419 142 404 c 0,40,41
 142 366 142 366 214 366 c 2,32,-1
EndSplineSet
Substitution2: "'ss04' Style Set 4 lookup 2 subtable" uni026C.a
EndChar

StartChar: uni026D
Encoding: 621 621 496
Width: 600
GlyphClass: 2
Flags: W
AnchorPoint: "Anchor-3" 385 -219 basechar 0
AnchorPoint: "Anchor-0" 285 736 basechar 0
LayerCount: 2
Fore
SplineSet
406 -183 m 0,0,1
 328 -183 328 -183 287.5 -139 c 128,-1,2
 247 -95 247 -95 247 -8 c 2,3,-1
 247 645 l 1,4,-1
 74 645 l 1,5,-1
 74 712 l 1,6,-1
 329 712 l 1,7,-1
 329 -14 l 2,8,9
 329 -68 329 -68 354.5 -91 c 128,-1,10
 380 -114 380 -114 424 -114 c 0,11,12
 445 -114 445 -114 467 -109 c 128,-1,13
 489 -104 489 -104 516 -92 c 1,14,-1
 537 -154 l 1,15,16
 504 -166 504 -166 475 -174.5 c 128,-1,17
 446 -183 446 -183 406 -183 c 0,0,1
EndSplineSet
EndChar

StartChar: uni026E
Encoding: 622 622 497
Width: 600
GlyphClass: 2
Flags: W
AnchorPoint: "Anchor-3" 357 -219 basechar 0
AnchorPoint: "Anchor-0" 123 736 basechar 0
LayerCount: 2
Fore
SplineSet
358 -217 m 0,0,1
 283 -217 283 -217 234.5 -193 c 128,-1,2
 186 -169 186 -169 155 -139 c 1,3,-1
 196 -87 l 1,4,5
 222 -112 222 -112 258.5 -130.5 c 128,-1,6
 295 -149 295 -149 351 -149 c 0,7,8
 379 -149 379 -149 404 -138.5 c 128,-1,9
 429 -128 429 -128 447.5 -108.5 c 128,-1,10
 466 -89 466 -89 476.5 -61.5 c 128,-1,11
 487 -34 487 -34 487 0 c 0,12,13
 487 62 487 62 452 97 c 128,-1,14
 417 132 417 132 355 132 c 0,15,16
 329 132 329 132 315.5 128.5 c 128,-1,17
 302 125 302 125 285 117 c 1,18,-1
 251 161 l 1,19,-1
 446 419 l 1,20,-1
 161 419 l 1,21,-1
 161 0 l 1,22,-1
 79 0 l 1,23,-1
 79 712 l 1,24,-1
 161 712 l 1,25,-1
 161 486 l 1,26,-1
 549 486 l 1,27,-1
 549 442 l 1,28,-1
 358 190 l 1,29,30
 410 194 410 194 449.5 180.5 c 128,-1,31
 489 167 489 167 516 141 c 128,-1,32
 543 115 543 115 557 79 c 128,-1,33
 571 43 571 43 571 2 c 0,34,35
 571 -51 571 -51 553 -91.5 c 128,-1,36
 535 -132 535 -132 505.5 -160 c 128,-1,37
 476 -188 476 -188 437.5 -202.5 c 128,-1,38
 399 -217 399 -217 358 -217 c 0,0,1
EndSplineSet
EndChar

StartChar: uni029F
Encoding: 671 671 498
Width: 600
GlyphClass: 2
Flags: W
AnchorPoint: "Anchor-3" 343 -20 basechar 0
AnchorPoint: "Anchor-0" 191 507 basechar 0
LayerCount: 2
Fore
SplineSet
148 0 m 1,0,-1
 148 486 l 1,1,-1
 230 486 l 1,2,-1
 230 67 l 1,3,-1
 532 67 l 1,4,-1
 532 0 l 1,5,-1
 148 0 l 1,0,-1
EndSplineSet
EndChar

StartChar: uni026F
Encoding: 623 623 499
Width: 600
GlyphClass: 2
Flags: W
AnchorPoint: "Anchor-3" 294 -20 basechar 0
AnchorPoint: "Anchor-0" 294 508 basechar 0
LayerCount: 2
Fore
SplineSet
542 486 m 1,0,-1
 542 0 l 1,1,-1
 476 0 l 1,2,-1
 469 64 l 1,3,-1
 467 64 l 1,4,5
 448 30 448 30 423 9 c 128,-1,6
 398 -12 398 -12 356 -12 c 0,7,8
 285 -12 285 -12 264 72 c 1,9,10
 243 33 243 33 217.5 10.5 c 128,-1,11
 192 -12 192 -12 150 -12 c 0,12,13
 99 -12 99 -12 70.5 26.5 c 128,-1,14
 42 65 42 65 42 138 c 2,15,-1
 42 486 l 1,16,-1
 124 486 l 1,17,-1
 124 144 l 2,18,19
 124 59 124 59 176 59 c 0,20,21
 202 59 202 59 218 77.5 c 128,-1,22
 234 96 234 96 254 134 c 1,23,-1
 254 486 l 1,24,-1
 330 486 l 1,25,-1
 330 144 l 2,26,27
 330 102 330 102 341.5 80.5 c 128,-1,28
 353 59 353 59 380 59 c 0,29,30
 406 59 406 59 424 77.5 c 128,-1,31
 442 96 442 96 460 134 c 1,32,-1
 460 486 l 1,33,-1
 542 486 l 1,0,-1
EndSplineSet
EndChar

StartChar: uni0270
Encoding: 624 624 500
Width: 600
GlyphClass: 2
Flags: W
AnchorPoint: "Anchor-3" 496 -226 basechar 0
AnchorPoint: "Anchor-0" 300 507 basechar 0
LayerCount: 2
Fore
SplineSet
464 -205 m 1,0,-1
 464 -33 l 1,1,-1
 470 67 l 1,2,-1
 466 67 l 1,3,4
 446 30 446 30 422 9 c 128,-1,5
 398 -12 398 -12 356 -12 c 0,6,7
 285 -12 285 -12 264 72 c 1,8,9
 243 33 243 33 217.5 10.5 c 128,-1,10
 192 -12 192 -12 150 -12 c 0,11,12
 99 -12 99 -12 70.5 26.5 c 128,-1,13
 42 65 42 65 42 138 c 2,14,-1
 42 486 l 1,15,-1
 124 486 l 1,16,-1
 124 144 l 2,17,18
 124 59 124 59 176 59 c 0,19,20
 202 59 202 59 218 77.5 c 128,-1,21
 234 96 234 96 254 134 c 1,22,-1
 254 486 l 1,23,-1
 330 486 l 1,24,-1
 330 144 l 2,25,26
 330 102 330 102 341.5 80.5 c 128,-1,27
 353 59 353 59 380 59 c 0,28,29
 406 59 406 59 424 77.5 c 128,-1,30
 442 96 442 96 460 134 c 1,31,-1
 460 486 l 1,32,-1
 542 486 l 1,33,-1
 542 -205 l 1,34,-1
 464 -205 l 1,0,-1
EndSplineSet
EndChar

StartChar: uni0271
Encoding: 625 625 501
Width: 600
GlyphClass: 2
Flags: W
AnchorPoint: "Anchor-3" 304 -219 basechar 0
AnchorPoint: "Anchor-0" 304 507 basechar 0
LayerCount: 2
Fore
SplineSet
435 -183 m 0,0,1
 415 -183 415 -183 398 -179.5 c 128,-1,2
 381 -176 381 -176 369 -171 c 1,3,-1
 385 -108 l 1,4,5
 393 -111 393 -111 404 -113.5 c 128,-1,6
 415 -116 415 -116 426 -116 c 0,7,8
 458 -116 458 -116 467 -92 c 128,-1,9
 476 -68 476 -68 476 -28 c 2,10,-1
 476 342 l 2,11,12
 476 427 476 427 424 427 c 0,13,14
 398 427 398 427 382 408.5 c 128,-1,15
 366 390 366 390 346 352 c 1,16,-1
 346 0 l 1,17,-1
 270 0 l 1,18,-1
 270 342 l 2,19,20
 270 384 270 384 258.5 405.5 c 128,-1,21
 247 427 247 427 220 427 c 0,22,23
 194 427 194 427 176 408.5 c 128,-1,24
 158 390 158 390 140 352 c 1,25,-1
 140 0 l 1,26,-1
 58 0 l 1,27,-1
 58 486 l 1,28,-1
 124 486 l 1,29,-1
 131 422 l 1,30,-1
 133 422 l 1,31,32
 152 456 152 456 177 477 c 128,-1,33
 202 498 202 498 244 498 c 0,34,35
 315 498 315 498 336 414 c 1,36,37
 357 453 357 453 382.5 475.5 c 128,-1,38
 408 498 408 498 450 498 c 0,39,40
 501 498 501 498 529.5 459.5 c 128,-1,41
 558 421 558 421 558 348 c 2,42,-1
 558 -32 l 2,43,44
 558 -103 558 -103 529.5 -143 c 128,-1,45
 501 -183 501 -183 435 -183 c 0,0,1
EndSplineSet
EndChar

StartChar: uni0272
Encoding: 626 626 502
Width: 600
GlyphClass: 2
Flags: W
AnchorPoint: "Anchor-3" 174 -219 basechar 0
AnchorPoint: "Anchor-0" 327 507 basechar 0
LayerCount: 2
Fore
SplineSet
56 -183 m 0,0,1
 37 -183 37 -183 21.5 -179 c 128,-1,2
 6 -175 6 -175 -5 -170 c 1,3,-1
 11 -107 l 1,4,5
 19 -110 19 -110 28 -113 c 128,-1,6
 37 -116 37 -116 47 -116 c 0,7,8
 76 -116 76 -116 86.5 -93 c 128,-1,9
 97 -70 97 -70 97 -28 c 2,10,-1
 97 486 l 1,11,-1
 165 486 l 1,12,-1
 172 403 l 1,13,-1
 176 403 l 1,14,15
 214 444 214 444 257 471 c 128,-1,16
 300 498 300 498 356 498 c 0,17,18
 442 498 442 498 482.5 448.5 c 128,-1,19
 523 399 523 399 523 302 c 2,20,-1
 523 0 l 1,21,-1
 441 0 l 1,22,-1
 441 291 l 2,23,24
 441 363 441 363 415 395 c 128,-1,25
 389 427 389 427 332 427 c 0,26,27
 310 427 310 427 291.5 421.5 c 128,-1,28
 273 416 273 416 255 405 c 128,-1,29
 237 394 237 394 219 377.5 c 128,-1,30
 201 361 201 361 180 339 c 1,31,-1
 180 -28 l 2,32,33
 180 -100 180 -100 152 -141.5 c 128,-1,34
 124 -183 124 -183 56 -183 c 0,0,1
EndSplineSet
EndChar

StartChar: uni0273
Encoding: 627 627 503
Width: 600
GlyphClass: 2
Flags: W
AnchorPoint: "Anchor-3" 430 -219 basechar 0
AnchorPoint: "Anchor-0" 324 507 basechar 0
LayerCount: 2
Fore
SplineSet
560 -183 m 0,0,1
 492 -183 492 -183 464.5 -141.5 c 128,-1,2
 437 -100 437 -100 437 -28 c 2,3,-1
 437 291 l 2,4,5
 437 363 437 363 411 395 c 128,-1,6
 385 427 385 427 327 427 c 0,7,8
 284 427 284 427 251 405 c 128,-1,9
 218 383 218 383 175 339 c 1,10,-1
 175 0 l 1,11,-1
 93 0 l 1,12,-1
 93 486 l 1,13,-1
 161 486 l 1,14,-1
 168 403 l 1,15,-1
 172 403 l 1,16,17
 210 444 210 444 252.5 471 c 128,-1,18
 295 498 295 498 351 498 c 0,19,20
 438 498 438 498 478.5 448.5 c 128,-1,21
 519 399 519 399 519 302 c 2,22,-1
 519 -28 l 2,23,24
 519 -70 519 -70 529.5 -93 c 128,-1,25
 540 -116 540 -116 569 -116 c 0,26,27
 579 -116 579 -116 588 -113 c 128,-1,28
 597 -110 597 -110 605 -107 c 1,29,-1
 621 -170 l 1,30,31
 610 -175 610 -175 594.5 -179 c 128,-1,32
 579 -183 579 -183 560 -183 c 0,0,1
EndSplineSet
EndChar

StartChar: uni0274
Encoding: 628 628 504
Width: 600
GlyphClass: 2
Flags: W
AnchorPoint: "Anchor-3" 302 -20 basechar 0
AnchorPoint: "Anchor-0" 309 507 basechar 0
LayerCount: 2
Fore
SplineSet
96 0 m 1,0,-1
 96 486 l 1,1,-1
 175 486 l 1,2,-1
 363 211 l 2,3,4
 378 188 378 188 396 159 c 128,-1,5
 414 130 414 130 430 107 c 1,6,-1
 434 107 l 1,7,8
 431 155 431 155 428.5 200 c 128,-1,9
 426 245 426 245 426 284 c 2,10,-1
 426 486 l 1,11,-1
 504 486 l 1,12,-1
 504 0 l 1,13,-1
 425 0 l 1,14,-1
 237 275 l 2,15,16
 222 298 222 298 203.5 327 c 128,-1,17
 185 356 185 356 170 379 c 1,18,-1
 166 379 l 1,19,20
 169 331 169 331 171.5 286 c 128,-1,21
 174 241 174 241 174 202 c 2,22,-1
 174 0 l 1,23,-1
 96 0 l 1,0,-1
EndSplineSet
EndChar

StartChar: uni0275
Encoding: 629 629 505
Width: 600
GlyphClass: 2
Flags: W
AnchorPoint: "Anchor-3" 300 -20 basechar 0
AnchorPoint: "Anchor-0" 300 507 basechar 0
LayerCount: 2
Fore
SplineSet
300 -12 m 256,0,1
 252 -12 252 -12 208.5 4 c 128,-1,2
 165 20 165 20 132 52 c 128,-1,3
 99 84 99 84 79.5 131.5 c 128,-1,4
 60 179 60 179 60 242 c 256,5,6
 60 305 60 305 79.5 353 c 128,-1,7
 99 401 99 401 132 433.5 c 128,-1,8
 165 466 165 466 208.5 482 c 128,-1,9
 252 498 252 498 300 498 c 256,10,11
 348 498 348 498 391.5 482 c 128,-1,12
 435 466 435 466 468 433.5 c 128,-1,13
 501 401 501 401 520.5 353 c 128,-1,14
 540 305 540 305 540 242 c 256,15,16
 540 179 540 179 520.5 131.5 c 128,-1,17
 501 84 501 84 468 52 c 128,-1,18
 435 20 435 20 391.5 4 c 128,-1,19
 348 -12 348 -12 300 -12 c 256,0,1
300 434 m 256,20,21
 237 434 237 434 194.5 395 c 128,-1,22
 152 356 152 356 141 284 c 1,23,-1
 459 284 l 1,24,25
 448 356 448 356 405.5 395 c 128,-1,26
 363 434 363 434 300 434 c 256,20,21
300 53 m 256,27,28
 368 53 368 53 411.5 96.5 c 128,-1,29
 455 140 455 140 461 220 c 1,30,-1
 139 220 l 1,31,32
 145 140 145 140 188.5 96.5 c 128,-1,33
 232 53 232 53 300 53 c 256,27,28
EndSplineSet
EndChar

StartChar: uni0276
Encoding: 630 630 506
Width: 600
GlyphClass: 2
Flags: W
AnchorPoint: "Anchor-3" 350 -20 basechar 0
AnchorPoint: "Anchor-0" 354 507 basechar 0
LayerCount: 2
Fore
SplineSet
238 -12 m 0,0,1
 196 -12 196 -12 158.5 4.5 c 128,-1,2
 121 21 121 21 93.5 53 c 128,-1,3
 66 85 66 85 49.5 132.5 c 128,-1,4
 33 180 33 180 33 243 c 256,5,6
 33 306 33 306 49.5 353.5 c 128,-1,7
 66 401 66 401 93.5 433 c 128,-1,8
 121 465 121 465 158.5 481.5 c 128,-1,9
 196 498 196 498 238 498 c 0,10,11
 262 498 262 498 284.5 496 c 128,-1,12
 307 494 307 494 336 486 c 1,13,-1
 577 486 l 1,14,-1
 577 418 l 1,15,-1
 387 418 l 1,16,-1
 387 284 l 1,17,-1
 540 284 l 1,18,-1
 540 220 l 1,19,-1
 387 220 l 1,20,-1
 387 68 l 1,21,-1
 587 68 l 1,22,-1
 587 0 l 1,23,-1
 336 0 l 1,24,25
 308 -7 308 -7 285 -9.5 c 128,-1,26
 262 -12 262 -12 238 -12 c 0,0,1
245 55 m 0,27,28
 260 55 260 55 277.5 58.5 c 128,-1,29
 295 62 295 62 311 67 c 1,30,-1
 311 418 l 1,31,32
 296 423 296 423 278.5 426.5 c 128,-1,33
 261 430 261 430 245 430 c 0,34,35
 218 430 218 430 195 418.5 c 128,-1,36
 172 407 172 407 155 383.5 c 128,-1,37
 138 360 138 360 128 325 c 128,-1,38
 118 290 118 290 118 243 c 0,39,40
 118 195 118 195 128 159.5 c 128,-1,41
 138 124 138 124 155 100.5 c 128,-1,42
 172 77 172 77 195 66 c 128,-1,43
 218 55 218 55 245 55 c 0,27,28
EndSplineSet
EndChar

StartChar: uni0278
Encoding: 632 632 507
Width: 600
GlyphClass: 2
Flags: W
AnchorPoint: "Anchor-3" 300 -219 basechar 0
AnchorPoint: "Anchor-0" 300 736 basechar 0
LayerCount: 2
Fore
SplineSet
128 244 m 256,0,1
 128 159 128 159 165.5 110.5 c 128,-1,2
 203 62 203 62 260 57 c 1,3,-1
 260 429 l 1,4,5
 203 424 203 424 165.5 376.5 c 128,-1,6
 128 329 128 329 128 244 c 256,0,1
472 244 m 256,7,8
 472 329 472 329 434.5 376.5 c 128,-1,9
 397 424 397 424 340 429 c 1,10,-1
 340 57 l 1,11,12
 397 62 397 62 434.5 110.5 c 128,-1,13
 472 159 472 159 472 244 c 256,7,8
260 -205 m 1,14,-1
 260 -9 l 1,15,16
 216 -6 216 -6 177 11.5 c 128,-1,17
 138 29 138 29 108.5 61 c 128,-1,18
 79 93 79 93 61.5 139 c 128,-1,19
 44 185 44 185 44 244 c 0,20,21
 44 302 44 302 61.5 348 c 128,-1,22
 79 394 79 394 108.5 425.5 c 128,-1,23
 138 457 138 457 177 474.5 c 128,-1,24
 216 492 216 492 260 495 c 1,25,-1
 260 712 l 1,26,-1
 340 712 l 1,27,-1
 340 495 l 1,28,29
 383 492 383 492 422.5 474.5 c 128,-1,30
 462 457 462 457 491.5 425.5 c 128,-1,31
 521 394 521 394 538.5 348 c 128,-1,32
 556 302 556 302 556 244 c 0,33,34
 556 185 556 185 538.5 139 c 128,-1,35
 521 93 521 93 491.5 61 c 128,-1,36
 462 29 462 29 422.5 11.5 c 128,-1,37
 383 -6 383 -6 340 -9 c 1,38,-1
 340 -205 l 1,39,-1
 260 -205 l 1,14,-1
EndSplineSet
EndChar

StartChar: uni0279
Encoding: 633 633 508
Width: 600
GlyphClass: 2
Flags: W
AnchorPoint: "Anchor-3" 271 -20 basechar 0
AnchorPoint: "Anchor-0" 410 507 basechar 0
LayerCount: 2
Fore
SplineSet
454 486 m 1,0,-1
 454 0 l 1,1,-1
 386 0 l 1,2,-1
 379 115 l 1,3,-1
 376 115 l 1,4,5
 338 56 338 56 282.5 22 c 128,-1,6
 227 -12 227 -12 159 -12 c 0,7,8
 132 -12 132 -12 109 -7.5 c 128,-1,9
 86 -3 86 -3 63 8 c 1,10,-1
 82 79 l 1,11,12
 108 70 108 70 125.5 66 c 128,-1,13
 143 62 143 62 172 62 c 0,14,15
 227 62 227 62 277.5 93.5 c 128,-1,16
 328 125 328 125 372 201 c 1,17,-1
 372 486 l 1,18,-1
 454 486 l 1,0,-1
EndSplineSet
EndChar

StartChar: uni027A
Encoding: 634 634 509
Width: 600
GlyphClass: 2
Flags: W
AnchorPoint: "Anchor-3" 271 -20 basechar 0
AnchorPoint: "Anchor-0" 410 736 basechar 0
LayerCount: 2
Fore
SplineSet
159 -12 m 0,0,1
 132 -12 132 -12 109 -7.5 c 128,-1,2
 86 -3 86 -3 63 8 c 1,3,-1
 82 79 l 1,4,5
 108 70 108 70 125.5 66 c 128,-1,6
 143 62 143 62 172 62 c 0,7,8
 227 62 227 62 277.5 93.5 c 128,-1,9
 328 125 328 125 372 201 c 1,10,-1
 372 712 l 1,11,-1
 454 712 l 1,12,-1
 454 0 l 1,13,-1
 386 0 l 1,14,-1
 379 115 l 1,15,-1
 376 115 l 1,16,17
 338 56 338 56 282.5 22 c 128,-1,18
 227 -12 227 -12 159 -12 c 0,0,1
EndSplineSet
EndChar

StartChar: uni027B
Encoding: 635 635 510
Width: 600
GlyphClass: 2
Flags: W
AnchorPoint: "Anchor-3" 304 -219 basechar 0
AnchorPoint: "Anchor-0" 326 507 basechar 0
LayerCount: 2
Fore
SplineSet
436 -183 m 0,0,1
 362 -183 362 -183 332 -141.5 c 128,-1,2
 302 -100 302 -100 302 -25 c 2,3,-1
 302 92 l 1,4,-1
 299 92 l 1,5,6
 274 44 274 44 236.5 16 c 128,-1,7
 199 -12 199 -12 150 -12 c 0,8,9
 129 -12 129 -12 107.5 -7.5 c 128,-1,10
 86 -3 86 -3 63 8 c 1,11,-1
 82 79 l 1,12,13
 104 70 104 70 119.5 66 c 128,-1,14
 135 62 135 62 159 62 c 0,15,16
 196 62 196 62 232.5 88.5 c 128,-1,17
 269 115 269 115 295 181 c 1,18,-1
 295 486 l 1,19,-1
 377 486 l 1,20,-1
 377 -15 l 2,21,22
 377 -69 377 -69 392 -92.5 c 128,-1,23
 407 -116 407 -116 445 -116 c 0,24,25
 459 -116 459 -116 474.5 -111.5 c 128,-1,26
 490 -107 490 -107 502 -102 c 1,27,-1
 520 -164 l 1,28,29
 505 -172 505 -172 482 -177.5 c 128,-1,30
 459 -183 459 -183 436 -183 c 0,0,1
EndSplineSet
EndChar

StartChar: uni027D
Encoding: 637 637 511
Width: 600
GlyphClass: 2
Flags: W
AnchorPoint: "Anchor-3" 328 -219 basechar 0
AnchorPoint: "Anchor-0" 356 507 basechar 0
LayerCount: 2
Fore
SplineSet
333 -183 m 0,0,1
 280 -183 280 -183 244 -168.5 c 128,-1,2
 208 -154 208 -154 186.5 -127.5 c 128,-1,3
 165 -101 165 -101 155.5 -64 c 128,-1,4
 146 -27 146 -27 146 18 c 2,5,-1
 146 486 l 1,6,-1
 214 486 l 1,7,-1
 221 371 l 1,8,-1
 224 371 l 1,9,10
 262 430 262 430 317.5 464 c 128,-1,11
 373 498 373 498 441 498 c 0,12,13
 468 498 468 498 491 493.5 c 128,-1,14
 514 489 514 489 537 478 c 1,15,-1
 518 407 l 1,16,17
 492 416 492 416 474.5 420 c 128,-1,18
 457 424 457 424 428 424 c 0,19,20
 373 424 373 424 322.5 392.5 c 128,-1,21
 272 361 272 361 228 285 c 1,22,-1
 228 17 l 2,23,24
 228 -16 228 -16 234 -40.5 c 128,-1,25
 240 -65 240 -65 254 -82 c 128,-1,26
 268 -99 268 -99 292 -107.5 c 128,-1,27
 316 -116 316 -116 351 -116 c 256,28,29
 386 -116 386 -116 414 -110 c 128,-1,30
 442 -104 442 -104 468 -94 c 1,31,-1
 485 -154 l 1,32,33
 452 -166 452 -166 416.5 -174.5 c 128,-1,34
 381 -183 381 -183 333 -183 c 0,0,1
EndSplineSet
EndChar

StartChar: uni027E
Encoding: 638 638 512
Width: 600
GlyphClass: 2
Flags: W
AnchorPoint: "Anchor-3" 191 -20 basechar 0
AnchorPoint: "Anchor-0" 356 507 basechar 0
LayerCount: 2
Fore
SplineSet
146 0 m 1,0,-1
 146 249 l 2,1,2
 146 309 146 309 164 355.5 c 128,-1,3
 182 402 182 402 215 433.5 c 128,-1,4
 248 465 248 465 295 481.5 c 128,-1,5
 342 498 342 498 401 498 c 0,6,7
 482 498 482 498 537 478 c 1,8,-1
 518 407 l 1,9,10
 487 418 487 418 463 421.5 c 128,-1,11
 439 425 439 425 410 425 c 0,12,13
 374 425 374 425 341 414 c 128,-1,14
 308 403 308 403 283 379.5 c 128,-1,15
 258 356 258 356 243 319.5 c 128,-1,16
 228 283 228 283 228 232 c 2,17,-1
 228 0 l 1,18,-1
 146 0 l 1,0,-1
EndSplineSet
EndChar

StartChar: uni0280
Encoding: 640 640 513
Width: 600
GlyphClass: 2
Flags: W
AnchorPoint: "Anchor-3" 316 -20 basechar 0
AnchorPoint: "Anchor-0" 316 507 basechar 0
LayerCount: 2
Fore
SplineSet
99 0 m 1,0,-1
 99 486 l 1,1,-1
 339 486 l 2,2,3
 378 486 378 486 412 478.5 c 128,-1,4
 446 471 446 471 470.5 454 c 128,-1,5
 495 437 495 437 509 409.5 c 128,-1,6
 523 382 523 382 523 342 c 0,7,8
 523 279 523 279 487 243.5 c 128,-1,9
 451 208 451 208 400 196 c 1,10,-1
 545 0 l 1,11,-1
 452 0 l 1,12,-1
 315 190 l 1,13,-1
 182 190 l 1,14,-1
 182 0 l 1,15,-1
 99 0 l 1,0,-1
182 254 m 1,16,-1
 325 254 l 2,17,18
 380 254 380 254 410.5 275.5 c 128,-1,19
 441 297 441 297 441 340 c 0,20,21
 441 384 441 384 410.5 402 c 128,-1,22
 380 420 380 420 325 420 c 2,23,-1
 182 420 l 1,24,-1
 182 254 l 1,16,-1
EndSplineSet
EndChar

StartChar: uni0281
Encoding: 641 641 514
Width: 600
GlyphClass: 2
Flags: W
AnchorPoint: "Anchor-3" 304 -20 basechar 0
AnchorPoint: "Anchor-0" 290 507 basechar 0
LayerCount: 2
Fore
SplineSet
501 486 m 1,0,-1
 501 0 l 1,1,-1
 261 0 l 2,2,3
 222 0 222 0 188 7.5 c 128,-1,4
 154 15 154 15 129.5 32 c 128,-1,5
 105 49 105 49 91 76.5 c 128,-1,6
 77 104 77 104 77 144 c 0,7,8
 77 207 77 207 113 242.5 c 128,-1,9
 149 278 149 278 200 290 c 1,10,-1
 55 486 l 1,11,-1
 148 486 l 1,12,-1
 285 296 l 1,13,-1
 418 296 l 1,14,-1
 418 486 l 1,15,-1
 501 486 l 1,0,-1
418 232 m 1,16,-1
 275 232 l 2,17,18
 220 232 220 232 189.5 210.5 c 128,-1,19
 159 189 159 189 159 146 c 0,20,21
 159 102 159 102 189.5 84 c 128,-1,22
 220 66 220 66 275 66 c 2,23,-1
 418 66 l 1,24,-1
 418 232 l 1,16,-1
EndSplineSet
EndChar

StartChar: uni0282
Encoding: 642 642 515
Width: 600
GlyphClass: 2
Flags: W
AnchorPoint: "Anchor-3" 310 -219 basechar 0
AnchorPoint: "Anchor-0" 303 507 basechar 0
LayerCount: 2
Fore
SplineSet
197 -183 m 0,0,1
 130 -183 130 -183 100.5 -142 c 128,-1,2
 71 -101 71 -101 71 -21 c 2,3,-1
 71 64 l 1,4,-1
 109 118 l 1,5,6
 151 88 151 88 201.5 70 c 128,-1,7
 252 52 252 52 320 52 c 0,8,9
 382 52 382 52 412.5 74.5 c 128,-1,10
 443 97 443 97 443 128 c 0,11,12
 443 142 443 142 438 154 c 128,-1,13
 433 166 433 166 416.5 177 c 128,-1,14
 400 188 400 188 370 198 c 128,-1,15
 340 208 340 208 291 218 c 0,16,17
 196 238 196 238 148.5 271.5 c 128,-1,18
 101 305 101 305 101 360 c 0,19,20
 101 389 101 389 114 414.5 c 128,-1,21
 127 440 127 440 152.5 458.5 c 128,-1,22
 178 477 178 477 215.5 487.5 c 128,-1,23
 253 498 253 498 303 498 c 0,24,25
 359 498 359 498 411 479.5 c 128,-1,26
 463 461 463 461 499 436 c 1,27,-1
 459 383 l 1,28,29
 425 406 425 406 384 420 c 128,-1,30
 343 434 343 434 296 434 c 0,31,32
 234 434 234 434 209 413 c 128,-1,33
 184 392 184 392 184 364 c 0,34,35
 184 332 184 332 217 315.5 c 128,-1,36
 250 299 250 299 325 283 c 0,37,38
 386 270 386 270 425 255.5 c 128,-1,39
 464 241 464 241 486.5 223 c 128,-1,40
 509 205 509 205 517.5 183 c 128,-1,41
 526 161 526 161 526 133 c 0,42,43
 526 103 526 103 512 77 c 128,-1,44
 498 51 498 51 470.5 31 c 128,-1,45
 443 11 443 11 402.5 -0.5 c 128,-1,46
 362 -12 362 -12 310 -12 c 0,47,48
 265 -12 265 -12 223 -2.5 c 128,-1,49
 181 7 181 7 145 23 c 1,50,-1
 145 -30 l 2,51,52
 145 -69 145 -69 157.5 -93 c 128,-1,53
 170 -117 170 -117 206 -117 c 0,54,55
 219 -117 219 -117 231 -114.5 c 128,-1,56
 243 -112 243 -112 252 -109 c 1,57,-1
 268 -170 l 1,58,59
 256 -175 256 -175 238 -179 c 128,-1,60
 220 -183 220 -183 197 -183 c 0,0,1
EndSplineSet
EndChar

StartChar: uni0283
Encoding: 643 643 516
Width: 600
GlyphClass: 2
Flags: W
AnchorPoint: "Anchor-3" 256 -219 basechar 0
AnchorPoint: "Anchor-0" 362 736 basechar 0
LayerCount: 2
Fore
SplineSet
187 -217 m 0,0,1
 147 -217 147 -217 116 -208 c 128,-1,2
 85 -199 85 -199 56 -185 c 1,3,-1
 82 -124 l 1,4,5
 105 -135 105 -135 128 -142.5 c 128,-1,6
 151 -150 151 -150 177 -150 c 0,7,8
 202 -150 202 -150 218.5 -141.5 c 128,-1,9
 235 -133 235 -133 244 -117 c 128,-1,10
 253 -101 253 -101 256.5 -78.5 c 128,-1,11
 260 -56 260 -56 260 -29 c 2,12,-1
 260 538 l 2,13,14
 260 626 260 626 298 676 c 128,-1,15
 336 726 336 726 426 726 c 0,16,17
 462 726 462 726 488 717.5 c 128,-1,18
 514 709 514 709 541 695 c 1,19,-1
 518 634 l 1,20,21
 496 645 496 645 477 652 c 128,-1,22
 458 659 458 659 435 659 c 0,23,24
 407 659 407 659 389 650.5 c 128,-1,25
 371 642 371 642 360.5 626 c 128,-1,26
 350 610 350 610 346 587.5 c 128,-1,27
 342 565 342 565 342 538 c 2,28,-1
 342 -30 l 2,29,30
 342 -118 342 -118 307 -167.5 c 128,-1,31
 272 -217 272 -217 187 -217 c 0,0,1
EndSplineSet
EndChar

StartChar: uni0284
Encoding: 644 644 517
Width: 600
GlyphClass: 2
Flags: W
AnchorPoint: "Anchor-3" 256 -219 basechar 0
AnchorPoint: "Anchor-0" 362 736 basechar 0
LayerCount: 2
Fore
SplineSet
187 -217 m 0,0,1
 147 -217 147 -217 116 -208 c 128,-1,2
 85 -199 85 -199 56 -185 c 1,3,-1
 82 -124 l 1,4,5
 105 -135 105 -135 128 -142.5 c 128,-1,6
 151 -150 151 -150 177 -150 c 0,7,8
 202 -150 202 -150 218.5 -141.5 c 128,-1,9
 235 -133 235 -133 244 -117 c 128,-1,10
 253 -101 253 -101 256.5 -78.5 c 128,-1,11
 260 -56 260 -56 260 -29 c 2,12,-1
 260 222 l 1,13,-1
 84 222 l 1,14,-1
 84 280 l 1,15,-1
 260 286 l 1,16,-1
 260 538 l 2,17,18
 260 626 260 626 298 676 c 128,-1,19
 336 726 336 726 426 726 c 0,20,21
 462 726 462 726 488 717.5 c 128,-1,22
 514 709 514 709 541 695 c 1,23,-1
 518 634 l 1,24,25
 496 645 496 645 477 652 c 128,-1,26
 458 659 458 659 435 659 c 0,27,28
 407 659 407 659 389 650.5 c 128,-1,29
 371 642 371 642 360.5 626 c 128,-1,30
 350 610 350 610 346 587.5 c 128,-1,31
 342 565 342 565 342 538 c 2,32,-1
 342 286 l 1,33,-1
 516 286 l 1,34,-1
 516 222 l 1,35,-1
 342 222 l 1,36,-1
 342 -30 l 2,37,38
 342 -118 342 -118 307 -167.5 c 128,-1,39
 272 -217 272 -217 187 -217 c 0,0,1
EndSplineSet
EndChar

StartChar: uni0287
Encoding: 647 647 518
Width: 600
GlyphClass: 2
Flags: W
AnchorPoint: "Anchor-3" 352 -72 basechar 0
AnchorPoint: "Anchor-0" 235 507 basechar 0
LayerCount: 2
Fore
SplineSet
206 498 m 0,0,1
 259 498 259 498 295 483.5 c 128,-1,2
 331 469 331 469 353 442.5 c 128,-1,3
 375 416 375 416 384.5 379 c 128,-1,4
 394 342 394 342 394 297 c 2,5,-1
 394 67 l 1,6,-1
 531 67 l 1,7,-1
 531 5 l 1,8,-1
 391 0 l 1,9,-1
 380 -156 l 1,10,-1
 312 -156 l 1,11,-1
 312 0 l 1,12,-1
 73 0 l 1,13,-1
 73 67 l 1,14,-1
 312 67 l 1,15,-1
 312 298 l 2,16,17
 312 363 312 363 285.5 397 c 128,-1,18
 259 431 259 431 189 431 c 0,19,20
 154 431 154 431 126 425 c 128,-1,21
 98 419 98 419 72 409 c 1,22,-1
 54 469 l 1,23,24
 87 481 87 481 123.5 489.5 c 128,-1,25
 160 498 160 498 206 498 c 0,0,1
EndSplineSet
EndChar

StartChar: uni0288
Encoding: 648 648 519
Width: 600
GlyphClass: 2
Flags: W
AnchorPoint: "Anchor-3" 380 -219 basechar 0
AnchorPoint: "Anchor-0" 253 643 basechar 0
LayerCount: 2
Fore
SplineSet
393 -183 m 0,0,1
 340 -183 340 -183 304 -168.5 c 128,-1,2
 268 -154 268 -154 246.5 -127.5 c 128,-1,3
 225 -101 225 -101 215.5 -64 c 128,-1,4
 206 -27 206 -27 206 18 c 2,5,-1
 206 419 l 1,6,-1
 69 419 l 1,7,-1
 69 481 l 1,8,-1
 209 486 l 1,9,-1
 220 642 l 1,10,-1
 288 642 l 1,11,-1
 288 486 l 1,12,-1
 527 486 l 1,13,-1
 527 419 l 1,14,-1
 288 419 l 1,15,-1
 288 17 l 2,16,17
 288 -16 288 -16 294 -40.5 c 128,-1,18
 300 -65 300 -65 314 -82 c 128,-1,19
 328 -99 328 -99 352 -107.5 c 128,-1,20
 376 -116 376 -116 411 -116 c 256,21,22
 446 -116 446 -116 474 -110 c 128,-1,23
 502 -104 502 -104 528 -94 c 1,24,-1
 546 -154 l 1,25,26
 513 -166 513 -166 473 -174.5 c 128,-1,27
 433 -183 433 -183 393 -183 c 0,0,1
EndSplineSet
EndChar

StartChar: uni0289
Encoding: 649 649 520
Width: 600
GlyphClass: 2
Flags: W
AnchorPoint: "Anchor-3" 300 -20 basechar 0
AnchorPoint: "Anchor-2" 443 0 basechar 0
AnchorPoint: "Anchor-0" 295 507 basechar 0
LayerCount: 2
Fore
SplineSet
272 60 m 0,0,1
 310 60 310 60 338.5 79 c 128,-1,2
 367 98 367 98 402 142 c 1,3,-1
 402 254 l 1,4,-1
 180 254 l 1,5,-1
 180 188 l 2,6,7
 180 120 180 120 202 90 c 128,-1,8
 224 60 224 60 272 60 c 0,0,1
246 -12 m 0,9,10
 169 -12 169 -12 133.5 36 c 128,-1,11
 98 84 98 84 98 178 c 2,12,-1
 98 254 l 1,13,-1
 2 254 l 1,14,-1
 2 312 l 1,15,-1
 98 318 l 1,16,-1
 98 486 l 1,17,-1
 180 486 l 1,18,-1
 180 318 l 1,19,-1
 402 318 l 1,20,-1
 402 486 l 1,21,-1
 484 486 l 1,22,-1
 484 318 l 1,23,-1
 586 318 l 1,24,-1
 586 254 l 1,25,-1
 484 254 l 1,26,-1
 484 0 l 1,27,-1
 416 0 l 1,28,-1
 410 76 l 1,29,-1
 408 76 l 1,30,31
 373 35 373 35 335 11.5 c 128,-1,32
 297 -12 297 -12 246 -12 c 0,9,10
EndSplineSet
EndChar

StartChar: uni028A
Encoding: 650 650 521
Width: 600
GlyphClass: 2
Flags: W
AnchorPoint: "Anchor-3" 300 -20 basechar 0
AnchorPoint: "Anchor-0" 300 507 basechar 0
LayerCount: 2
Fore
SplineSet
300 -12 m 256,0,1
 243 -12 243 -12 199 6.5 c 128,-1,2
 155 25 155 25 124.5 56 c 128,-1,3
 94 87 94 87 78 127 c 128,-1,4
 62 167 62 167 62 209 c 0,5,6
 62 246 62 246 70.5 277.5 c 128,-1,7
 79 309 79 309 92.5 334.5 c 128,-1,8
 106 360 106 360 122.5 380.5 c 128,-1,9
 139 401 139 401 156 417 c 1,10,-1
 156 419 l 1,11,-1
 50 419 l 1,12,-1
 50 486 l 1,13,-1
 245 486 l 1,14,-1
 245 433 l 1,15,16
 202 397 202 397 174 348 c 128,-1,17
 146 299 146 299 146 226 c 0,18,19
 146 192 146 192 155.5 161 c 128,-1,20
 165 130 165 130 184.5 107 c 128,-1,21
 204 84 204 84 233 70 c 128,-1,22
 262 56 262 56 300 56 c 256,23,24
 338 56 338 56 367 70 c 128,-1,25
 396 84 396 84 415.5 107 c 128,-1,26
 435 130 435 130 444.5 161 c 128,-1,27
 454 192 454 192 454 226 c 0,28,29
 454 299 454 299 426 348 c 128,-1,30
 398 397 398 397 355 433 c 1,31,-1
 355 486 l 1,32,-1
 550 486 l 1,33,-1
 550 419 l 1,34,-1
 444 419 l 1,35,-1
 444 417 l 1,36,37
 460 401 460 401 477 380.5 c 128,-1,38
 494 360 494 360 507.5 334.5 c 128,-1,39
 521 309 521 309 529.5 277.5 c 128,-1,40
 538 246 538 246 538 209 c 0,41,42
 538 167 538 167 522 127 c 128,-1,43
 506 87 506 87 475.5 56 c 128,-1,44
 445 25 445 25 401 6.5 c 128,-1,45
 357 -12 357 -12 300 -12 c 256,0,1
EndSplineSet
EndChar

StartChar: uni028B
Encoding: 651 651 522
Width: 600
GlyphClass: 2
Flags: W
AnchorPoint: "Anchor-3" 303 -20 basechar 0
AnchorPoint: "Anchor-0" 303 507 basechar 0
LayerCount: 2
Fore
SplineSet
297 -12 m 0,0,1
 250 -12 250 -12 209.5 1 c 128,-1,2
 169 14 169 14 139.5 41.5 c 128,-1,3
 110 69 110 69 93.5 111.5 c 128,-1,4
 77 154 77 154 77 212 c 2,5,-1
 77 486 l 1,6,-1
 160 486 l 1,7,-1
 160 219 l 2,8,9
 160 175 160 175 171 144 c 128,-1,10
 182 113 182 113 201 93.5 c 128,-1,11
 220 74 220 74 245.5 65 c 128,-1,12
 271 56 271 56 300 56 c 0,13,14
 337 56 337 56 366 73 c 128,-1,15
 395 90 395 90 415 120.5 c 128,-1,16
 435 151 435 151 445 192 c 128,-1,17
 455 233 455 233 455 281 c 0,18,19
 455 355 455 355 433.5 393.5 c 128,-1,20
 412 432 412 432 367 432 c 0,21,22
 353 432 353 432 347.5 430.5 c 128,-1,23
 342 429 342 429 332 426 c 1,24,-1
 319 490 l 1,25,26
 333 494 333 494 346.5 496 c 128,-1,27
 360 498 360 498 384 498 c 0,28,29
 455 498 455 498 497.5 448 c 128,-1,30
 540 398 540 398 540 293 c 0,31,32
 540 227 540 227 524.5 171 c 128,-1,33
 509 115 509 115 478.5 74.5 c 128,-1,34
 448 34 448 34 402.5 11 c 128,-1,35
 357 -12 357 -12 297 -12 c 0,0,1
EndSplineSet
EndChar

StartChar: uni028C
Encoding: 652 652 523
Width: 600
GlyphClass: 2
Flags: W
AnchorPoint: "Anchor-3" 300 -20 basechar 0
AnchorPoint: "Anchor-0" 300 507 basechar 0
LayerCount: 2
Fore
SplineSet
344 486 m 1,0,-1
 549 0 l 1,1,-1
 466 0 l 1,2,-1
 354 276 l 2,3,4
 339 313 339 313 325.5 348.5 c 128,-1,5
 312 384 312 384 299 419 c 1,6,-1
 295 419 l 1,7,8
 282 384 282 384 269.5 348.5 c 128,-1,9
 257 313 257 313 242 276 c 2,10,-1
 130 0 l 1,11,-1
 51 0 l 1,12,-1
 252 486 l 1,13,-1
 344 486 l 1,0,-1
EndSplineSet
EndChar

StartChar: uni028D
Encoding: 653 653 524
Width: 600
GlyphClass: 2
Flags: W
AnchorPoint: "Anchor-3" 300 -20 basechar 0
AnchorPoint: "Anchor-0" 300 507 basechar 0
LayerCount: 2
Fore
SplineSet
486 486 m 1,0,-1
 592 0 l 1,1,-1
 510 0 l 1,2,-1
 452 282 l 2,3,4
 445 317 445 317 440 349 c 128,-1,5
 435 381 435 381 430 416 c 1,6,-1
 426 416 l 1,7,8
 421 381 421 381 413.5 348.5 c 128,-1,9
 406 316 406 316 398 282 c 2,10,-1
 338 30 l 1,11,-1
 256 30 l 1,12,-1
 198 282 l 2,13,14
 190 317 190 317 181.5 349 c 128,-1,15
 173 381 173 381 168 416 c 1,16,-1
 164 416 l 1,17,18
 158 381 158 381 153.5 349 c 128,-1,19
 149 317 149 317 142 282 c 2,20,-1
 84 0 l 1,21,-1
 8 0 l 1,22,-1
 112 486 l 1,23,-1
 218 486 l 1,24,-1
 274 254 l 2,25,26
 286 203 286 203 298 110 c 1,27,-1
 302 110 l 1,28,29
 314 203 314 203 326 254 c 2,30,-1
 380 486 l 1,31,-1
 486 486 l 1,0,-1
EndSplineSet
EndChar

StartChar: uni028E
Encoding: 654 654 525
Width: 600
GlyphClass: 2
Flags: W
AnchorPoint: "Anchor-3" 306 -20 basechar 0
AnchorPoint: "Anchor-0" 397 736 basechar 0
LayerCount: 2
Fore
SplineSet
49 0 m 1,0,-1
 275 554 l 2,1,2
 288 590 288 590 306 621 c 128,-1,3
 324 652 324 652 348 675 c 128,-1,4
 372 698 372 698 403 711 c 128,-1,5
 434 724 434 724 473 724 c 0,6,7
 490 724 490 724 506.5 721.5 c 128,-1,8
 523 719 523 719 537 714 c 1,9,-1
 519 649 l 1,10,11
 510 652 510 652 499.5 654 c 128,-1,12
 489 656 489 656 477 656 c 0,13,14
 429 656 429 656 398.5 626 c 128,-1,15
 368 596 368 596 351 550 c 2,16,-1
 324 487 l 1,17,-1
 551 0 l 1,18,-1
 468 0 l 1,19,-1
 349 269 l 2,20,21
 335 301 335 301 319.5 338 c 128,-1,22
 304 375 304 375 289 410 c 1,23,-1
 285 410 l 1,24,25
 272 375 272 375 258.5 338.5 c 128,-1,26
 245 302 245 302 233 269 c 2,27,-1
 127 0 l 1,28,-1
 49 0 l 1,0,-1
EndSplineSet
EndChar

StartChar: uni028F
Encoding: 655 655 526
Width: 600
GlyphClass: 2
Flags: W
AnchorPoint: "Anchor-3" 300 -20 basechar 0
AnchorPoint: "Anchor-0" 300 507 basechar 0
LayerCount: 2
Fore
SplineSet
260 0 m 1,0,-1
 260 164 l 1,1,-1
 57 486 l 1,2,-1
 146 486 l 1,3,-1
 231 348 l 2,4,5
 248 316 248 316 265.5 287.5 c 128,-1,6
 283 259 283 259 300 226 c 1,7,-1
 304 226 l 1,8,9
 321 259 321 259 337 287.5 c 128,-1,10
 353 316 353 316 373 348 c 2,11,-1
 457 486 l 1,12,-1
 545 486 l 1,13,-1
 342 164 l 1,14,-1
 342 0 l 1,15,-1
 260 0 l 1,0,-1
EndSplineSet
EndChar

StartChar: uni0290
Encoding: 656 656 527
Width: 600
GlyphClass: 2
Flags: W
AnchorPoint: "Anchor-0" 320 507 basechar 0
LayerCount: 2
Fore
SplineSet
559 -183 m 0,0,1
 491 -183 491 -183 463 -142.5 c 128,-1,2
 435 -102 435 -102 435 -36 c 2,3,-1
 435 0 l 1,4,-1
 71 0 l 1,5,-1
 71 44 l 1,6,-1
 397 419 l 1,7,-1
 108 419 l 1,8,-1
 108 486 l 1,9,-1
 515 486 l 1,10,-1
 515 442 l 1,11,-1
 188 67 l 1,12,-1
 517 67 l 1,13,-1
 517 -28 l 2,14,15
 517 -70 517 -70 528 -93 c 128,-1,16
 539 -116 539 -116 568 -116 c 0,17,18
 578 -116 578 -116 587 -113 c 128,-1,19
 596 -110 596 -110 604 -107 c 1,20,-1
 620 -170 l 1,21,22
 609 -175 609 -175 593.5 -179 c 128,-1,23
 578 -183 578 -183 559 -183 c 0,0,1
EndSplineSet
EndChar

StartChar: uni0291
Encoding: 657 657 528
Width: 600
GlyphClass: 2
Flags: W
AnchorPoint: "Anchor-0" 311 507 basechar 0
LayerCount: 2
Fore
SplineSet
358 -116 m 1,0,-1
 296 -106 l 1,1,2
 301 -77 301 -77 306.5 -50.5 c 128,-1,3
 312 -24 312 -24 319 0 c 1,4,-1
 71 0 l 1,5,-1
 71 44 l 1,6,-1
 395 419 l 1,7,-1
 108 419 l 1,8,-1
 108 486 l 1,9,-1
 503 486 l 1,10,-1
 503 442 l 1,11,-1
 180 67 l 1,12,13
 225 66 225 66 263.5 65.5 c 128,-1,14
 302 65 302 65 339 65 c 1,15,16
 396 216 396 216 492 216 c 0,17,18
 531 216 531 216 556.5 191.5 c 128,-1,19
 582 167 582 167 582 126 c 0,20,21
 582 72 582 72 543 36 c 128,-1,22
 504 0 504 0 426 0 c 2,23,-1
 381 0 l 1,24,25
 375 -25 375 -25 369 -53.5 c 128,-1,26
 363 -82 363 -82 358 -116 c 1,0,-1
445 64 m 2,27,28
 482 64 482 64 501 81.5 c 128,-1,29
 520 99 520 99 520 122 c 0,30,31
 520 139 520 139 510.5 147.5 c 128,-1,32
 501 156 501 156 486 156 c 0,33,34
 465 156 465 156 443.5 135 c 128,-1,35
 422 114 422 114 402 64 c 1,36,-1
 445 64 l 2,27,28
EndSplineSet
EndChar

StartChar: uni0292
Encoding: 658 658 529
Width: 600
GlyphClass: 2
Flags: W
AnchorPoint: "Anchor-3" 286 -226 basechar 0
AnchorPoint: "Anchor-0" 304 507 basechar 0
LayerCount: 2
Fore
SplineSet
288 -217 m 0,0,1
 246 -217 246 -217 212 -209 c 128,-1,2
 178 -201 178 -201 150 -187.5 c 128,-1,3
 122 -174 122 -174 100 -157.5 c 128,-1,4
 78 -141 78 -141 59 -123 c 1,5,-1
 99 -70 l 1,6,7
 115 -85 115 -85 133.5 -99.5 c 128,-1,8
 152 -114 152 -114 174 -125 c 128,-1,9
 196 -136 196 -136 222.5 -142.5 c 128,-1,10
 249 -149 249 -149 281 -149 c 0,11,12
 314 -149 314 -149 344 -138 c 128,-1,13
 374 -127 374 -127 396 -107 c 128,-1,14
 418 -87 418 -87 431 -59 c 128,-1,15
 444 -31 444 -31 444 4 c 0,16,17
 444 69 444 69 401 105.5 c 128,-1,18
 358 142 358 142 277 142 c 0,19,20
 261 142 261 142 249 140.5 c 128,-1,21
 237 139 237 139 226.5 136 c 128,-1,22
 216 133 216 133 205.5 128 c 128,-1,23
 195 123 195 123 181 117 c 1,24,-1
 148 163 l 1,25,-1
 399 419 l 1,26,-1
 99 419 l 1,27,-1
 99 486 l 1,28,-1
 506 486 l 1,29,-1
 506 442 l 1,30,-1
 268 194 l 1,31,32
 292 200 292 200 311 200 c 0,33,34
 362 200 362 200 402 186 c 128,-1,35
 442 172 442 172 469.5 146.5 c 128,-1,36
 497 121 497 121 512 85 c 128,-1,37
 527 49 527 49 527 6 c 0,38,39
 527 -48 527 -48 507 -89.5 c 128,-1,40
 487 -131 487 -131 454 -159.5 c 128,-1,41
 421 -188 421 -188 377.5 -202.5 c 128,-1,42
 334 -217 334 -217 288 -217 c 0,0,1
EndSplineSet
EndChar

StartChar: uni02A4
Encoding: 676 676 530
Width: 600
GlyphClass: 2
Flags: W
AnchorPoint: "Anchor-3" 330 -219 basechar 0
AnchorPoint: "Anchor-0" 280 730 basechar 0
LayerCount: 2
Fore
SplineSet
172 57 m 0,0,1
 198 57 198 57 217.5 78 c 128,-1,2
 237 99 237 99 252 132 c 1,3,-1
 252 372 l 1,4,5
 235 399 235 399 218.5 414 c 128,-1,6
 202 429 202 429 178 429 c 0,7,8
 157 429 157 429 139 415.5 c 128,-1,9
 121 402 121 402 108.5 377.5 c 128,-1,10
 96 353 96 353 89 318.5 c 128,-1,11
 82 284 82 284 82 243 c 0,12,13
 82 156 82 156 104.5 106.5 c 128,-1,14
 127 57 127 57 172 57 c 0,0,1
450 -217 m 0,15,16
 400 -217 400 -217 367 -200.5 c 128,-1,17
 334 -184 334 -184 308 -158 c 1,18,-1
 347 -106 l 1,19,20
 367 -126 367 -126 389.5 -137.5 c 128,-1,21
 412 -149 412 -149 444 -149 c 0,22,23
 485 -149 485 -149 510.5 -112 c 128,-1,24
 536 -75 536 -75 536 0 c 0,25,26
 536 63 536 63 513.5 97.5 c 128,-1,27
 491 132 491 132 447 132 c 0,28,29
 431 132 431 132 421 128.5 c 128,-1,30
 411 125 411 125 397 117 c 1,31,-1
 364 169 l 1,32,-1
 510 419 l 1,33,-1
 328 419 l 1,34,-1
 328 0 l 1,35,-1
 269 0 l 1,36,-1
 262 58 l 1,37,-1
 259 58 l 1,38,39
 243 31 243 31 216.5 9.5 c 128,-1,40
 190 -12 190 -12 155 -12 c 0,41,42
 121 -12 121 -12 92.5 5 c 128,-1,43
 64 22 64 22 43.5 55 c 128,-1,44
 23 88 23 88 11.5 135 c 128,-1,45
 0 182 0 182 0 242 c 0,46,47
 0 300 0 300 13.5 347.5 c 128,-1,48
 27 395 27 395 49.5 428.5 c 128,-1,49
 72 462 72 462 101.5 480 c 128,-1,50
 131 498 131 498 164 498 c 0,51,52
 194 498 194 498 216.5 483 c 128,-1,53
 239 468 239 468 254 442 c 1,54,-1
 256 442 l 1,55,-1
 252 535 l 1,56,-1
 252 712 l 1,57,-1
 328 712 l 1,58,-1
 328 486 l 1,59,-1
 597 486 l 1,60,-1
 597 442 l 1,61,-1
 456 195 l 1,62,63
 460 196 460 196 468 196 c 0,64,65
 504 196 504 196 531.5 180.5 c 128,-1,66
 559 165 559 165 578.5 138.5 c 128,-1,67
 598 112 598 112 608 76 c 128,-1,68
 618 40 618 40 618 0 c 0,69,70
 618 -52 618 -52 605 -92.5 c 128,-1,71
 592 -133 592 -133 569.5 -160.5 c 128,-1,72
 547 -188 547 -188 516 -202.5 c 128,-1,73
 485 -217 485 -217 450 -217 c 0,15,16
EndSplineSet
EndChar

StartChar: uni02A6
Encoding: 678 678 531
Width: 600
GlyphClass: 2
Flags: W
AnchorPoint: "Anchor-3" 334 -20 basechar 0
AnchorPoint: "Anchor-0" 330 643 basechar 0
LayerCount: 2
Fore
SplineSet
328 -12 m 0,0,1
 263 -12 263 -12 219 0.5 c 128,-1,2
 175 13 175 13 148 37 c 128,-1,3
 121 61 121 61 109.5 96 c 128,-1,4
 98 131 98 131 98 176 c 2,5,-1
 98 419 l 1,6,-1
 25 419 l 1,7,-1
 25 481 l 1,8,-1
 101 486 l 1,9,-1
 111 642 l 1,10,-1
 180 642 l 1,11,-1
 180 486 l 1,12,-1
 368 486 l 1,13,14
 398 498 398 498 436 498 c 0,15,16
 473 498 473 498 505.5 485.5 c 128,-1,17
 538 473 538 473 564 450 c 1,18,-1
 532 402 l 1,19,20
 510 419 510 419 489 428 c 128,-1,21
 468 437 468 437 442 437 c 0,22,23
 413 437 413 437 395.5 422 c 128,-1,24
 378 407 378 407 378 379 c 0,25,26
 378 356 378 356 392 340.5 c 128,-1,27
 406 325 406 325 427.5 312 c 128,-1,28
 449 299 449 299 474 285 c 128,-1,29
 499 271 499 271 520.5 251 c 128,-1,30
 542 231 542 231 556 203 c 128,-1,31
 570 175 570 175 570 133 c 0,32,33
 570 99 570 99 557 72 c 128,-1,34
 544 45 544 45 515.5 26.5 c 128,-1,35
 487 8 487 8 441 -2 c 128,-1,36
 395 -12 395 -12 328 -12 c 0,0,1
332 52 m 0,37,38
 424 52 424 52 459.5 74 c 128,-1,39
 495 96 495 96 495 134 c 0,40,41
 495 165 495 165 480.5 186 c 128,-1,42
 466 207 466 207 444.5 222.5 c 128,-1,43
 423 238 423 238 397.5 252 c 128,-1,44
 372 266 372 266 350.5 283 c 128,-1,45
 329 300 329 300 314.5 323 c 128,-1,46
 300 346 300 346 300 381 c 0,47,48
 300 401 300 401 305 419 c 1,49,-1
 180 419 l 1,50,-1
 180 175 l 2,51,52
 180 142 180 142 187.5 119 c 128,-1,53
 195 96 195 96 213 81 c 128,-1,54
 231 66 231 66 260 59 c 128,-1,55
 289 52 289 52 332 52 c 0,37,38
EndSplineSet
EndChar

StartChar: uni02A7
Encoding: 679 679 532
Width: 600
GlyphClass: 2
Flags: W
AnchorPoint: "Anchor-3" 331 -219 basechar 0
AnchorPoint: "Anchor-0" 293 730 basechar 0
LayerCount: 2
Fore
SplineSet
353 -217 m 0,0,1
 331 -217 331 -217 313.5 -213 c 128,-1,2
 296 -209 296 -209 283 -204 c 1,3,-1
 300 -142 l 1,4,5
 309 -145 309 -145 321 -147.5 c 128,-1,6
 333 -150 333 -150 346 -150 c 0,7,8
 380 -150 380 -150 391 -125 c 128,-1,9
 402 -100 402 -100 402 -55 c 2,10,-1
 402 419 l 1,11,-1
 203 419 l 1,12,-1
 203 149 l 2,13,14
 203 104 203 104 218 79.5 c 128,-1,15
 233 55 233 55 272 55 c 0,16,17
 286 55 286 55 301 59 c 128,-1,18
 316 63 316 63 330 68 c 1,19,-1
 345 6 l 1,20,21
 325 -1 325 -1 302.5 -6.5 c 128,-1,22
 280 -12 280 -12 257 -12 c 0,23,24
 219 -12 219 -12 192.5 0 c 128,-1,25
 166 12 166 12 150 33 c 128,-1,26
 134 54 134 54 127 84 c 128,-1,27
 120 114 120 114 120 150 c 2,28,-1
 120 419 l 1,29,-1
 48 419 l 1,30,-1
 48 481 l 1,31,-1
 123 486 l 1,32,-1
 134 642 l 1,33,-1
 203 642 l 1,34,-1
 203 486 l 1,35,-1
 402 486 l 1,36,-1
 402 566 l 2,37,38
 402 639 402 639 434.5 682.5 c 128,-1,39
 467 726 467 726 543 726 c 0,40,41
 562 726 562 726 577 722 c 128,-1,42
 592 718 592 718 603 713 c 1,43,-1
 587 650 l 1,44,45
 579 653 579 653 570 656 c 128,-1,46
 561 659 561 659 551 659 c 0,47,48
 510 659 510 659 497 633.5 c 128,-1,49
 484 608 484 608 484 563 c 2,50,-1
 484 -55 l 2,51,52
 484 -129 484 -129 453.5 -173 c 128,-1,53
 423 -217 423 -217 353 -217 c 0,0,1
EndSplineSet
EndChar

StartChar: uni0294
Encoding: 660 660 533
Width: 600
GlyphClass: 2
Flags: W
AnchorPoint: "Anchor-3" 279 -20 basechar 0
AnchorPoint: "Anchor-0" 300 736 basechar 0
LayerCount: 2
Fore
SplineSet
239 0 m 1,0,-1
 239 311 l 1,1,2
 288 339 288 339 323.5 363 c 128,-1,3
 359 387 359 387 381.5 412 c 128,-1,4
 404 437 404 437 415 463.5 c 128,-1,5
 426 490 426 490 426 523 c 0,6,7
 426 584 426 584 387.5 620 c 128,-1,8
 349 656 349 656 277 656 c 0,9,10
 220 656 220 656 180.5 631.5 c 128,-1,11
 141 607 141 607 115 575 c 1,12,-1
 71 628 l 1,13,14
 87 646 87 646 108 663.5 c 128,-1,15
 129 681 129 681 155 694.5 c 128,-1,16
 181 708 181 708 213 716 c 128,-1,17
 245 724 245 724 283 724 c 0,18,19
 330 724 330 724 371.5 711.5 c 128,-1,20
 413 699 413 699 443.5 673.5 c 128,-1,21
 474 648 474 648 492 610.5 c 128,-1,22
 510 573 510 573 510 524 c 0,23,24
 510 480 510 480 496 446 c 128,-1,25
 482 412 482 412 457 382.5 c 128,-1,26
 432 353 432 353 397 327.5 c 128,-1,27
 362 302 362 302 321 275 c 1,28,-1
 321 0 l 1,29,-1
 239 0 l 1,0,-1
EndSplineSet
EndChar

StartChar: uni0295
Encoding: 661 661 534
Width: 600
GlyphClass: 2
Flags: W
AnchorPoint: "Anchor-3" 320 -20 basechar 0
AnchorPoint: "Anchor-0" 306 736 basechar 0
LayerCount: 2
Fore
SplineSet
278 0 m 1,0,-1
 278 275 l 1,1,2
 236 302 236 302 201.5 327.5 c 128,-1,3
 167 353 167 353 142 382.5 c 128,-1,4
 117 412 117 412 103 446 c 128,-1,5
 89 480 89 480 89 524 c 0,6,7
 89 573 89 573 106.5 610.5 c 128,-1,8
 124 648 124 648 155 673.5 c 128,-1,9
 186 699 186 699 227 711.5 c 128,-1,10
 268 724 268 724 315 724 c 0,11,12
 354 724 354 724 385.5 716 c 128,-1,13
 417 708 417 708 443.5 694.5 c 128,-1,14
 470 681 470 681 490.5 663.5 c 128,-1,15
 511 646 511 646 527 628 c 1,16,-1
 484 575 l 1,17,18
 457 607 457 607 417.5 631.5 c 128,-1,19
 378 656 378 656 321 656 c 0,20,21
 250 656 250 656 211 620 c 128,-1,22
 172 584 172 584 172 523 c 0,23,24
 172 490 172 490 183 463.5 c 128,-1,25
 194 437 194 437 217 412 c 128,-1,26
 240 387 240 387 275.5 363 c 128,-1,27
 311 339 311 339 360 311 c 1,28,-1
 360 0 l 1,29,-1
 278 0 l 1,0,-1
EndSplineSet
EndChar

StartChar: uni02A1
Encoding: 673 673 535
Width: 600
GlyphClass: 2
Flags: W
AnchorPoint: "Anchor-3" 279 -20 basechar 0
AnchorPoint: "Anchor-0" 300 736 basechar 0
LayerCount: 2
Fore
SplineSet
239 0 m 1,0,-1
 239 251 l 1,1,-1
 74 251 l 1,2,-1
 74 309 l 1,3,-1
 150 314 l 1,4,-1
 252 314 l 1,5,6
 335 362 335 362 380.5 412.5 c 128,-1,7
 426 463 426 463 426 523 c 0,8,9
 426 584 426 584 388.5 620 c 128,-1,10
 351 656 351 656 281 656 c 0,11,12
 223 656 223 656 183 631 c 128,-1,13
 143 606 143 606 115 575 c 1,14,-1
 71 628 l 1,15,16
 87 646 87 646 108.5 663 c 128,-1,17
 130 680 130 680 156.5 693.5 c 128,-1,18
 183 707 183 707 215.5 715.5 c 128,-1,19
 248 724 248 724 287 724 c 0,20,21
 333 724 333 724 374 711.5 c 128,-1,22
 415 699 415 699 445 673.5 c 128,-1,23
 475 648 475 648 492.5 610.5 c 128,-1,24
 510 573 510 573 510 524 c 0,25,26
 510 488 510 488 498 458 c 128,-1,27
 486 428 486 428 466.5 402.5 c 128,-1,28
 447 377 447 377 420.5 355 c 128,-1,29
 394 333 394 333 366 314 c 1,30,-1
 518 314 l 1,31,-1
 518 251 l 1,32,-1
 321 251 l 1,33,-1
 321 0 l 1,34,-1
 239 0 l 1,0,-1
EndSplineSet
EndChar

StartChar: uni02A2
Encoding: 674 674 536
Width: 600
GlyphClass: 2
Flags: W
AnchorPoint: "Anchor-3" 320 -20 basechar 0
AnchorPoint: "Anchor-0" 306 736 basechar 0
LayerCount: 2
Fore
SplineSet
279 0 m 1,0,-1
 279 251 l 1,1,-1
 82 251 l 1,2,-1
 82 309 l 1,3,-1
 158 314 l 1,4,-1
 234 314 l 1,5,6
 205 333 205 333 179 355 c 128,-1,7
 153 377 153 377 133.5 402.5 c 128,-1,8
 114 428 114 428 102 458 c 128,-1,9
 90 488 90 488 90 524 c 0,10,11
 90 573 90 573 107.5 610.5 c 128,-1,12
 125 648 125 648 155 673.5 c 128,-1,13
 185 699 185 699 225.5 711.5 c 128,-1,14
 266 724 266 724 313 724 c 0,15,16
 352 724 352 724 384.5 715.5 c 128,-1,17
 417 707 417 707 443.5 693.5 c 128,-1,18
 470 680 470 680 491 663 c 128,-1,19
 512 646 512 646 529 628 c 1,20,-1
 485 575 l 1,21,22
 457 606 457 606 417 631 c 128,-1,23
 377 656 377 656 319 656 c 0,24,25
 249 656 249 656 211 620 c 128,-1,26
 173 584 173 584 173 523 c 0,27,28
 173 463 173 463 219 412.5 c 128,-1,29
 265 362 265 362 347 314 c 1,30,-1
 526 314 l 1,31,-1
 526 251 l 1,32,-1
 361 251 l 1,33,-1
 361 0 l 1,34,-1
 279 0 l 1,0,-1
EndSplineSet
EndChar

StartChar: uni01C2
Encoding: 450 450 537
Width: 600
Flags: W
LayerCount: 2
Fore
SplineSet
260 -205 m 1,0,-1
 260 154 l 1,1,-1
 84 154 l 1,2,-1
 84 212 l 1,3,-1
 260 216 l 1,4,-1
 260 324 l 1,5,-1
 84 324 l 1,6,-1
 84 382 l 1,7,-1
 260 386 l 1,8,-1
 260 712 l 1,9,-1
 340 712 l 1,10,-1
 340 386 l 1,11,-1
 516 386 l 1,12,-1
 516 324 l 1,13,-1
 340 324 l 1,14,-1
 340 216 l 1,15,-1
 516 216 l 1,16,-1
 516 154 l 1,17,-1
 340 154 l 1,18,-1
 340 -205 l 1,19,-1
 260 -205 l 1,0,-1
EndSplineSet
EndChar

StartChar: uni0298
Encoding: 664 664 538
Width: 600
Flags: W
LayerCount: 2
Fore
SplineSet
300 -12 m 256,0,1
 245 -12 245 -12 201 10 c 128,-1,2
 157 32 157 32 125.5 77.5 c 128,-1,3
 94 123 94 123 77 193 c 128,-1,4
 60 263 60 263 60 359 c 0,5,6
 60 448 60 448 77 516.5 c 128,-1,7
 94 585 94 585 125.5 631 c 128,-1,8
 157 677 157 677 201 700.5 c 128,-1,9
 245 724 245 724 300 724 c 256,10,11
 355 724 355 724 399.5 700.5 c 128,-1,12
 444 677 444 677 475.5 631 c 128,-1,13
 507 585 507 585 524 516.5 c 128,-1,14
 541 448 541 448 541 359 c 0,15,16
 541 263 541 263 524 193 c 128,-1,17
 507 123 507 123 475.5 77.5 c 128,-1,18
 444 32 444 32 399.5 10 c 128,-1,19
 355 -12 355 -12 300 -12 c 256,0,1
300 56 m 0,20,21
 334 56 334 56 364 72 c 128,-1,22
 394 88 394 88 415.5 124 c 128,-1,23
 437 160 437 160 449.5 217.5 c 128,-1,24
 462 275 462 275 462 359 c 0,25,26
 462 435 462 435 449.5 491 c 128,-1,27
 437 547 437 547 415.5 584 c 128,-1,28
 394 621 394 621 364 638.5 c 128,-1,29
 334 656 334 656 300 656 c 0,30,31
 265 656 265 656 235.5 638.5 c 128,-1,32
 206 621 206 621 184.5 584 c 128,-1,33
 163 547 163 547 150.5 491 c 128,-1,34
 138 435 138 435 138 359 c 0,35,36
 138 275 138 275 150.5 217.5 c 128,-1,37
 163 160 163 160 184.5 124 c 128,-1,38
 206 88 206 88 235.5 72 c 128,-1,39
 265 56 265 56 300 56 c 0,20,21
300 296 m 256,40,41
 275 296 275 296 256.5 314 c 128,-1,42
 238 332 238 332 238 359 c 0,43,44
 238 388 238 388 256.5 405.5 c 128,-1,45
 275 423 275 423 300 423 c 256,46,47
 325 423 325 423 343.5 405.5 c 128,-1,48
 362 388 362 388 362 359 c 0,49,50
 362 332 362 332 343.5 314 c 128,-1,51
 325 296 325 296 300 296 c 256,40,41
EndSplineSet
EndChar

StartChar: uni014A.a
Encoding: 1114119 -1 539
Width: 600
GlyphClass: 2
Flags: W
AnchorPoint: "Anchor-0" 310 676 basechar 0
LayerCount: 2
Fore
SplineSet
397 -165 m 0,0,1
 375 -165 375 -165 357.5 -161.5 c 128,-1,2
 340 -158 340 -158 328 -153 c 1,3,-1
 344 -87 l 1,4,5
 353 -90 353 -90 364 -93 c 128,-1,6
 375 -96 375 -96 386 -96 c 0,7,8
 418 -96 418 -96 428 -70 c 128,-1,9
 438 -44 438 -44 438 0 c 1,10,-1
 426 0 l 1,11,-1
 216 412 l 1,12,-1
 153 548 l 1,13,-1
 151 548 l 1,14,15
 153 497 153 497 157.5 445.5 c 128,-1,16
 162 394 162 394 162 343 c 2,17,-1
 162 0 l 1,18,-1
 82 0 l 1,19,-1
 82 656 l 1,20,-1
 174 656 l 1,21,-1
 384 244 l 1,22,-1
 447 108 l 1,23,-1
 449 108 l 1,24,25
 447 157 447 157 442.5 210.5 c 128,-1,26
 438 264 438 264 438 316 c 2,27,-1
 438 656 l 1,28,-1
 518 656 l 1,29,-1
 518 -3 l 2,30,31
 518 -78 518 -78 489.5 -121.5 c 128,-1,32
 461 -165 461 -165 397 -165 c 0,0,1
EndSplineSet
EndChar

StartChar: aringacute.a
Encoding: 1114129 -1 549
Width: 600
Flags: W
LayerCount: 2
Fore
SplineSet
270 -12 m 0,0,1
 223 -12 223 -12 184.5 5 c 128,-1,2
 146 22 146 22 118 54.5 c 128,-1,3
 90 87 90 87 75 134 c 128,-1,4
 60 181 60 181 60 242 c 0,5,6
 60 301 60 301 78 348.5 c 128,-1,7
 96 396 96 396 127 429 c 128,-1,8
 158 462 158 462 198 480 c 128,-1,9
 238 498 238 498 282 498 c 0,10,11
 325 498 325 498 361 481 c 128,-1,12
 397 464 397 464 431 432 c 1,13,-1
 434 432 l 1,14,-1
 441 486 l 1,15,-1
 507 486 l 1,16,-1
 507 0 l 1,17,-1
 439 0 l 1,18,-1
 432 64 l 1,19,-1
 429 64 l 1,20,21
 400 33 400 33 358 10.5 c 128,-1,22
 316 -12 316 -12 270 -12 c 0,0,1
288 57 m 0,23,24
 360 57 360 57 425 130 c 1,25,-1
 425 372 l 1,26,27
 392 403 392 403 360.5 416 c 128,-1,28
 329 429 329 429 297 429 c 256,29,30
 265 429 265 429 237.5 415.5 c 128,-1,31
 210 402 210 402 189.5 377.5 c 128,-1,32
 169 353 169 353 157 319 c 128,-1,33
 145 285 145 285 145 243 c 0,34,35
 145 155 145 155 182.5 106 c 128,-1,36
 220 57 220 57 288 57 c 0,23,24
304 569 m 256,37,38
 252 569 252 569 223 596.5 c 128,-1,39
 194 624 194 624 194 665 c 0,40,41
 194 689 194 689 204 709 c 128,-1,42
 214 729 214 729 234 742 c 2,43,-1
 373 843 l 1,44,-1
 409 793 l 1,45,-1
 335 758 l 1,46,47
 373 750 373 750 393.5 724.5 c 128,-1,48
 414 699 414 699 414 665 c 0,49,50
 414 624 414 624 385 596.5 c 128,-1,51
 356 569 356 569 304 569 c 256,37,38
304 606 m 256,52,53
 328 606 328 606 344.5 623 c 128,-1,54
 361 640 361 640 361 665 c 0,55,56
 361 691 361 691 344.5 707.5 c 128,-1,57
 328 724 328 724 304 724 c 256,58,59
 280 724 280 724 263.5 707.5 c 128,-1,60
 247 691 247 691 247 665 c 0,61,62
 247 640 247 640 263.5 623 c 128,-1,63
 280 606 280 606 304 606 c 256,52,53
EndSplineSet
EndChar

StartChar: aogonek.a
Encoding: 1114143 -1 563
Width: 600
GlyphClass: 2
Flags: W
AnchorPoint: "Anchor-0" 306 507 basechar 0
LayerCount: 2
Fore
SplineSet
451 -225 m 0,0,1
 409 -225 409 -225 380.5 -202.5 c 128,-1,2
 352 -180 352 -180 352 -132 c 0,3,4
 352 -89 352 -89 378 -56 c 128,-1,5
 404 -23 404 -23 440 0 c 1,6,-1
 432 64 l 1,7,-1
 429 64 l 1,8,9
 400 33 400 33 358 10.5 c 128,-1,10
 316 -12 316 -12 270 -12 c 0,11,12
 223 -12 223 -12 184.5 5 c 128,-1,13
 146 22 146 22 118 54.5 c 128,-1,14
 90 87 90 87 75 134 c 128,-1,15
 60 181 60 181 60 242 c 0,16,17
 60 301 60 301 78 348.5 c 128,-1,18
 96 396 96 396 127 429 c 128,-1,19
 158 462 158 462 198 480 c 128,-1,20
 238 498 238 498 282 498 c 0,21,22
 325 498 325 498 361 481 c 128,-1,23
 397 464 397 464 431 432 c 1,24,-1
 434 432 l 1,25,-1
 441 486 l 1,26,-1
 507 486 l 1,27,-1
 507 -5 l 1,28,29
 455 -28 455 -28 434 -57.5 c 128,-1,30
 413 -87 413 -87 413 -116 c 0,31,32
 413 -144 413 -144 429.5 -157.5 c 128,-1,33
 446 -171 446 -171 468 -171 c 0,34,35
 484 -171 484 -171 496 -164.5 c 128,-1,36
 508 -158 508 -158 517 -150 c 1,37,-1
 541 -189 l 1,38,39
 524 -205 524 -205 501.5 -215 c 128,-1,40
 479 -225 479 -225 451 -225 c 0,0,1
288 57 m 0,41,42
 360 57 360 57 425 130 c 1,43,-1
 425 372 l 1,44,45
 392 403 392 403 360.5 416 c 128,-1,46
 329 429 329 429 297 429 c 256,47,48
 265 429 265 429 237.5 415.5 c 128,-1,49
 210 402 210 402 189.5 377.5 c 128,-1,50
 169 353 169 353 157 319 c 128,-1,51
 145 285 145 285 145 243 c 0,52,53
 145 155 145 155 182.5 106 c 128,-1,54
 220 57 220 57 288 57 c 0,41,42
EndSplineSet
EndChar

StartChar: dotlessi.a
Encoding: 1114154 -1 574
Width: 600
GlyphClass: 2
Flags: W
AnchorPoint: "Anchor-6" 336 0 basechar 0
AnchorPoint: "Anchor-3" 328 -20 basechar 0
AnchorPoint: "Anchor-2" 334 0 basechar 0
AnchorPoint: "Anchor-0" 328 507 basechar 0
LayerCount: 2
Fore
SplineSet
99 0 m 1,0,-1
 99 67 l 1,1,-1
 296 67 l 1,2,-1
 296 419 l 1,3,-1
 123 419 l 1,4,-1
 123 486 l 1,5,-1
 378 486 l 1,6,-1
 378 67 l 1,7,-1
 564 67 l 1,8,-1
 564 0 l 1,9,-1
 99 0 l 1,0,-1
EndSplineSet
EndChar

StartChar: iogonek.d
Encoding: 1114167 -1 587
Width: 600
GlyphClass: 2
Flags: W
AnchorPoint: "Anchor-0" 348 507 basechar 0
LayerCount: 2
Fore
SplineSet
353 -225 m 0,0,1
 308 -225 308 -225 278.5 -202.5 c 128,-1,2
 249 -180 249 -180 249 -132 c 0,3,4
 249 -90 249 -90 274.5 -57 c 128,-1,5
 300 -24 300 -24 335 0 c 1,6,-1
 316 0 l 1,7,-1
 316 419 l 1,8,-1
 90 419 l 1,9,-1
 90 486 l 1,10,-1
 398 486 l 1,11,-1
 398 -5 l 1,12,13
 353 -27 353 -27 331.5 -56.5 c 128,-1,14
 310 -86 310 -86 310 -116 c 0,15,16
 310 -144 310 -144 328 -157.5 c 128,-1,17
 346 -171 346 -171 370 -171 c 0,18,19
 386 -171 386 -171 398.5 -165 c 128,-1,20
 411 -159 411 -159 422 -150 c 1,21,-1
 446 -189 l 1,22,23
 428 -206 428 -206 404.5 -215.5 c 128,-1,24
 381 -225 381 -225 353 -225 c 0,0,1
EndSplineSet
Ligature2: "Ligature Substitution lookup 33 subtable" i uni0328
Substitution2: "'ss04' Style Set 4 lookup 2 subtable" iogonek.da
EndChar

StartChar: iogonek.da
Encoding: 1114168 -1 588
Width: 600
GlyphClass: 2
Flags: W
AnchorPoint: "Anchor-0" 328 520 basechar 0
LayerCount: 2
Fore
SplineSet
345 -225 m 0,0,1
 301 -225 301 -225 271.5 -202.5 c 128,-1,2
 242 -180 242 -180 242 -132 c 0,3,4
 242 -91 242 -91 265 -58 c 128,-1,5
 288 -25 288 -25 317 0 c 1,6,-1
 99 0 l 1,7,-1
 99 67 l 1,8,-1
 296 67 l 1,9,-1
 296 419 l 1,10,-1
 123 419 l 1,11,-1
 123 486 l 1,12,-1
 378 486 l 1,13,-1
 378 67 l 1,14,-1
 564 67 l 1,15,-1
 564 0 l 1,16,-1
 383 0 l 1,17,18
 341 -29 341 -29 322 -59 c 128,-1,19
 303 -89 303 -89 303 -116 c 0,20,21
 303 -144 303 -144 321 -157.5 c 128,-1,22
 339 -171 339 -171 362 -171 c 0,23,24
 379 -171 379 -171 391.5 -165 c 128,-1,25
 404 -159 404 -159 415 -150 c 1,26,-1
 439 -189 l 1,27,28
 421 -206 421 -206 397.5 -215.5 c 128,-1,29
 374 -225 374 -225 345 -225 c 0,0,1
EndSplineSet
Ligature2: "Ligature Substitution lookup 33 subtable" i.a uni0328
EndChar

StartChar: uni0268.d
Encoding: 1114169 -1 589
Width: 600
GlyphClass: 2
Flags: W
AnchorPoint: "Anchor-3" 348 -20 basechar 0
AnchorPoint: "Anchor-0" 348 507 basechar 0
LayerCount: 2
Fore
SplineSet
132 210 m 1,0,-1
 132 266 l 1,1,-1
 316 272 l 1,2,-1
 316 419 l 1,3,-1
 90 419 l 1,4,-1
 90 486 l 1,5,-1
 398 486 l 1,6,-1
 398 272 l 1,7,-1
 564 272 l 1,8,-1
 564 210 l 1,9,-1
 398 210 l 1,10,-1
 398 0 l 1,11,-1
 316 0 l 1,12,-1
 316 210 l 1,13,-1
 132 210 l 1,0,-1
EndSplineSet
Substitution2: "'ss04' Style Set 4 lookup 2 subtable" uni0268.da
EndChar

StartChar: uni0268.da
Encoding: 1114170 -1 590
Width: 600
GlyphClass: 2
Flags: W
AnchorPoint: "Anchor-3" 328 -20 basechar 0
AnchorPoint: "Anchor-0" 328 507 basechar 0
LayerCount: 2
Fore
SplineSet
116 220 m 1,0,-1
 116 278 l 1,1,-1
 296 284 l 1,2,-1
 296 419 l 1,3,-1
 123 419 l 1,4,-1
 123 486 l 1,5,-1
 378 486 l 1,6,-1
 378 284 l 1,7,-1
 548 284 l 1,8,-1
 548 220 l 1,9,-1
 378 220 l 1,10,-1
 378 67 l 1,11,-1
 564 67 l 1,12,-1
 564 0 l 1,13,-1
 99 0 l 1,14,-1
 99 67 l 1,15,-1
 296 67 l 1,16,-1
 296 220 l 1,17,-1
 116 220 l 1,0,-1
EndSplineSet
EndChar

StartChar: uni029D.d
Encoding: 1114171 -1 591
Width: 600
GlyphClass: 2
Flags: W
AnchorPoint: "Anchor-3" 223 -219 basechar 0
AnchorPoint: "Anchor-0" 348 507 basechar 0
LayerCount: 2
Fore
SplineSet
418 -250 m 1,0,1
 403 -221 403 -221 387.5 -198 c 128,-1,2
 372 -175 372 -175 355 -155 c 1,3,4
 331 -184 331 -184 293 -200.5 c 128,-1,5
 255 -217 255 -217 201 -217 c 0,6,7
 131 -217 131 -217 93.5 -184 c 128,-1,8
 56 -151 56 -151 56 -106 c 256,9,10
 56 -61 56 -61 89 -33.5 c 128,-1,11
 122 -6 122 -6 185 -6 c 0,12,13
 217 -6 217 -6 250 -14 c 128,-1,14
 283 -22 283 -22 316 -39 c 1,15,-1
 316 -37 l 1,16,-1
 316 419 l 1,17,-1
 90 419 l 1,18,-1
 90 486 l 1,19,-1
 398 486 l 1,20,-1
 398 -20 l 2,21,22
 398 -61 398 -61 388 -92 c 1,23,24
 414 -116 414 -116 437.5 -147.5 c 128,-1,25
 461 -179 461 -179 482 -220 c 1,26,-1
 418 -250 l 1,0,1
200 -152 m 0,27,28
 240 -152 240 -152 264 -138.5 c 128,-1,29
 288 -125 288 -125 300 -104 c 1,30,31
 271 -83 271 -83 242 -74 c 128,-1,32
 213 -65 213 -65 184 -65 c 0,33,34
 152 -65 152 -65 137 -76.5 c 128,-1,35
 122 -88 122 -88 122 -105 c 0,36,37
 122 -125 122 -125 142 -138.5 c 128,-1,38
 162 -152 162 -152 200 -152 c 0,27,28
EndSplineSet
EndChar

StartChar: l.a
Encoding: 1114172 -1 592
Width: 600
GlyphClass: 2
Flags: W
AnchorPoint: "Anchor-4" 337 385 basechar 0
AnchorPoint: "Anchor-3" 328 -20 basechar 0
AnchorPoint: "Anchor-2" 334 0 basechar 0
AnchorPoint: "Anchor-0" 334 736 basechar 0
LayerCount: 2
Fore
SplineSet
99 0 m 1,0,-1
 99 67 l 1,1,-1
 296 67 l 1,2,-1
 296 645 l 1,3,-1
 123 645 l 1,4,-1
 123 712 l 1,5,-1
 378 712 l 1,6,-1
 378 67 l 1,7,-1
 564 67 l 1,8,-1
 564 0 l 1,9,-1
 99 0 l 1,0,-1
EndSplineSet
EndChar

StartChar: lslash.a
Encoding: 1114179 -1 599
Width: 600
GlyphClass: 2
Flags: W
AnchorPoint: "Anchor-3" 328 -20 basechar 0
AnchorPoint: "Anchor-2" 334 0 basechar 0
AnchorPoint: "Anchor-0" 334 736 basechar 0
LayerCount: 2
Fore
SplineSet
99 0 m 1,0,-1
 99 67 l 1,1,-1
 296 67 l 1,2,-1
 296 335 l 1,3,-1
 188 271 l 1,4,-1
 159 325 l 1,5,-1
 296 405 l 1,6,-1
 296 645 l 1,7,-1
 123 645 l 1,8,-1
 123 712 l 1,9,-1
 378 712 l 1,10,-1
 378 443 l 1,11,-1
 525 527 l 1,12,-1
 554 473 l 1,13,-1
 378 373 l 1,14,-1
 378 67 l 1,15,-1
 564 67 l 1,16,-1
 564 0 l 1,17,-1
 99 0 l 1,0,-1
EndSplineSet
EndChar

StartChar: uni006C00B7006C.a
Encoding: 1114181 -1 601
Width: 600
Flags: W
LayerCount: 2
Fore
SplineSet
-4 0 m 1,0,-1
 -4 67 l 1,1,-1
 109 67 l 1,2,-1
 109 645 l 1,3,-1
 2 645 l 1,4,-1
 2 712 l 1,5,-1
 184 712 l 1,6,-1
 184 67 l 1,7,-1
 286 67 l 1,8,-1
 286 0 l 1,9,-1
 -4 0 l 1,0,-1
315 0 m 1,10,-1
 315 67 l 1,11,-1
 420 67 l 1,12,-1
 420 645 l 1,13,-1
 312 645 l 1,14,-1
 312 712 l 1,15,-1
 495 712 l 1,16,-1
 495 67 l 1,17,-1
 604 67 l 1,18,-1
 604 0 l 1,19,-1
 315 0 l 1,10,-1
305 292 m 0,20,21
 281 292 281 292 263.5 309 c 128,-1,22
 246 326 246 326 246 355 c 256,23,24
 246 384 246 384 263.5 400.5 c 128,-1,25
 281 417 281 417 305 417 c 0,26,27
 328 417 328 417 345.5 400.5 c 128,-1,28
 363 384 363 384 363 355 c 256,29,30
 363 326 363 326 345.5 309 c 128,-1,31
 328 292 328 292 305 292 c 0,20,21
EndSplineSet
EndChar

StartChar: uni026C.a
Encoding: 1114183 -1 603
Width: 600
GlyphClass: 2
Flags: W
AnchorPoint: "Anchor-3" 328 -20 basechar 0
AnchorPoint: "Anchor-0" 334 736 basechar 0
LayerCount: 2
Fore
SplineSet
273 311 m 2,0,1
 199 311 199 311 166.5 336.5 c 128,-1,2
 134 362 134 362 134 400 c 0,3,4
 134 433 134 433 158.5 455.5 c 128,-1,5
 183 478 183 478 222 478 c 0,6,7
 248 478 248 478 266 470 c 128,-1,8
 284 462 284 462 296 449 c 1,9,-1
 296 645 l 1,10,-1
 123 645 l 1,11,-1
 123 712 l 1,12,-1
 378 712 l 1,13,-1
 378 358 l 1,14,-1
 518 358 l 1,15,-1
 518 311 l 1,16,-1
 378 311 l 1,17,-1
 378 67 l 1,18,-1
 564 67 l 1,19,-1
 564 0 l 1,20,-1
 99 0 l 1,21,-1
 99 67 l 1,22,-1
 296 67 l 1,23,-1
 296 311 l 1,24,-1
 273 311 l 2,0,1
263 358 m 2,25,-1
 296 358 l 1,26,-1
 296 368 l 2,27,28
 296 390 296 390 279 411 c 128,-1,29
 262 432 262 432 227 432 c 0,30,31
 206 432 206 432 196 422.5 c 128,-1,32
 186 413 186 413 186 399 c 0,33,34
 186 382 186 382 202.5 370 c 128,-1,35
 219 358 219 358 263 358 c 2,25,-1
EndSplineSet
EndChar

StartChar: Gamma
Encoding: 915 915 606
Width: 600
Flags: W
LayerCount: 2
Fore
SplineSet
135 0 m 1,0,-1
 135 656 l 1,1,-1
 535 656 l 1,2,-1
 535 586 l 1,3,-1
 218 586 l 1,4,-1
 218 0 l 1,5,-1
 135 0 l 1,0,-1
EndSplineSet
EndChar

StartChar: uni0394
Encoding: 916 916 607
Width: 600
Flags: W
LayerCount: 2
Fore
SplineSet
43 0 m 1,0,-1
 43 50 l 1,1,-1
 252 656 l 1,2,-1
 348 656 l 1,3,-1
 557 50 l 1,4,-1
 557 0 l 1,5,-1
 43 0 l 1,0,-1
134 71 m 1,6,-1
 465 71 l 1,7,-1
 368 364 l 2,8,9
 351 418 351 418 334.5 473 c 128,-1,10
 318 528 318 528 301 585 c 1,11,-1
 297 585 l 1,12,13
 280 528 280 528 263.5 473 c 128,-1,14
 247 418 247 418 230 364 c 2,15,-1
 134 71 l 1,6,-1
EndSplineSet
EndChar

